{
.appVersion = "983";
DisplayStrings = (
"Coalhouse Fort is an English artillery fort built in the 1860s to guard the lower Thames from seaborne attack. It stands at Coalhouse Point in Essex on the north bank of the river, at a location near East Tilbury that was vulnerable to raiders and invaders. It was the last in a series of fortifications dating back to the 15th century and was the direct successor to a smaller mid-19th century fort on the same site. It was initially a front-line fortification, supported by Shornemead Fort and Cliffe Fort on the Kent shore. Over time, as batteries and forts further downriver became the front line of the Thames defences, its main weapons were replaced with smaller quick-firing guns intended for use against fast-moving surface and aerial targets. Its last military use was as a training facility after the Second World War. Decommissioned in 1949, the fort fell into dereliction, despite its historical and architectural significance. Its restoration has been funded in part by the Heritage Lottery Fund and the Warner Bros. film studio, which used it as a location for the opening scenes of the 2005 film Batman Begins. "
);
copyright = "Copyright © 2018 by Cadson Demak Co.,Ltd.. All rights reserved.";
customParameters = (
{
name = vendorID;
value = CDK;
},
{
name = description;
value = "Copyright (c) 2018, Cadson Demak (info@cadsondemak.com)";
},
{
name = license;

glyphs = (
{
glyphname = A;
lastChange = "2018-03-27 09:23:35 +0000";
layers = (
{
anchors = (
{
name = bottom;
position = "{353, 0}";
},
{
name = ogonek;
position = "{634, 10}";
},
{
name = top;
position = "{353, 700}";
}
);
background = {
paths = (
{
closed = 1;
nodes = (
"142 163 LINE",
"579 163 LINE",
"579 279 LINE",
"142 279 LINE"
);
},
{
closed = 1;
nodes = (
"423 681 OFFCURVE",
"395 700 OFFCURVE",
"352 700 CURVE SMOOTH",
"290 700 LINE",
"5 0 LINE",
"150 0 LINE",
"235 212 LINE",
"236 235 LINE",
"370 571 LINE",
"337 571 LINE",
"471 235 LINE",
"474 206 LINE",
"556 0 LINE",
"701 0 LINE",
"440 640 LINE SMOOTH"
);
}
);
};
layerId = "EA06CE92-4115-4482-8874-2441C279E756";
paths = (
{
closed = 1;
nodes = (
"150 0 LINE",
"235 212 LINE",
"236 235 LINE",
"370 571 LINE",
"337 571 LINE",
"471 235 LINE",
"474 206 LINE",
"556 0 LINE",
"701 0 LINE",
"440 640 LINE SMOOTH",
"423 681 OFFCURVE",
"395 700 OFFCURVE",
"352 700 CURVE SMOOTH",
"290 700 LINE",
"5 0 LINE"
);
},
{
closed = 1;
nodes = (
"579 163 LINE",
"579 279 LINE",
"142 279 LINE",
"142 163 LINE"
);
}
);
width = 706;
},
{
associatedMasterId = "020CB1CC-CCFF-4D13-936A-D2256F19E5D3";
layerId = "8AF6BA7E-4672-4BE4-A9AE-4DB948958C2C";
width = 600;
},
{
associatedMasterId = "020CB1CC-CCFF-4D13-936A-D2256F19E5D3";
layerId = "99466340-D915-47F2-B9C7-36A05CF0162D";
width = 600;
},
{
anchors = (
{
name = bottom;
position = "{352, 0}";
},
{
name = ogonek;
position = "{648, 0}";
},
{
name = top;
position = "{351, 700}";
}
);
background = {
paths = (
{
closed = 1;
nodes = (
"73 0 LINE",
"162 227 LINE",
"165 235 LINE",
"330 660 LINE",
"331 660 LINE",
"499 234 LINE",
"502 226 LINE",
"590 0 LINE",
"628 0 LINE",
"355 688 LINE SMOOTH",
"349 703 OFFCURVE",
"341 710 OFFCURVE",
"331 710 CURVE SMOOTH",
"316 710 LINE",
"35 0 LINE"
);
},
{
closed = 1;
nodes = (
"523 213 LINE",
"523 247 LINE",
"142 247 LINE",
"142 213 LINE"
);
}
);
};
layerId = "020CB1CC-CCFF-4D13-936A-D2256F19E5D3";
paths = (
{
closed = 1;
nodes = (
"93 0 LINE",
"182 227 LINE",
"185 235 LINE",
"350 660 LINE",
"351 660 LINE",
"519 234 LINE",
"522 226 LINE",
"610 0 LINE",
"648 0 LINE",
"375 688 LINE SMOOTH",
"369 703 OFFCURVE",
"361 710 OFFCURVE",
"351 710 CURVE SMOOTH",
"336 710 LINE",
"55 0 LINE"
);
},
{
closed = 1;
nodes = (
"543 213 LINE",
"543 247 LINE",
"162 247 LINE",
"162 213 LINE"
);
}
);
width = 703;
},
{
associatedMasterId = "020CB1CC-CCFF-4D13-936A-D2256F19E5D3";
layerId = "CDD6304E-9070-4B97-9D2F-FE5AC4B99DAC";
width = 600;
},
{
anchors = (
{
name = bottom;
position = "{342, 0}";
},
{
name = ogonek;
position = "{623, 10}";
},
{
name = top;
position = "{342, 700}";
}
);
background = {
paths = (
{
closed = 1;
nodes = (
"111 0 LINE",
"341 610 LINE",
"342 610 LINE",
"572 0 LINE",
"648 0 LINE",
"391 666 LINE SMOOTH",
"381 693 OFFCURVE",
"365 706 OFFCURVE",
"343 706 CURVE SMOOTH",
"309 706 LINE",
"35 0 LINE"
);
},
{
closed = 1;
nodes = (
"546 194 LINE",
"546 256 LINE",
"163 256 LINE",
"163 194 LINE"
);
}
);
};
layerId = "76C6DC51-463D-4A0C-B694-3EB424048C5D";
paths = (
{
closed = 1;
nodes = (
"111 0 LINE",
"341 610 LINE",
"342 610 LINE",
"572 0 LINE",
"648 0 LINE",
"391 666 LINE SMOOTH",
"381 693 OFFCURVE",
"365 706 OFFCURVE",
"343 706 CURVE SMOOTH",
"309 706 LINE",
"35 0 LINE"
);
},
{
closed = 1;
nodes = (
"546 194 LINE",
"546 256 LINE",
"163 256 LINE",
"163 194 LINE"
);
}
);
width = 683;
}
);
note = A;
unicode = 0041;
},
{
glyphname = B;
lastChange = "2018-03-27 09:25:49 +0000";
layers = (
{
anchors = (
{
name = bottom;
position = "{337, 0}";
},
{
name = top;
position = "{337, 700}";
}
);
background = {
paths = (
{
closed = 1;
nodes = (
"429 1 LINE SMOOTH",
"566 1 OFFCURVE",
"658 81 OFFCURVE",
"658 201 CURVE SMOOTH",
"658 234 LINE SMOOTH",
"658 295 OFFCURVE",
"615 352 OFFCURVE",
"551 376 CURVE",
"586 399 OFFCURVE",
"609 442 OFFCURVE",
"609 483 CURVE SMOOTH",
"609 522 LINE SMOOTH",
"609 629 OFFCURVE",
"517 700 OFFCURVE",
"380 700 CURVE SMOOTH",
"45 700 LINE",
"45 94 LINE SMOOTH",
"45 38 OFFCURVE",
"83 1 OFFCURVE",
"140 1 CURVE SMOOTH"
);
},
{
closed = 1;
nodes = (
"181 119 LINE",
"181 295 LINE",
"439 295 LINE SMOOTH",
"489 295 OFFCURVE",
"522 271 OFFCURVE",
"522 234 CURVE SMOOTH",
"522 201 LINE SMOOTH",
"522 152 OFFCURVE",
"482 119 OFFCURVE",
"421 119 CURVE SMOOTH"
);
},
{
closed = 1;
nodes = (
"380 582 LINE SMOOTH",
"436 582 OFFCURVE",
"473 558 OFFCURVE",
"473 522 CURVE SMOOTH",
"473 483 LINE SMOOTH",
"473 439 OFFCURVE",
"444 409 OFFCURVE",
"400 409 CURVE SMOOTH",
"181 409 LINE",
"181 582 LINE"
);
}
);
};
layerId = "EA06CE92-4115-4482-8874-2441C279E756";
paths = (
{
closed = 1;
nodes = (
"429 1 LINE SMOOTH",
"566 1 OFFCURVE",
"658 81 OFFCURVE",
"658 201 CURVE SMOOTH",
"658 234 LINE SMOOTH",
"658 295 OFFCURVE",
"615 352 OFFCURVE",
"551 376 CURVE",
"586 399 OFFCURVE",
"609 442 OFFCURVE",
"609 483 CURVE SMOOTH",
"609 522 LINE SMOOTH",
"609 629 OFFCURVE",
"517 700 OFFCURVE",
"380 700 CURVE SMOOTH",
"45 700 LINE",
"45 94 LINE SMOOTH",
"45 38 OFFCURVE",
"83 1 OFFCURVE",
"140 1 CURVE SMOOTH"
);
},
{
closed = 1;
nodes = (
"181 119 LINE",
"181 295 LINE",
"439 295 LINE SMOOTH",
"489 295 OFFCURVE",
"522 271 OFFCURVE",
"522 234 CURVE SMOOTH",
"522 201 LINE SMOOTH",
"522 152 OFFCURVE",
"482 119 OFFCURVE",
"421 119 CURVE SMOOTH"
);
},
{
closed = 1;
nodes = (
"380 582 LINE SMOOTH",
"436 582 OFFCURVE",
"473 558 OFFCURVE",
"473 522 CURVE SMOOTH",
"473 483 LINE SMOOTH",
"473 439 OFFCURVE",
"444 409 OFFCURVE",
"400 409 CURVE SMOOTH",
"181 409 LINE",
"181 582 LINE"
);
}
);
width = 673;
},
{
associatedMasterId = "020CB1CC-CCFF-4D13-936A-D2256F19E5D3";
layerId = "8AF6BA7E-4672-4BE4-A9AE-4DB948958C2C";
width = 600;
},
{
associatedMasterId = "020CB1CC-CCFF-4D13-936A-D2256F19E5D3";
layerId = "7CCF7DA0-8AFE-42C1-A0AE-3F427D1BFBB4";
width = 600;
},
{
anchors = (
{
name = bottom;
position = "{336, 0}";
},
{
name = top;
position = "{336, 700}";
}
);
background = {
paths = (
{
closed = 1;
nodes = (
"408 -1 LINE SMOOTH",
"516 -1 OFFCURVE",
"587 67 OFFCURVE",
"587 169 CURVE SMOOTH",
"587 226 LINE SMOOTH",
"587 293 OFFCURVE",
"541 347 OFFCURVE",
"472 362 CURVE",
"512 388 OFFCURVE",
"538 442 OFFCURVE",
"538 497 CURVE SMOOTH",
"538 559 LINE SMOOTH",
"538 643 OFFCURVE",
"467 700 OFFCURVE",
"359 700 CURVE SMOOTH",
"75 700 LINE",
"75 48 LINE SMOOTH",
"75 19 OFFCURVE",
"94 -1 OFFCURVE",
"122 -1 CURVE SMOOTH"
);
},
{
closed = 1;
nodes = (
"112 34 LINE",
"112 337 LINE",
"418 337 LINE SMOOTH",
"497 337 OFFCURVE",
"550 292 OFFCURVE",
"550 226 CURVE SMOOTH",
"550 169 LINE SMOOTH",
"550 88 OFFCURVE",
"488 34 OFFCURVE",
"397 34 CURVE SMOOTH"
);
},
{
closed = 1;
nodes = (
"359 665 LINE SMOOTH",
"444 665 OFFCURVE",
"501 622 OFFCURVE",
"501 559 CURVE SMOOTH",
"501 497 LINE SMOOTH",
"501 420 OFFCURVE",
"452 367 OFFCURVE",
"379 367 CURVE SMOOTH",
"112 367 LINE",
"112 665 LINE"
);
}
);
};
layerId = "020CB1CC-CCFF-4D13-936A-D2256F19E5D3";
paths = (
{
closed = 1;
nodes = (
"423 -1 LINE SMOOTH",
"533 -1 OFFCURVE",
"607 67 OFFCURVE",
"607 169 CURVE SMOOTH",
"607 226 LINE SMOOTH",
"607 292 OFFCURVE",
"559 347 OFFCURVE",
"487 363 CURVE",
"530 385 OFFCURVE",
"558 439 OFFCURVE",
"558 497 CURVE SMOOTH",
"558 559 LINE SMOOTH",
"558 644 OFFCURVE",
"486 700 OFFCURVE",
"379 700 CURVE SMOOTH",
"95 700 LINE",
"95 45 LINE SMOOTH",
"95 17 OFFCURVE",
"113 -1 OFFCURVE",
"141 -1 CURVE SMOOTH"
);
},
{
closed = 1;
nodes = (
"131 33 LINE",
"131 336 LINE",
"438 336 LINE SMOOTH",
"518 336 OFFCURVE",
"571 292 OFFCURVE",
"571 226 CURVE SMOOTH",
"571 169 LINE SMOOTH",
"571 87 OFFCURVE",
"512 33 OFFCURVE",
"423 33 CURVE SMOOTH"
);
},
{
closed = 1;
nodes = (
"379 666 LINE SMOOTH",
"465 666 OFFCURVE",
"522 623 OFFCURVE",
"522 559 CURVE SMOOTH",
"522 497 LINE SMOOTH",
"522 420 OFFCURVE",
"473 368 OFFCURVE",
"399 368 CURVE SMOOTH",
"131 368 LINE",
"131 666 LINE"
);
}
);
width = 672;
},
{
associatedMasterId = "020CB1CC-CCFF-4D13-936A-D2256F19E5D3";
layerId = "10F24FA3-C4E4-4237-991D-39DCDABE0A14";
width = 600;
},
{
anchors = (
{
name = bottom;
position = "{335, 0}";
},
{
name = top;
position = "{335, 700}";
}
);
background = {
paths = (
{
closed = 1;
nodes = (
"425 0 LINE SMOOTH",
"544 0 OFFCURVE",
"622 72 OFFCURVE",
"622 181 CURVE SMOOTH",
"622 229 LINE SMOOTH",
"622 294 OFFCURVE",
"578 349 OFFCURVE",
"511 367 CURVE",
"549 392 OFFCURVE",
"574 442 OFFCURVE",
"574 492 CURVE SMOOTH",
"574 545 LINE SMOOTH",
"574 638 OFFCURVE",
"495 700 OFFCURVE",
"376 700 CURVE SMOOTH",
"75 700 LINE",
"75 65 LINE SMOOTH",
"75 26 OFFCURVE",
"101 0 OFFCURVE",
"140 0 CURVE SMOOTH"
);
},
{
closed = 1;
nodes = (
"149 66 LINE",
"149 322 LINE",
"435 322 LINE SMOOTH",
"503 322 OFFCURVE",
"548 284 OFFCURVE",
"548 229 CURVE SMOOTH",
"548 181 LINE SMOOTH",
"548 112 OFFCURVE",
"495 66 OFFCURVE",
"415 66 CURVE SMOOTH"
);
},
{
closed = 1;
nodes = (
"376 634 LINE SMOOTH",
"450 634 OFFCURVE",
"500 598 OFFCURVE",
"500 545 CURVE SMOOTH",
"500 492 LINE SMOOTH",
"500 427 OFFCURVE",
"458 384 OFFCURVE",
"396 384 CURVE SMOOTH",
"149 384 LINE",
"149 634 LINE"
);
}
);
};
layerId = "76C6DC51-463D-4A0C-B694-3EB424048C5D";
paths = (
{
closed = 1;
nodes = (
"425 0 LINE SMOOTH",
"544 0 OFFCURVE",
"622 72 OFFCURVE",
"622 181 CURVE SMOOTH",
"622 229 LINE SMOOTH",
"622 292 OFFCURVE",
"582 348 OFFCURVE",
"510 367 CURVE",
"510 368 LINE",
"550 395 OFFCURVE",
"574 443 OFFCURVE",
"574 492 CURVE SMOOTH",
"574 545 LINE SMOOTH",
"574 638 OFFCURVE",
"495 700 OFFCURVE",
"376 700 CURVE SMOOTH",
"75 700 LINE",
"75 65 LINE SMOOTH",
"75 26 OFFCURVE",
"101 0 OFFCURVE",
"140 0 CURVE SMOOTH"
);
},
{
closed = 1;
nodes = (
"149 66 LINE",
"149 322 LINE",
"435 322 LINE SMOOTH",
"503 322 OFFCURVE",
"548 284 OFFCURVE",
"548 229 CURVE SMOOTH",
"548 181 LINE SMOOTH",
"548 112 OFFCURVE",
"495 66 OFFCURVE",
"415 66 CURVE SMOOTH"
);
},
{
closed = 1;
nodes = (
"376 634 LINE SMOOTH",
"450 634 OFFCURVE",
"500 598 OFFCURVE",
"500 545 CURVE SMOOTH",
"500 492 LINE SMOOTH",
"500 427 OFFCURVE",
"458 384 OFFCURVE",
"396 384 CURVE SMOOTH",
"149 384 LINE",
"149 634 LINE"
);
}
);
width = 672;
}
);
note = B;
unicode = 0042;
},
{
glyphname = C;
lastChange = "2018-03-27 09:33:04 +0000";
layers = (
{
anchors = (
{
name = bottom;
position = "{349, 0}";
},
{
name = top;
position = "{349, 700}";
}
);
background = {
paths = (
{
closed = 1;
nodes = (
"380 -5 LINE SMOOTH",
"557 -5 OFFCURVE",
"677 118 OFFCURVE",
"668 295 CURVE",
"531 295 LINE",
"540 188 OFFCURVE",
"477 117 OFFCURVE",
"380 117 CURVE SMOOTH",
"284 117 LINE SMOOTH",
"213 117 OFFCURVE",
"168 169 OFFCURVE",
"168 252 CURVE SMOOTH",
"168 394 LINE SMOOTH",
"168 510 OFFCURVE",
"232 584 OFFCURVE",
"329 584 CURVE SMOOTH",
"425 584 LINE SMOOTH",
"491 584 OFFCURVE",
"536 521 OFFCURVE",
"530 426 CURVE",
"666 426 LINE",
"674 590 OFFCURVE",
"572 706 OFFCURVE",
"425 706 CURVE SMOOTH",
"329 706 LINE SMOOTH",
"152 706 OFFCURVE",
"30 580 OFFCURVE",
"30 394 CURVE SMOOTH",
"30 252 LINE SMOOTH",
"30 100 OFFCURVE",
"133 -5 OFFCURVE",
"284 -5 CURVE SMOOTH"
);
}
);
};
layerId = "EA06CE92-4115-4482-8874-2441C279E756";
paths = (
{
closed = 1;
nodes = (
"380 -6 LINE SMOOTH",
"553 -6 OFFCURVE",
"668 110 OFFCURVE",
"668 284 CURVE",
"531 284 LINE",
"531 183 OFFCURVE",
"471 116 OFFCURVE",
"380 116 CURVE SMOOTH",
"284 116 LINE SMOOTH",
"214 116 OFFCURVE",
"168 170 OFFCURVE",
"168 251 CURVE SMOOTH",
"168 394 LINE SMOOTH",
"168 508 OFFCURVE",
"232 584 OFFCURVE",
"329 584 CURVE SMOOTH",
"425 584 LINE SMOOTH",
"488 584 OFFCURVE",
"530 525 OFFCURVE",
"530 436 CURVE",
"666 436 LINE",
"666 598 OFFCURVE",
"570 706 OFFCURVE",
"425 706 CURVE SMOOTH",
"329 706 LINE SMOOTH",
"150 706 OFFCURVE",
"30 581 OFFCURVE",
"30 394 CURVE SMOOTH",
"30 251 LINE SMOOTH",
"30 97 OFFCURVE",
"132 -6 OFFCURVE",
"284 -6 CURVE SMOOTH"
);
}
);
width = 698;
},
{
associatedMasterId = "020CB1CC-CCFF-4D13-936A-D2256F19E5D3";
layerId = "8AF6BA7E-4672-4BE4-A9AE-4DB948958C2C";
width = 600;
},
{
associatedMasterId = "020CB1CC-CCFF-4D13-936A-D2256F19E5D3";
layerId = "FF25770E-88C8-4453-8E9A-49D96EF16668";
width = 600;
},
{
anchors = (
{
name = bottom;
position = "{336, 0}";
},
{
name = top;
position = "{362, 700}";
}
);
background = {
paths = (
{
closed = 1;
nodes = (
"379 -6 LINE SMOOTH",
"514 -6 OFFCURVE",
"609 80 OFFCURVE",
"616 210 CURVE",
"580 210 LINE",
"573 101 OFFCURVE",
"493 28 OFFCURVE",
"379 28 CURVE SMOOTH",
"283 28 LINE SMOOTH",
"183 28 OFFCURVE",
"116 99 OFFCURVE",
"116 206 CURVE SMOOTH",
"116 439 LINE SMOOTH",
"116 579 OFFCURVE",
"201 672 OFFCURVE",
"328 672 CURVE SMOOTH",
"424 672 LINE SMOOTH",
"510 672 OFFCURVE",
"572 607 OFFCURVE",
"578 510 CURVE",
"614 510 LINE",
"607 628 OFFCURVE",
"531 706 OFFCURVE",
"424 706 CURVE SMOOTH",
"328 706 LINE SMOOTH",
"179 706 OFFCURVE",
"80 599 OFFCURVE",
"80 439 CURVE SMOOTH",
"80 206 LINE SMOOTH",
"80 79 OFFCURVE",
"161 -6 OFFCURVE",
"283 -6 CURVE SMOOTH"
);
}
);
};
layerId = "020CB1CC-CCFF-4D13-936A-D2256F19E5D3";
paths = (
{
closed = 1;
nodes = (
"379 -6 LINE SMOOTH",
"514 -6 OFFCURVE",
"609 80 OFFCURVE",
"616 210 CURVE",
"580 210 LINE",
"573 101 OFFCURVE",
"493 28 OFFCURVE",
"379 28 CURVE SMOOTH",
"283 28 LINE SMOOTH",
"183 28 OFFCURVE",
"116 99 OFFCURVE",
"116 206 CURVE SMOOTH",
"116 439 LINE SMOOTH",
"116 579 OFFCURVE",
"201 672 OFFCURVE",
"328 672 CURVE SMOOTH",
"424 672 LINE SMOOTH",
"510 672 OFFCURVE",
"572 607 OFFCURVE",
"578 510 CURVE",
"614 510 LINE",
"607 628 OFFCURVE",
"531 706 OFFCURVE",
"424 706 CURVE SMOOTH",
"328 706 LINE SMOOTH",
"179 706 OFFCURVE",
"80 599 OFFCURVE",
"80 439 CURVE SMOOTH",
"80 206 LINE SMOOTH",
"80 79 OFFCURVE",
"161 -6 OFFCURVE",
"283 -6 CURVE SMOOTH"
);
}
);
width = 696;
},
{
associatedMasterId = "020CB1CC-CCFF-4D13-936A-D2256F19E5D3";
layerId = "2BFD089B-F167-4B5F-A09E-913F8154E828";
width = 600;
},
{
anchors = (
{
name = bottom;
position = "{347, 0}";
},
{
name = top;
position = "{347, 700}";
}
);
background = {
paths = (
{
closed = 1;
nodes = (
"399 -6 LINE SMOOTH",
"538 -6 OFFCURVE",
"630 92 OFFCURVE",
"630 238 CURVE",
"558 238 LINE",
"558 131 OFFCURVE",
"494 60 OFFCURVE",
"399 60 CURVE SMOOTH",
"293 60 LINE SMOOTH",
"192 60 OFFCURVE",
"134 130 OFFCURVE",
"134 248 CURVE SMOOTH",
"134 442 LINE SMOOTH",
"134 561 OFFCURVE",
"190 640 OFFCURVE",
"293 640 CURVE SMOOTH",
"399 640 LINE SMOOTH",
"487 640 OFFCURVE",
"556 577 OFFCURVE",
"556 482 CURVE",
"628 482 LINE",
"628 616 OFFCURVE",
"530 706 OFFCURVE",
"399 706 CURVE SMOOTH",
"293 706 LINE SMOOTH",
"146 706 OFFCURVE",
"60 600 OFFCURVE",
"60 442 CURVE SMOOTH",
"60 248 LINE SMOOTH",
"60 88 OFFCURVE",
"145 -6 OFFCURVE",
"293 -6 CURVE SMOOTH"
);
}
);
};
layerId = "76C6DC51-463D-4A0C-B694-3EB424048C5D";
paths = (
{
closed = 1;
nodes = (
"401 -6 LINE SMOOTH",
"540 -6 OFFCURVE",
"632 92 OFFCURVE",
"632 238 CURVE",
"560 238 LINE",
"560 131 OFFCURVE",
"496 60 OFFCURVE",
"401 60 CURVE SMOOTH",
"295 60 LINE SMOOTH",
"198 60 OFFCURVE",
"134 135 OFFCURVE",
"134 248 CURVE SMOOTH",
"134 452 LINE SMOOTH",
"134 565 OFFCURVE",
"200 640 OFFCURVE",
"299 640 CURVE SMOOTH",
"405 640 LINE SMOOTH",
"497 640 OFFCURVE",
"558 577 OFFCURVE",
"558 482 CURVE",
"630 482 LINE",
"630 616 OFFCURVE",
"540 706 OFFCURVE",
"405 706 CURVE SMOOTH",
"299 706 LINE SMOOTH",
"156 706 OFFCURVE",
"60 604 OFFCURVE",
"60 452 CURVE SMOOTH",
"60 248 LINE SMOOTH",
"60 96 OFFCURVE",
"154 -6 OFFCURVE",
"295 -6 CURVE SMOOTH"
);
}
);
width = 687;
}
);
note = C;
unicode = 0043;
},
{
glyphname = D;
lastChange = "2018-03-27 09:31:08 +0000";
layers = (
{
anchors = (
{
name = bottom;
position = "{344, 0}";
},
{
name = center;
position = "{344, 350}";
},
{
name = top;
position = "{344, 700}";
}
);
background = {
paths = (
{
closed = 1;
nodes = (
"378 0 LINE SMOOTH",
"533 0 OFFCURVE",
"625 100 OFFCURVE",
"625 270 CURVE SMOOTH",
"625 470 LINE SMOOTH",
"625 608 OFFCURVE",
"525 700 OFFCURVE",
"376 700 CURVE SMOOTH",
"77 700 LINE",
"77 65 LINE SMOOTH",
"77 24 OFFCURVE",
"101 0 OFFCURVE",
"142 0 CURVE SMOOTH"
);
},
{
closed = 1;
nodes = (
"151 634 LINE",
"376 634 LINE SMOOTH",
"481 634 OFFCURVE",
"551 568 OFFCURVE",
"551 470 CURVE SMOOTH",
"551 270 LINE SMOOTH",
"551 142 OFFCURVE",
"486 66 OFFCURVE",
"378 66 CURVE SMOOTH",
"151 66 LINE"
);
}
);
};
layerId = "EA06CE92-4115-4482-8874-2441C279E756";
paths = (
{
closed = 1;
nodes = (
"378 0 LINE SMOOTH",
"553 0 OFFCURVE",
"657 111 OFFCURVE",
"657 298 CURVE SMOOTH",
"657 442 LINE SMOOTH",
"657 597 OFFCURVE",
"544 700 OFFCURVE",
"376 700 CURVE SMOOTH",
"45 700 LINE",
"45 93 LINE SMOOTH",
"45 37 OFFCURVE",
"83 0 OFFCURVE",
"142 0 CURVE SMOOTH"
);
},
{
closed = 1;
nodes = (
"183 578 LINE",
"376 578 LINE SMOOTH",
"462 578 OFFCURVE",
"519 524 OFFCURVE",
"519 442 CURVE SMOOTH",
"519 298 LINE SMOOTH",
"519 187 OFFCURVE",
"466 122 OFFCURVE",
"378 122 CURVE SMOOTH",
"183 122 LINE"
);
}
);
width = 687;
},
{
associatedMasterId = "020CB1CC-CCFF-4D13-936A-D2256F19E5D3";
layerId = "8AF6BA7E-4672-4BE4-A9AE-4DB948958C2C";
width = 600;
},
{
associatedMasterId = "020CB1CC-CCFF-4D13-936A-D2256F19E5D3";
layerId = "1A766C9D-23CA-44DD-A6BD-1F62F6C5910C";
width = 600;
},
{
anchors = (
{
name = bottom;
position = "{343, 0}";
},
{
name = center;
position = "{343, 350}";
},
{
name = top;
position = "{343, 700}";
}
);
layerId = "020CB1CC-CCFF-4D13-936A-D2256F19E5D3";
paths = (
{
closed = 1;
nodes = (
"377 0 LINE SMOOTH",
"521 0 OFFCURVE",
"606 94 OFFCURVE",
"606 253 CURVE SMOOTH",
"606 487 LINE SMOOTH",
"606 615 OFFCURVE",
"514 700 OFFCURVE",
"375 700 CURVE SMOOTH",
"95 700 LINE",
"95 46 LINE SMOOTH",
"95 17 OFFCURVE",
"112 0 OFFCURVE",
"141 0 CURVE SMOOTH"
);
},
{
closed = 1;
nodes = (
"131 666 LINE",
"375 666 LINE SMOOTH",
"493 666 OFFCURVE",
"570 594 OFFCURVE",
"570 487 CURVE SMOOTH",
"570 253 LINE SMOOTH",
"570 115 OFFCURVE",
"498 34 OFFCURVE",
"377 34 CURVE SMOOTH",
"131 34 LINE"
);
}
);
width = 686;
},
{
associatedMasterId = "020CB1CC-CCFF-4D13-936A-D2256F19E5D3";
layerId = "2FD66303-6CB8-400F-ACE2-7C8A588C61C9";
width = 600;
},
{
anchors = (
{
name = bottom;
position = "{342, 0}";
},
{
name = center;
position = "{342, 350}";
},
{
name = top;
position = "{342, 700}";
}
);
background = {
paths = (
{
closed = 1;
nodes = (
"374 0 LINE SMOOTH",
"531 0 OFFCURVE",
"623 80 OFFCURVE",
"623 250 CURVE SMOOTH",
"623 470 LINE SMOOTH",
"623 608 OFFCURVE",
"523 700 OFFCURVE",
"374 700 CURVE SMOOTH",
"75 700 LINE",
"75 65 LINE SMOOTH",
"75 24 OFFCURVE",
"99 0 OFFCURVE",
"140 0 CURVE SMOOTH"
);
},
{
closed = 1;
nodes = (
"149 634 LINE",
"374 634 LINE SMOOTH",
"479 634 OFFCURVE",
"549 568 OFFCURVE",
"549 470 CURVE SMOOTH",
"549 250 LINE SMOOTH",
"549 122 OFFCURVE",
"484 66 OFFCURVE",
"374 66 CURVE SMOOTH",
"149 66 LINE"
);
}
);
};
layerId = "76C6DC51-463D-4A0C-B694-3EB424048C5D";
paths = (
{
closed = 1;
nodes = (
"374 0 LINE SMOOTH",
"538 0 OFFCURVE",
"623 86 OFFCURVE",
"623 250 CURVE SMOOTH",
"623 470 LINE SMOOTH",
"623 608 OFFCURVE",
"523 700 OFFCURVE",
"374 700 CURVE SMOOTH",
"75 700 LINE",
"75 65 LINE SMOOTH",
"75 24 OFFCURVE",
"99 0 OFFCURVE",
"140 0 CURVE SMOOTH"
);
},
{
closed = 1;
nodes = (
"149 634 LINE",
"372 634 LINE SMOOTH",
"477 634 OFFCURVE",
"549 568 OFFCURVE",
"549 470 CURVE SMOOTH",
"549 250 LINE SMOOTH",
"549 129 OFFCURVE",
"488 66 OFFCURVE",
"372 66 CURVE SMOOTH",
"149 66 LINE"
);
}
);
width = 683;
}
);
note = D;
unicode = 0044;
},
{
glyphname = E;
lastChange = "2018-03-27 09:01:10 +0000";
layers = (
{
anchors = (
{
name = bottom;
position = "{302, 0}";
},
{
name = ogonek;
position = "{541, 10}";
},
{
name = top;
position = "{325, 700}";
},
{
name = topleft;
position = "{22, 700}";
}
);
background = {
paths = (
{
closed = 1;
nodes = (
"588 0 LINE",
"588 120 LINE",
"183 120 LINE",
"183 298 LINE",
"548 298 LINE",
"548 418 LINE",
"183 418 LINE",
"183 580 LINE",
"588 580 LINE",
"588 700 LINE",
"45 700 LINE",
"45 94 LINE SMOOTH",
"45 37 OFFCURVE",
"84 0 OFFCURVE",
"142 0 CURVE SMOOTH"
);
}
);
};
layerId = "EA06CE92-4115-4482-8874-2441C279E756";
paths = (
{
closed = 1;
nodes = (
"588 0 LINE",
"588 120 LINE",
"183 120 LINE",
"183 298 LINE",
"548 298 LINE",
"548 418 LINE",
"183 418 LINE",
"183 580 LINE",
"588 580 LINE",
"588 700 LINE",
"45 700 LINE",
"45 94 LINE SMOOTH",
"45 37 OFFCURVE",
"84 0 OFFCURVE",
"142 0 CURVE SMOOTH"
);
}
);
width = 603;
},
{
associatedMasterId = "020CB1CC-CCFF-4D13-936A-D2256F19E5D3";
layerId = "8AF6BA7E-4672-4BE4-A9AE-4DB948958C2C";
width = 600;
},
{
associatedMasterId = "020CB1CC-CCFF-4D13-936A-D2256F19E5D3";
layerId = "33B65A04-72D5-4DAA-B3DA-CE971CA5048F";
width = 600;
},
{
anchors = (
{
name = bottom;
position = "{324, 0}";
},
{
name = ogonek;
position = "{537, 0}";
},
{
name = top;
position = "{320, 700}";
},
{
name = topleft;
position = "{21, 700}";
}
);
background = {
paths = (
{
closed = 1;
nodes = (
"537 0 LINE",
"537 34 LINE",
"131 34 LINE",
"131 341 LINE",
"497 341 LINE",
"497 375 LINE",
"131 375 LINE",
"131 666 LINE",
"537 666 LINE",
"537 700 LINE",
"95 700 LINE",
"95 46 LINE SMOOTH",
"95 17 OFFCURVE",
"112 0 OFFCURVE",
"141 0 CURVE SMOOTH"
);
}
);
};
layerId = "020CB1CC-CCFF-4D13-936A-D2256F19E5D3";
paths = (
{
closed = 1;
nodes = (
"537 0 LINE",
"537 34 LINE",
"131 34 LINE",
"131 341 LINE",
"497 341 LINE",
"497 375 LINE",
"131 375 LINE",
"131 666 LINE",
"537 666 LINE",
"537 700 LINE",
"95 700 LINE",
"95 46 LINE SMOOTH",
"95 17 OFFCURVE",
"112 0 OFFCURVE",
"141 0 CURVE SMOOTH"
);
}
);
width = 602;
},
{
associatedMasterId = "020CB1CC-CCFF-4D13-936A-D2256F19E5D3";
layerId = "20E14A9A-F935-42FF-87F0-4E954DF04846";
width = 600;
},
{
anchors = (
{
name = bottom;
position = "{300, 0}";
},
{
name = ogonek;
position = "{540, 10}";
},
{
name = top;
position = "{323, 700}";
},
{
name = topleft;
position = "{20, 700}";
}
);
layerId = "76C6DC51-463D-4A0C-B694-3EB424048C5D";
paths = (
{
closed = 1;
nodes = (
"553 0 LINE",
"553 64 LINE",
"149 64 LINE",
"149 326 LINE",
"513 326 LINE",
"513 390 LINE",
"149 390 LINE",
"149 636 LINE",
"553 636 LINE",
"553 700 LINE",
"75 700 LINE",
"75 66 LINE SMOOTH",
"75 25 OFFCURVE",
"99 0 OFFCURVE",
"140 0 CURVE SMOOTH"
);
}
);
width = 598;
}
);
note = E;
unicode = 0045;
},
{
glyphname = F;
lastChange = "2018-03-27 08:24:04 +0000";
layers = (
{
anchors = (
{
name = bottom;
position = "{290, 0}";
},
{
name = top;
position = "{290, 700}";
}
);
background = {
paths = (
{
closed = 1;
nodes = (
"536 284 LINE",
"536 406 LINE",
"183 406 LINE",
"183 606 LINE",
"573 606 LINE",
"573 728 LINE",
"45 728 LINE",
"45 -28 LINE",
"183 -28 LINE",
"183 284 LINE"
);
}
);
};
layerId = "EA06CE92-4115-4482-8874-2441C279E756";
paths = (
{
closed = 1;
nodes = (
"536 256 LINE",
"536 378 LINE",
"183 378 LINE",
"183 578 LINE",
"573 578 LINE",
"573 700 LINE",
"45 700 LINE",
"45 0 LINE",
"183 0 LINE",
"183 256 LINE"
);
}
);
width = 578;
},
{
associatedMasterId = "020CB1CC-CCFF-4D13-936A-D2256F19E5D3";
layerId = "8AF6BA7E-4672-4BE4-A9AE-4DB948958C2C";
width = 600;
},
{
associatedMasterId = "020CB1CC-CCFF-4D13-936A-D2256F19E5D3";
layerId = "524EB777-08F8-4799-B31D-DF55BB0E0334";
width = 600;
},
{
anchors = (
{
name = bottom;
position = "{289, 0}";
},
{
name = top;
position = "{289, 700}";
}
);
layerId = "020CB1CC-CCFF-4D13-936A-D2256F19E5D3";
paths = (
{
closed = 1;
nodes = (
"485 346 LINE",
"485 378 LINE",
"131 378 LINE",
"131 668 LINE",
"522 668 LINE",
"522 700 LINE",
"95 700 LINE",
"95 0 LINE",
"131 0 LINE",
"131 346 LINE"
);
}
);
width = 577;
},
{
associatedMasterId = "020CB1CC-CCFF-4D13-936A-D2256F19E5D3";
layerId = "42ED4A9A-129A-4AA6-8B71-2FBD32596DD6";
width = 600;
},
{
anchors = (
{
name = bottom;
position = "{288, 0}";
},
{
name = top;
position = "{288, 700}";
}
);
layerId = "76C6DC51-463D-4A0C-B694-3EB424048C5D";
paths = (
{
closed = 1;
nodes = (
"502 312 LINE",
"502 378 LINE",
"149 378 LINE",
"149 634 LINE",
"539 634 LINE",
"539 700 LINE",
"75 700 LINE",
"75 0 LINE",
"149 0 LINE",
"149 312 LINE"
);
}
);
width = 575;
}
);
note = F;
unicode = 0046;
},
{
glyphname = G;
lastChange = "2018-03-27 09:33:09 +0000";
layers = (
{
anchors = (
{
name = bottom;
position = "{347, 0}";
},
{
name = top;
position = "{347, 700}";
}
);
background = {
paths = (
{
closed = 1;
nodes = (
"380 -5 LINE SMOOTH",
"549 -5 OFFCURVE",
"668 110 OFFCURVE",
"668 258 CURVE SMOOTH",
"668 324 LINE",
"532 324 LINE",
"532 259 LINE",
"528 170 OFFCURVE",
"472 117 OFFCURVE",
"380 117 CURVE SMOOTH",
"284 117 LINE SMOOTH",
"213 117 OFFCURVE",
"168 169 OFFCURVE",
"168 252 CURVE SMOOTH",
"168 394 LINE SMOOTH",
"168 508 OFFCURVE",
"232 584 OFFCURVE",
"329 584 CURVE SMOOTH",
"425 584 LINE SMOOTH",
"488 584 OFFCURVE",
"530 525 OFFCURVE",
"530 436 CURVE",
"666 436 LINE",
"666 598 OFFCURVE",
"570 706 OFFCURVE",
"425 706 CURVE SMOOTH",
"329 706 LINE SMOOTH",
"150 706 OFFCURVE",
"30 581 OFFCURVE",
"30 394 CURVE SMOOTH",
"30 252 LINE SMOOTH",
"30 100 OFFCURVE",
"133 -5 OFFCURVE",
"284 -5 CURVE SMOOTH"
);
},
{
closed = 1;
nodes = (
"668 258 LINE",
"668 380 LINE",
"348 380 LINE",
"348 258 LINE"
);
}
);
};
layerId = "EA06CE92-4115-4482-8874-2441C279E756";
paths = (
{
closed = 1;
nodes = (
"380 -6 LINE SMOOTH",
"549 -6 OFFCURVE",
"668 109 OFFCURVE",
"668 257 CURVE SMOOTH",
"668 324 LINE",
"532 324 LINE",
"532 258 LINE",
"528 169 OFFCURVE",
"472 116 OFFCURVE",
"380 116 CURVE SMOOTH",
"284 116 LINE SMOOTH",
"213 116 OFFCURVE",
"168 168 OFFCURVE",
"168 251 CURVE SMOOTH",
"168 394 LINE SMOOTH",
"168 508 OFFCURVE",
"232 584 OFFCURVE",
"329 584 CURVE SMOOTH",
"425 584 LINE SMOOTH",
"488 584 OFFCURVE",
"530 529 OFFCURVE",
"530 446 CURVE",
"666 446 LINE",
"666 602 OFFCURVE",
"570 706 OFFCURVE",
"425 706 CURVE SMOOTH",
"329 706 LINE SMOOTH",
"150 706 OFFCURVE",
"30 581 OFFCURVE",
"30 394 CURVE SMOOTH",
"30 251 LINE SMOOTH",
"30 99 OFFCURVE",
"133 -6 OFFCURVE",
"284 -6 CURVE SMOOTH"
);
},
{
closed = 1;
nodes = (
"668 260 LINE",
"668 380 LINE",
"348 380 LINE",
"348 260 LINE"
);
}
);
width = 698;
},
{
associatedMasterId = "020CB1CC-CCFF-4D13-936A-D2256F19E5D3";
layerId = "8AF6BA7E-4672-4BE4-A9AE-4DB948958C2C";
width = 600;
},
{
associatedMasterId = "020CB1CC-CCFF-4D13-936A-D2256F19E5D3";
layerId = "F5CC5B07-1CC8-4712-90D3-B380C36E053B";
width = 600;
},
{
anchors = (
{
name = bottom;
position = "{346, 0}";
},
{
name = top;
position = "{362, 700}";
}
);
background = {
paths = (
{
closed = 1;
nodes = (
"359 -6 LINE SMOOTH",
"497 -6 OFFCURVE",
"589 82 OFFCURVE",
"596 227 CURVE",
"596 322 LINE",
"560 322 LINE",
"560 226 LINE",
"556 108 OFFCURVE",
"473 28 OFFCURVE",
"359 28 CURVE SMOOTH",
"263 28 LINE SMOOTH",
"163 28 OFFCURVE",
"96 99 OFFCURVE",
"96 206 CURVE SMOOTH",
"96 439 LINE SMOOTH",
"96 580 OFFCURVE",
"180 672 OFFCURVE",
"308 672 CURVE SMOOTH",
"404 672 LINE SMOOTH",
"491 672 OFFCURVE",
"552 606 OFFCURVE",
"558 504 CURVE",
"594 504 LINE",
"587 624 OFFCURVE",
"510 706 OFFCURVE",
"404 706 CURVE SMOOTH",
"308 706 LINE SMOOTH",
"159 706 OFFCURVE",
"60 599 OFFCURVE",
"60 439 CURVE SMOOTH",
"60 206 LINE SMOOTH",
"60 78 OFFCURVE",
"141 -6 OFFCURVE",
"263 -6 CURVE SMOOTH"
);
},
{
closed = 1;
nodes = (
"596 311 LINE",
"596 342 LINE",
"365 342 LINE",
"365 311 LINE"
);
}
);
};
layerId = "020CB1CC-CCFF-4D13-936A-D2256F19E5D3";
paths = (
{
closed = 1;
nodes = (
"379 -6 LINE SMOOTH",
"514 -6 OFFCURVE",
"609 87 OFFCURVE",
"616 227 CURVE",
"616 322 LINE",
"580 322 LINE",
"580 226 LINE",
"576 107 OFFCURVE",
"496 28 OFFCURVE",
"379 28 CURVE SMOOTH",
"283 28 LINE SMOOTH",
"183 28 OFFCURVE",
"116 99 OFFCURVE",
"116 206 CURVE SMOOTH",
"116 439 LINE SMOOTH",
"116 579 OFFCURVE",
"201 672 OFFCURVE",
"328 672 CURVE SMOOTH",
"424 672 LINE SMOOTH",
"510 672 OFFCURVE",
"572 605 OFFCURVE",
"578 504 CURVE",
"614 504 LINE",
"607 625 OFFCURVE",
"531 706 OFFCURVE",
"424 706 CURVE SMOOTH",
"328 706 LINE SMOOTH",
"179 706 OFFCURVE",
"80 599 OFFCURVE",
"80 439 CURVE SMOOTH",
"80 206 LINE SMOOTH",
"80 79 OFFCURVE",
"161 -6 OFFCURVE",
"283 -6 CURVE SMOOTH"
);
},
{
closed = 1;
nodes = (
"616 311 LINE",
"616 342 LINE",
"385 342 LINE",
"385 311 LINE"
);
}
);
width = 696;
},
{
associatedMasterId = "020CB1CC-CCFF-4D13-936A-D2256F19E5D3";
layerId = "F9A025F0-5BD6-4F5F-A216-3E4D9B1AC856";
width = 600;
},
{
anchors = (
{
name = bottom;
position = "{352, 0}";
},
{
name = top;
position = "{352, 700}";
}
);
background = {
paths = (
{
closed = 1;
nodes = (
"642 296 LINE",
"642 360 LINE",
"378 360 LINE",
"378 296 LINE"
);
},
{
closed = 1;
nodes = (
"298 56 LINE SMOOTH",
"199 56 OFFCURVE",
"134 131 OFFCURVE",
"134 244 CURVE SMOOTH",
"134 452 LINE SMOOTH",
"134 565 OFFCURVE",
"201 640 OFFCURVE",
"302 640 CURVE SMOOTH",
"408 640 LINE SMOOTH",
"502 640 OFFCURVE",
"565 577 OFFCURVE",
"565 482 CURVE",
"637 482 LINE",
"637 616 OFFCURVE",
"545 706 OFFCURVE",
"408 706 CURVE SMOOTH",
"302 706 LINE SMOOTH",
"156 706 OFFCURVE",
"60 604 OFFCURVE",
"60 452 CURVE SMOOTH",
"60 244 LINE SMOOTH",
"60 92 OFFCURVE",
"155 -10 OFFCURVE",
"298 -10 CURVE SMOOTH",
"404 -10 LINE SMOOTH",
"547 -10 OFFCURVE",
"642 88 OFFCURVE",
"642 234 CURVE SMOOTH",
"642 304 LINE",
"570 304 LINE",
"570 234 LINE SMOOTH",
"570 127 OFFCURVE",
"504 56 OFFCURVE",
"404 56 CURVE SMOOTH"
);
}
);
};
layerId = "76C6DC51-463D-4A0C-B694-3EB424048C5D";
paths = (
{
closed = 1;
nodes = (
"642 296 LINE",
"642 360 LINE",
"378 360 LINE",
"378 296 LINE"
);
},
{
closed = 1;
nodes = (
"298 60 LINE SMOOTH",
"199 60 OFFCURVE",
"134 135 OFFCURVE",
"134 248 CURVE SMOOTH",
"134 452 LINE SMOOTH",
"134 565 OFFCURVE",
"201 640 OFFCURVE",
"302 640 CURVE SMOOTH",
"408 640 LINE SMOOTH",
"502 640 OFFCURVE",
"565 577 OFFCURVE",
"565 482 CURVE",
"637 482 LINE",
"637 616 OFFCURVE",
"545 706 OFFCURVE",
"408 706 CURVE SMOOTH",
"302 706 LINE SMOOTH",
"156 706 OFFCURVE",
"60 604 OFFCURVE",
"60 452 CURVE SMOOTH",
"60 248 LINE SMOOTH",
"60 96 OFFCURVE",
"155 -6 OFFCURVE",
"298 -6 CURVE SMOOTH",
"404 -6 LINE SMOOTH",
"547 -6 OFFCURVE",
"642 92 OFFCURVE",
"642 238 CURVE SMOOTH",
"642 304 LINE",
"570 304 LINE",
"570 238 LINE SMOOTH",
"570 131 OFFCURVE",
"504 60 OFFCURVE",
"404 60 CURVE SMOOTH"
);
}
);
width = 702;
}
);
note = G;
unicode = 0047;
},
{
glyphname = H;
lastChange = "2018-03-27 08:28:41 +0000";
layers = (
{
anchors = (
{
name = bottom;
position = "{342, 0}";
},
{
name = center;
position = "{342, 350}";
},
{
name = top;
position = "{342, 700}";
},
{
name = topleft;
position = "{22, 700}";
}
);
background = {
paths = (
{
closed = 1;
nodes = (
"532 0 LINE",
"606 0 LINE",
"606 700 LINE",
"532 700 LINE",
"532 394 LINE",
"151 394 LINE",
"151 700 LINE",
"77 700 LINE",
"77 0 LINE",
"151 0 LINE",
"151 328 LINE",
"532 328 LINE"
);
}
);
};
layerId = "EA06CE92-4115-4482-8874-2441C279E756";
paths = (
{
closed = 1;
nodes = (
"183 0 LINE",
"183 300 LINE",
"510 300 LINE",
"510 0 LINE",
"648 0 LINE",
"648 700 LINE",
"510 700 LINE",
"510 422 LINE",
"183 422 LINE",
"183 700 LINE",
"45 700 LINE",
"45 0 LINE"
);
}
);
width = 693;
},
{
associatedMasterId = "020CB1CC-CCFF-4D13-936A-D2256F19E5D3";
layerId = "8AF6BA7E-4672-4BE4-A9AE-4DB948958C2C";
width = 600;
},
{
associatedMasterId = "020CB1CC-CCFF-4D13-936A-D2256F19E5D3";
layerId = "3EB4F6D6-C854-4173-98ED-3697B7A91CA1";
width = 600;
},
{
anchors = (
{
name = bottom;
position = "{347, 0}";
},
{
name = center;
position = "{347, 560}";
},
{
name = top;
position = "{347, 700}";
},
{
name = topleft;
position = "{21, 700}";
}
);
layerId = "020CB1CC-CCFF-4D13-936A-D2256F19E5D3";
paths = (
{
closed = 1;
nodes = (
"131 0 LINE",
"131 344 LINE",
"562 344 LINE",
"562 0 LINE",
"597 0 LINE",
"597 700 LINE",
"562 700 LINE",
"562 378 LINE",
"131 378 LINE",
"131 700 LINE",
"95 700 LINE",
"95 0 LINE"
);
}
);
width = 692;
},
{
associatedMasterId = "020CB1CC-CCFF-4D13-936A-D2256F19E5D3";
layerId = "CAD504B1-4F28-4E14-B8C8-0206C17BE22D";
width = 600;
},
{
anchors = (
{
name = bottom;
position = "{340, 0}";
},
{
name = center;
position = "{340, 350}";
},
{
name = top;
position = "{340, 700}";
},
{
name = topleft;
position = "{222, 631}";
}
);
layerId = "76C6DC51-463D-4A0C-B694-3EB424048C5D";
paths = (
{
closed = 1;
nodes = (
"149 0 LINE",
"149 322 LINE",
"539 322 LINE",
"539 0 LINE",
"613 0 LINE",
"613 700 LINE",
"539 700 LINE",
"539 388 LINE",
"149 388 LINE",
"149 700 LINE",
"75 700 LINE",
"75 0 LINE"
);
}
);
width = 688;
}
);
note = H;
unicode = 0048;
},
{
glyphname = I;
lastChange = "2018-03-13 06:22:46 +0000";
layers = (
{
anchors = (
{
name = bottom;
position = "{122, 0}";
},
{
name = ogonek;
position = "{213, 10}";
},
{
name = top;
position = "{122, 700}";
},
{
name = topleft;
position = "{27, 700}";
}
);
layerId = "EA06CE92-4115-4482-8874-2441C279E756";
paths = (
{
closed = 1;
nodes = (
"50 0 LINE",
"188 0 LINE",
"188 700 LINE",
"50 700 LINE"
);
}
);
width = 238;
},
{
associatedMasterId = "020CB1CC-CCFF-4D13-936A-D2256F19E5D3";
layerId = "8AF6BA7E-4672-4BE4-A9AE-4DB948958C2C";
width = 600;
},
{
associatedMasterId = "020CB1CC-CCFF-4D13-936A-D2256F19E5D3";
layerId = "CF1BC613-2BF7-46EA-B886-9C3B712DABE3";
width = 600;
},
{
anchors = (
{
name = bottom;
position = "{118, 0}";
},
{
name = ogonek;
position = "{136, 0}";
},
{
name = top;
position = "{118, 700}";
},
{
name = topleft;
position = "{26, 700}";
}
);
layerId = "020CB1CC-CCFF-4D13-936A-D2256F19E5D3";
paths = (
{
closed = 1;
nodes = (
"100 0 LINE",
"136 0 LINE",
"136 700 LINE",
"100 700 LINE"
);
}
);
width = 236;
},
{
associatedMasterId = "020CB1CC-CCFF-4D13-936A-D2256F19E5D3";
layerId = "2DFC0E06-B8EA-4311-A9DF-3FFE7CB12D78";
width = 600;
},
{
anchors = (
{
name = bottom;
position = "{120, 0}";
},
{
name = ogonek;
position = "{211, 10}";
},
{
name = top;
position = "{120, 700}";
},
{
name = topleft;
position = "{25, 700}";
}
);
layerId = "76C6DC51-463D-4A0C-B694-3EB424048C5D";
paths = (
{
closed = 1;
nodes = (
"80 0 LINE",
"154 0 LINE",
"154 700 LINE",
"80 700 LINE"
);
}
);
width = 234;
}
);
note = I;
unicode = 0049;
},
{
glyphname = J;
lastChange = "2018-03-27 09:34:01 +0000";
layers = (
{
anchors = (
{
name = bottom;
position = "{307, 0}";
},
{
name = top;
position = "{307, 700}";
}
);
background = {
paths = (
{
closed = 1;
nodes = (
"8 109 OFFCURVE",
"106 0 OFFCURVE",
"259 0 CURVE SMOOTH",
"310 0 LINE SMOOTH",
"479 0 OFFCURVE",
"582 107 OFFCURVE",
"582 283 CURVE SMOOTH",
"582 700 LINE",
"444 700 LINE",
"444 283 LINE SMOOTH",
"444 179 OFFCURVE",
"396 122 OFFCURVE",
"310 122 CURVE SMOOTH",
"259 122 LINE SMOOTH",
"189 122 OFFCURVE",
"145 180 OFFCURVE",
"142 285 CURVE",
"5 285 LINE"
);
}
);
};
layerId = "EA06CE92-4115-4482-8874-2441C279E756";
paths = (
{
closed = 1;
nodes = (
"8 104 OFFCURVE",
"110 -6 OFFCURVE",
"259 -6 CURVE SMOOTH",
"310 -6 LINE SMOOTH",
"481 -6 OFFCURVE",
"582 99 OFFCURVE",
"582 277 CURVE SMOOTH",
"582 700 LINE",
"444 700 LINE",
"444 277 LINE SMOOTH",
"444 176 OFFCURVE",
"394 116 OFFCURVE",
"310 116 CURVE SMOOTH",
"259 116 LINE SMOOTH",
"192 116 OFFCURVE",
"146 177 OFFCURVE",
"143 269 CURVE",
"5 269 LINE"
);
}
);
width = 612;
},
{
associatedMasterId = "020CB1CC-CCFF-4D13-936A-D2256F19E5D3";
layerId = "8AF6BA7E-4672-4BE4-A9AE-4DB948958C2C";
width = 600;
},
{
associatedMasterId = "020CB1CC-CCFF-4D13-936A-D2256F19E5D3";
layerId = "8D2DD6E3-C33F-44EF-86D7-6E9DB02D06F9";
width = 600;
},
{
anchors = (
{
name = bottom;
position = "{304, 0}";
},
{
name = top;
position = "{434, 700}";
}
);
background = {
paths = (
{
closed = 1;
nodes = (
"65 74 OFFCURVE",
"145 -6 OFFCURVE",
"254 -6 CURVE SMOOTH",
"315 -6 LINE SMOOTH",
"443 -6 OFFCURVE",
"528 89 OFFCURVE",
"528 232 CURVE SMOOTH",
"528 700 LINE",
"492 700 LINE",
"492 232 LINE SMOOTH",
"492 110 OFFCURVE",
"421 28 OFFCURVE",
"315 28 CURVE SMOOTH",
"254 28 LINE SMOOTH",
"165 28 OFFCURVE",
"99 95 OFFCURVE",
"91 195 CURVE",
"55 195 LINE"
);
}
);
};
layerId = "020CB1CC-CCFF-4D13-936A-D2256F19E5D3";
paths = (
{
closed = 1;
nodes = (
"65 74 OFFCURVE",
"145 -6 OFFCURVE",
"254 -6 CURVE SMOOTH",
"315 -6 LINE SMOOTH",
"443 -6 OFFCURVE",
"528 89 OFFCURVE",
"528 232 CURVE SMOOTH",
"528 700 LINE",
"492 700 LINE",
"492 232 LINE SMOOTH",
"492 110 OFFCURVE",
"421 28 OFFCURVE",
"315 28 CURVE SMOOTH",
"254 28 LINE SMOOTH",
"165 28 OFFCURVE",
"99 95 OFFCURVE",
"91 195 CURVE",
"55 195 LINE"
);
}
);
width = 608;
},
{
associatedMasterId = "020CB1CC-CCFF-4D13-936A-D2256F19E5D3";
layerId = "D970888F-E372-4223-A64C-12E78DD959D6";
width = 600;
},
{
anchors = (
{
name = bottom;
position = "{283, 0}";
},
{
name = top;
position = "{283, 700}";
}
);
background = {
paths = (
{
closed = 1;
nodes = (
"40 79 OFFCURVE",
"128 -6 OFFCURVE",
"255 -6 CURVE SMOOTH",
"306 -6 LINE SMOOTH",
"451 -6 OFFCURVE",
"526 81 OFFCURVE",
"526 249 CURVE SMOOTH",
"526 700 LINE",
"452 700 LINE",
"452 249 LINE SMOOTH",
"452 125 OFFCURVE",
"402 60 OFFCURVE",
"306 60 CURVE SMOOTH",
"255 60 LINE SMOOTH",
"172 60 OFFCURVE",
"113 121 OFFCURVE",
"113 223 CURVE",
"40 223 LINE"
);
}
);
};
layerId = "76C6DC51-463D-4A0C-B694-3EB424048C5D";
paths = (
{
closed = 1;
nodes = (
"40 86 OFFCURVE",
"123 -6 OFFCURVE",
"248 -6 CURVE SMOOTH",
"318 -6 LINE SMOOTH",
"451 -6 OFFCURVE",
"526 89 OFFCURVE",
"526 249 CURVE SMOOTH",
"526 700 LINE",
"452 700 LINE",
"452 249 LINE SMOOTH",
"452 130 OFFCURVE",
"405 60 OFFCURVE",
"320 60 CURVE SMOOTH",
"248 60 LINE SMOOTH",
"167 60 OFFCURVE",
"113 125 OFFCURVE",
"113 223 CURVE",
"40 223 LINE"
);
}
);
width = 586;
}
);
note = J;
unicode = 004A;
},
{
glyphname = K;
lastChange = "2018-03-27 09:35:12 +0000";
layers = (
{
anchors = (
{
name = bottom;
position = "{328, 0}";
},
{
name = top;
position = "{328, 700}";
}
);
background = {
paths = (
{
closed = 1;
nodes = (
"663 0 LINE",
"387 353 LINE",
"640 700 LINE",
"478 700 LINE",
"269 413 LINE",
"183 413 LINE",
"183 700 LINE",
"45 700 LINE",
"45 0 LINE",
"183 0 LINE",
"183 291 LINE",
"270 291 LINE",
"494 0 LINE"
);
}
);
};
layerId = "EA06CE92-4115-4482-8874-2441C279E756";
paths = (
{
closed = 1;
nodes = (
"663 0 LINE",
"397 353 LINE",
"640 700 LINE",
"478 700 LINE",
"279 413 LINE",
"183 413 LINE",
"183 700 LINE",
"45 700 LINE",
"45 0 LINE",
"183 0 LINE",
"183 291 LINE",
"280 291 LINE",
"494 0 LINE"
);
}
);
width = 663;
},
{
associatedMasterId = "020CB1CC-CCFF-4D13-936A-D2256F19E5D3";
layerId = "8AF6BA7E-4672-4BE4-A9AE-4DB948958C2C";
width = 600;
},
{
associatedMasterId = "020CB1CC-CCFF-4D13-936A-D2256F19E5D3";
layerId = "906CA121-F3DF-47A9-A152-8D1E61883E00";
width = 600;
},
{
anchors = (
{
name = bottom;
position = "{317, 0}";
},
{
name = top;
position = "{327, 700}";
}
);
background = {
paths = (
{
closed = 1;
nodes = (
"579 0 LINE",
"249 353 LINE",
"558 700 LINE",
"513 700 LINE",
"219 368 LINE",
"111 368 LINE",
"111 700 LINE",
"75 700 LINE",
"75 0 LINE",
"111 0 LINE",
"111 336 LINE",
"219 336 LINE",
"530 0 LINE"
);
}
);
};
layerId = "020CB1CC-CCFF-4D13-936A-D2256F19E5D3";
paths = (
{
closed = 1;
nodes = (
"599 0 LINE",
"273 353 LINE",
"578 700 LINE",
"531 700 LINE",
"239 369 LINE",
"131 369 LINE",
"131 700 LINE",
"95 700 LINE",
"95 0 LINE",
"131 0 LINE",
"131 335 LINE",
"240 335 LINE",
"550 0 LINE"
);
}
);
width = 649;
},
{
associatedMasterId = "020CB1CC-CCFF-4D13-936A-D2256F19E5D3";
layerId = "5114723C-08E5-4FD5-88D7-5657645561FA";
width = 600;
},
{
anchors = (
{
name = bottom;
position = "{326, 0}";
},
{
name = top;
position = "{326, 700}";
}
);
background = {
paths = (
{
closed = 1;
nodes = (
"149 0 LINE",
"149 241 LINE",
"583 700 LINE",
"489 700 LINE",
"149 335 LINE",
"149 700 LINE",
"75 700 LINE",
"75 0 LINE"
);
},
{
closed = 1;
nodes = (
"601 0 LINE",
"284 394 LINE",
"216 361 LINE",
"509 0 LINE"
);
}
);
};
layerId = "76C6DC51-463D-4A0C-B694-3EB424048C5D";
paths = (
{
closed = 1;
nodes = (
"149 0 LINE",
"149 242 LINE",
"583 700 LINE",
"489 700 LINE",
"149 336 LINE",
"149 700 LINE",
"75 700 LINE",
"75 0 LINE"
);
},
{
closed = 1;
nodes = (
"601 0 LINE",
"284 394 LINE",
"216 361 LINE",
"509 0 LINE"
);
}
);
width = 652;
}
);
note = K;
unicode = 004B;
},
{
glyphname = L;
lastChange = "2018-03-27 09:35:34 +0000";
layers = (
{
anchors = (
{
name = bottom;
position = "{277, 0}";
},
{
name = center;
position = "{277, 350}";
},
{
name = top;
position = "{277, 700}";
},
{
name = topright;
position = "{533, 700}";
}
);
background = {
paths = (
{
closed = 1;
nodes = (
"77 65 LINE SMOOTH",
"77 24 OFFCURVE",
"101 0 OFFCURVE",
"142 0 CURVE SMOOTH",
"518 0 LINE",
"518 66 LINE",
"151 66 LINE",
"151 700 LINE",
"77 700 LINE"
);
}
);
};
layerId = "EA06CE92-4115-4482-8874-2441C279E756";
paths = (
{
closed = 1;
nodes = (
"550 0 LINE",
"550 122 LINE",
"183 122 LINE",
"183 700 LINE",
"45 700 LINE",
"45 93 LINE SMOOTH",
"45 37 OFFCURVE",
"83 0 OFFCURVE",
"142 0 CURVE SMOOTH"
);
}
);
width = 555;
},
{
associatedMasterId = "020CB1CC-CCFF-4D13-936A-D2256F19E5D3";
layerId = "8AF6BA7E-4672-4BE4-A9AE-4DB948958C2C";
width = 600;
},
{
associatedMasterId = "020CB1CC-CCFF-4D13-936A-D2256F19E5D3";
layerId = "0800A5CB-E0D5-48F5-90BA-8E7BC004AAA6";
width = 600;
},
{
anchors = (
{
name = bottom;
position = "{302, 0}";
},
{
name = center;
position = "{276, 560}";
},
{
name = top;
position = "{302, 700}";
},
{
name = topright;
position = "{532, 700}";
}
);
background = {
paths = (
{
closed = 1;
nodes = (
"75 46 LINE SMOOTH",
"75 18 OFFCURVE",
"93 0 OFFCURVE",
"121 0 CURVE SMOOTH",
"478 0 LINE",
"478 34 LINE",
"111 34 LINE",
"111 700 LINE",
"75 700 LINE"
);
}
);
};
layerId = "020CB1CC-CCFF-4D13-936A-D2256F19E5D3";
paths = (
{
closed = 1;
nodes = (
"498 0 LINE",
"498 34 LINE",
"131 34 LINE",
"131 700 LINE",
"95 700 LINE",
"95 46 LINE SMOOTH",
"95 17 OFFCURVE",
"112 0 OFFCURVE",
"141 0 CURVE SMOOTH"
);
}
);
width = 548;
},
{
associatedMasterId = "020CB1CC-CCFF-4D13-936A-D2256F19E5D3";
layerId = "3CFCC3BF-62A9-484E-8E74-28BB0D2BCD9E";
width = 600;
},
{
anchors = (
{
name = bottom;
position = "{275, 0}";
},
{
name = center;
position = "{275, 350}";
},
{
name = top;
position = "{275, 700}";
},
{
name = topright;
position = "{531, 700}";
}
);
layerId = "76C6DC51-463D-4A0C-B694-3EB424048C5D";
paths = (
{
closed = 1;
nodes = (
"516 0 LINE",
"516 66 LINE",
"149 66 LINE",
"149 700 LINE",
"75 700 LINE",
"75 65 LINE SMOOTH",
"75 24 OFFCURVE",
"99 0 OFFCURVE",
"140 0 CURVE SMOOTH"
);
}
);
width = 551;
}
);
note = L;
unicode = 004C;
},
{
glyphname = M;
lastChange = "2018-03-27 09:07:22 +0000";
layers = (
{
anchors = (
{
name = bottom;
position = "{402, 0}";
},
{
name = top;
position = "{402, 700}";
}
);
background = {
paths = (
{
closed = 1;
nodes = (
"405 115 LINE SMOOTH",
"435 115 OFFCURVE",
"452 130 OFFCURVE",
"471 165 CURVE SMOOTH",
"620 423 LINE",
"620 0 LINE",
"757 0 LINE",
"757 700 LINE",
"637 700 LINE",
"405 286 LINE",
"165 701 LINE",
"45 701 LINE",
"45 0 LINE",
"181 0 LINE",
"181 423 LINE",
"365 115 LINE"
);
}
);
};
layerId = "EA06CE92-4115-4482-8874-2441C279E756";
paths = (
{
closed = 1;
nodes = (
"405 127 LINE SMOOTH",
"432 127 OFFCURVE",
"451 141 OFFCURVE",
"471 177 CURVE SMOOTH",
"621 443 LINE",
"621 0 LINE",
"757 0 LINE",
"757 700 LINE",
"636 700 LINE",
"405 284 LINE",
"166 700 LINE",
"45 700 LINE",
"45 0 LINE",
"181 0 LINE",
"181 443 LINE",
"365 127 LINE"
);
}
);
width = 802;
},
{
associatedMasterId = "020CB1CC-CCFF-4D13-936A-D2256F19E5D3";
layerId = "8AF6BA7E-4672-4BE4-A9AE-4DB948958C2C";
width = 600;
},
{
associatedMasterId = "020CB1CC-CCFF-4D13-936A-D2256F19E5D3";
layerId = "A4737667-7B03-42F7-997C-4D08B8B8F038";
width = 600;
},
{
anchors = (
{
name = bottom;
position = "{404, 0}";
},
{
name = top;
position = "{401, 700}";
}
);
background = {
paths = (
{
closed = 1;
nodes = (
"386 153 LINE SMOOTH",
"391 153 OFFCURVE",
"395 156 OFFCURVE",
"399 164 CURVE SMOOTH",
"650 629 LINE",
"650 0 LINE",
"686 0 LINE",
"686 700 LINE",
"650 700 LINE",
"384 205 LINE",
"111 700 LINE",
"75 700 LINE",
"75 0 LINE",
"111 0 LINE",
"111 629 LINE",
"375 153 LINE"
);
}
);
};
layerId = "020CB1CC-CCFF-4D13-936A-D2256F19E5D3";
paths = (
{
closed = 1;
nodes = (
"406 153 LINE SMOOTH",
"411 153 OFFCURVE",
"415 156 OFFCURVE",
"419 164 CURVE SMOOTH",
"670 629 LINE",
"670 0 LINE",
"706 0 LINE",
"706 700 LINE",
"670 700 LINE",
"404 205 LINE",
"131 700 LINE",
"95 700 LINE",
"95 0 LINE",
"131 0 LINE",
"131 629 LINE",
"395 153 LINE"
);
}
);
width = 801;
},
{
associatedMasterId = "020CB1CC-CCFF-4D13-936A-D2256F19E5D3";
layerId = "91026DBA-8A59-4DE8-AE63-B94637CE48EB";
width = 600;
},
{
anchors = (
{
name = bottom;
position = "{400, 0}";
},
{
name = top;
position = "{400, 700}";
}
);
layerId = "76C6DC51-463D-4A0C-B694-3EB424048C5D";
paths = (
{
closed = 1;
nodes = (
"405 143 LINE SMOOTH",
"419 143 OFFCURVE",
"428 152 OFFCURVE",
"442 178 CURVE SMOOTH",
"650 562 LINE",
"650 0 LINE",
"724 0 LINE",
"724 700 LINE",
"653 700 LINE",
"403 235 LINE",
"146 700 LINE",
"75 700 LINE",
"75 0 LINE",
"148 0 LINE",
"148 562 LINE",
"383 143 LINE"
);
}
);
width = 799;
}
);
note = M;
rightMetricsKey = "=|";
unicode = 004D;
},
{
glyphname = N;
lastChange = "2018-03-27 09:05:10 +0000";
layers = (
{
anchors = (
{
name = bottom;
position = "{344, 0}";
},
{
name = top;
position = "{344, 700}";
}
);
background = {
paths = (
{
closed = 1;
nodes = (
"167 700 LINE",
"45 700 LINE",
"45 0 LINE",
"183 0 LINE",
"183 468 LINE",
"520 0 LINE",
"642 0 LINE",
"642 700 LINE",
"504 700 LINE",
"504 232 LINE"
);
}
);
};
layerId = "EA06CE92-4115-4482-8874-2441C279E756";
paths = (
{
closed = 1;
nodes = (
"183 0 LINE",
"183 470 LINE",
"522 0 LINE",
"642 0 LINE",
"642 700 LINE",
"504 700 LINE",
"504 230 LINE",
"165 700 LINE",
"45 700 LINE",
"45 0 LINE"
);
}
);
width = 687;
},
{
associatedMasterId = "020CB1CC-CCFF-4D13-936A-D2256F19E5D3";
layerId = "8AF6BA7E-4672-4BE4-A9AE-4DB948958C2C";
width = 600;
},
{
associatedMasterId = "020CB1CC-CCFF-4D13-936A-D2256F19E5D3";
layerId = "0F709E40-C404-42FF-8347-0E9736575BB9";
width = 600;
},
{
anchors = (
{
name = bottom;
position = "{343, 0}";
},
{
name = top;
position = "{344, 700}";
}
);
background = {
paths = (
{
closed = 1;
nodes = (
"131 0 LINE",
"131 638 LINE",
"555 0 LINE",
"591 0 LINE",
"591 700 LINE",
"555 700 LINE",
"555 62 LINE",
"131 700 LINE",
"95 700 LINE",
"95 0 LINE"
);
}
);
};
layerId = "020CB1CC-CCFF-4D13-936A-D2256F19E5D3";
paths = (
{
closed = 1;
nodes = (
"131 0 LINE",
"131 638 LINE",
"555 0 LINE",
"591 0 LINE",
"591 700 LINE",
"555 700 LINE",
"555 62 LINE",
"131 700 LINE",
"95 700 LINE",
"95 0 LINE"
);
}
);
width = 686;
},
{
anchors = (
{
name = bottom;
position = "{342, 0}";
},
{
name = top;
position = "{342, 700}";
}
);
background = {
paths = (
{
closed = 1;
nodes = (
"149 0 LINE",
"149 576 LINE",
"537 0 LINE",
"609 0 LINE",
"609 700 LINE",
"535 700 LINE",
"535 124 LINE",
"147 700 LINE",
"75 700 LINE",
"75 0 LINE"
);
}
);
};
layerId = "76C6DC51-463D-4A0C-B694-3EB424048C5D";
paths = (
{
closed = 1;
nodes = (
"148 0 LINE",
"148 576 LINE",
"541 0 LINE",
"613 0 LINE",
"613 700 LINE",
"540 700 LINE",
"540 123 LINE",
"147 700 LINE",
"75 700 LINE",
"75 0 LINE"
);
}
);
width = 688;
}
);
note = N;
rightMetricsKey = "=|";
unicode = 004E;
},
{
glyphname = O;
lastChange = "2018-03-27 11:46:01 +0000";
layers = (
{
anchors = (
{
name = bottom;
position = "{357, 0}";
},
{
name = center;
position = "{357, 350}";
},
{
name = ogonek;
position = "{638, 10}";
},
{
name = top;
position = "{357, 700}";
},
{
name = topleft;
position = "{26, 700}";
},
{
name = topright;
position = "{688, 700}";
}
);
background = {
paths = (
{
closed = 1;
nodes = (
"168 393 LINE SMOOTH",
"168 509 OFFCURVE",
"231 583 OFFCURVE",
"327 583 CURVE SMOOTH",
"428 583 LINE SMOOTH",
"499 583 OFFCURVE",
"544 531 OFFCURVE",
"544 448 CURVE SMOOTH",
"544 307 LINE SMOOTH",
"544 192 OFFCURVE",
"482 117 OFFCURVE",
"387 117 CURVE SMOOTH",
"284 117 LINE SMOOTH",
"213 117 OFFCURVE",
"168 169 OFFCURVE",
"168 252 CURVE SMOOTH"
);
},
{
closed = 1;
nodes = (
"30 100 OFFCURVE",
"133 -5 OFFCURVE",
"284 -5 CURVE SMOOTH",
"387 -5 LINE SMOOTH",
"562 -5 OFFCURVE",
"682 121 OFFCURVE",
"682 307 CURVE SMOOTH",
"682 448 LINE SMOOTH",
"682 600 OFFCURVE",
"579 705 OFFCURVE",
"428 705 CURVE SMOOTH",
"327 705 LINE SMOOTH",
"151 705 OFFCURVE",
"30 579 OFFCURVE",
"30 393 CURVE SMOOTH",
"30 252 LINE SMOOTH"
);
}
);
};
layerId = "EA06CE92-4115-4482-8874-2441C279E756";
paths = (
{
closed = 1;
nodes = (
"168 394 LINE SMOOTH",
"168 508 OFFCURVE",
"232 584 OFFCURVE",
"327 584 CURVE SMOOTH",
"428 584 LINE SMOOTH",
"498 584 OFFCURVE",
"544 530 OFFCURVE",
"544 449 CURVE SMOOTH",
"544 306 LINE SMOOTH",
"544 192 OFFCURVE",
"481 116 OFFCURVE",
"387 116 CURVE SMOOTH",
"284 116 LINE SMOOTH",
"214 116 OFFCURVE",
"168 170 OFFCURVE",
"168 251 CURVE SMOOTH"
);
},
{
closed = 1;
nodes = (
"30 97 OFFCURVE",
"132 -6 OFFCURVE",
"284 -6 CURVE SMOOTH",
"387 -6 LINE SMOOTH",
"564 -6 OFFCURVE",
"682 119 OFFCURVE",
"682 306 CURVE SMOOTH",
"682 449 LINE SMOOTH",
"682 603 OFFCURVE",
"580 706 OFFCURVE",
"428 706 CURVE SMOOTH",
"327 706 LINE SMOOTH",
"149 706 OFFCURVE",
"30 581 OFFCURVE",
"30 394 CURVE SMOOTH",
"30 251 LINE SMOOTH"
);
}
);
width = 712;
},
{
associatedMasterId = "020CB1CC-CCFF-4D13-936A-D2256F19E5D3";
layerId = "8AF6BA7E-4672-4BE4-A9AE-4DB948958C2C";
width = 600;
},
{
associatedMasterId = "020CB1CC-CCFF-4D13-936A-D2256F19E5D3";
layerId = "D927022B-1EB5-4B3B-BF80-E0DB542423B7";
width = 600;
},
{
anchors = (
{
name = bottom;
position = "{352, 0}";
},
{
name = center;
position = "{356, 560}";
},
{
name = ogonek;
position = "{443, 0}";
},
{
name = top;
position = "{367, 700}";
},
{
name = topleft;
position = "{25, 700}";
},
{
name = topright;
position = "{630, 530}";
}
);
layerId = "020CB1CC-CCFF-4D13-936A-D2256F19E5D3";
paths = (
{
closed = 1;
nodes = (
"116 439 LINE SMOOTH",
"116 579 OFFCURVE",
"200 672 OFFCURVE",
"326 672 CURVE SMOOTH",
"427 672 LINE SMOOTH",
"527 672 OFFCURVE",
"594 601 OFFCURVE",
"594 494 CURVE SMOOTH",
"594 261 LINE SMOOTH",
"594 121 OFFCURVE",
"511 28 OFFCURVE",
"386 28 CURVE SMOOTH",
"283 28 LINE SMOOTH",
"183 28 OFFCURVE",
"116 99 OFFCURVE",
"116 206 CURVE SMOOTH"
);
},
{
closed = 1;
nodes = (
"80 79 OFFCURVE",
"161 -6 OFFCURVE",
"283 -6 CURVE SMOOTH",
"386 -6 LINE SMOOTH",
"532 -6 OFFCURVE",
"630 101 OFFCURVE",
"630 261 CURVE SMOOTH",
"630 494 LINE SMOOTH",
"630 621 OFFCURVE",
"549 706 OFFCURVE",
"427 706 CURVE SMOOTH",
"326 706 LINE SMOOTH",
"178 706 OFFCURVE",
"80 599 OFFCURVE",
"80 439 CURVE SMOOTH",
"80 206 LINE SMOOTH"
);
}
);
width = 710;
},
{
associatedMasterId = "020CB1CC-CCFF-4D13-936A-D2256F19E5D3";
layerId = "34BEBA60-7126-482F-ACE8-F5463C0FCFF5";
width = 600;
},
{
anchors = (
{
name = bottom;
position = "{352, 0}";
},
{
name = center;
position = "{352, 350}";
},
{
name = ogonek;
position = "{633, 10}";
},
{
name = top;
position = "{352, 700}";
},
{
name = topleft;
position = "{21, 700}";
},
{
name = topright;
position = "{683, 700}";
}
);
background = {
paths = (
{
closed = 1;
nodes = (
"60 91 OFFCURVE",
"156 -10 OFFCURVE",
"299 -10 CURVE SMOOTH",
"405 -10 LINE SMOOTH",
"552 -10 OFFCURVE",
"650 91 OFFCURVE",
"650 243 CURVE SMOOTH",
"650 453 LINE SMOOTH",
"650 605 OFFCURVE",
"553 706 OFFCURVE",
"408 706 CURVE SMOOTH",
"302 706 LINE SMOOTH",
"157 706 OFFCURVE",
"60 605 OFFCURVE",
"60 453 CURVE SMOOTH",
"60 243 LINE SMOOTH"
);
},
{
closed = 1;
nodes = (
"576 131 OFFCURVE",
"508 56 OFFCURVE",
"405 56 CURVE SMOOTH",
"299 56 LINE SMOOTH",
"200 56 OFFCURVE",
"134 131 OFFCURVE",
"134 243 CURVE SMOOTH",
"134 453 LINE SMOOTH",
"134 565 OFFCURVE",
"201 640 OFFCURVE",
"302 640 CURVE SMOOTH",
"408 640 LINE SMOOTH",
"509 640 OFFCURVE",
"576 565 OFFCURVE",
"576 453 CURVE SMOOTH",
"576 243 LINE SMOOTH"
);
}
);
};
layerId = "76C6DC51-463D-4A0C-B694-3EB424048C5D";
paths = (
{
closed = 1;
nodes = (
"60 95 OFFCURVE",
"155 -6 OFFCURVE",
"298 -6 CURVE SMOOTH",
"406 -6 LINE SMOOTH",
"552 -6 OFFCURVE",
"650 95 OFFCURVE",
"650 247 CURVE SMOOTH",
"650 453 LINE SMOOTH",
"650 605 OFFCURVE",
"554 706 OFFCURVE",
"409 706 CURVE SMOOTH",
"301 706 LINE SMOOTH",
"156 706 OFFCURVE",
"60 605 OFFCURVE",
"60 453 CURVE SMOOTH",
"60 247 LINE SMOOTH"
);
},
{
closed = 1;
nodes = (
"576 135 OFFCURVE",
"507 60 OFFCURVE",
"404 60 CURVE SMOOTH",
"300 60 LINE SMOOTH",
"200 60 OFFCURVE",
"134 135 OFFCURVE",
"134 247 CURVE SMOOTH",
"134 453 LINE SMOOTH",
"134 565 OFFCURVE",
"202 640 OFFCURVE",
"303 640 CURVE SMOOTH",
"407 640 LINE SMOOTH",
"508 640 OFFCURVE",
"576 565 OFFCURVE",
"576 453 CURVE SMOOTH",
"576 247 LINE SMOOTH"
);
}
);
width = 710;
}
);
note = O;
rightMetricsKey = "=|";
unicode = 004F;
},
{
glyphname = P;
lastChange = "2018-03-27 10:05:10 +0000";
layers = (
{
anchors = (
{
name = bottom;
position = "{318, 0}";
},
{
name = top;
position = "{318, 700}";
}
);
layerId = "EA06CE92-4115-4482-8874-2441C279E756";
paths = (
{
closed = 1;
nodes = (
"434 580 LINE SMOOTH",
"471 580 OFFCURVE",
"496 555 OFFCURVE",
"496 517 CURVE SMOOTH",
"496 422 LINE SMOOTH",
"496 369 OFFCURVE",
"450 333 OFFCURVE",
"379 333 CURVE SMOOTH",
"183 333 LINE",
"183 580 LINE"
);
},
{
closed = 1;
nodes = (
"532 213 OFFCURVE",
"634 296 OFFCURVE",
"634 421 CURVE SMOOTH",
"634 513 LINE SMOOTH",
"634 625 OFFCURVE",
"554 700 OFFCURVE",
"434 700 CURVE SMOOTH",
"45 700 LINE",
"45 0 LINE",
"183 0 LINE",
"183 213 LINE",
"379 213 LINE SMOOTH"
);
}
);
width = 639;
},
{
associatedMasterId = "020CB1CC-CCFF-4D13-936A-D2256F19E5D3";
layerId = "8AF6BA7E-4672-4BE4-A9AE-4DB948958C2C";
width = 600;
},
{
associatedMasterId = "020CB1CC-CCFF-4D13-936A-D2256F19E5D3";
layerId = "CFC0E8CE-FBCE-4532-A8F0-A6CBC0FAA8F0";
width = 600;
},
{
anchors = (
{
name = bottom;
position = "{317, 0}";
},
{
name = top;
position = "{317, 700}";
}
);
layerId = "020CB1CC-CCFF-4D13-936A-D2256F19E5D3";
paths = (
{
closed = 1;
nodes = (
"433 666 LINE SMOOTH",
"501 666 OFFCURVE",
"547 624 OFFCURVE",
"547 560 CURVE SMOOTH",
"547 458 LINE SMOOTH",
"547 381 OFFCURVE",
"479 330 OFFCURVE",
"378 330 CURVE SMOOTH",
"131 330 LINE",
"131 666 LINE"
);
},
{
closed = 1;
nodes = (
"501 296 OFFCURVE",
"583 361 OFFCURVE",
"583 458 CURVE SMOOTH",
"583 560 LINE SMOOTH",
"583 644 OFFCURVE",
"523 700 OFFCURVE",
"433 700 CURVE SMOOTH",
"95 700 LINE",
"95 0 LINE",
"131 0 LINE",
"131 296 LINE",
"378 296 LINE SMOOTH"
);
}
);
width = 633;
},
{
associatedMasterId = "020CB1CC-CCFF-4D13-936A-D2256F19E5D3";
layerId = "04FAEC8A-7D99-4D83-9F21-3E9D0CDC4E85";
width = 600;
},
{
anchors = (
{
name = bottom;
position = "{316, 0}";
},
{
name = top;
position = "{316, 700}";
}
);
background = {
paths = (
{
closed = 1;
nodes = (
"428 634 LINE SMOOTH",
"485 634 OFFCURVE",
"523 598 OFFCURVE",
"523 545 CURVE SMOOTH",
"523 446 LINE SMOOTH",
"523 377 OFFCURVE",
"463 331 OFFCURVE",
"373 331 CURVE SMOOTH",
"149 331 LINE",
"149 634 LINE"
);
},
{
closed = 1;
nodes = (
"507 265 OFFCURVE",
"597 337 OFFCURVE",
"597 445 CURVE SMOOTH",
"597 541 LINE SMOOTH",
"597 636 OFFCURVE",
"529 700 OFFCURVE",
"428 700 CURVE SMOOTH",
"75 700 LINE",
"75 0 LINE",
"149 0 LINE",
"149 265 LINE",
"373 265 LINE SMOOTH"
);
}
);
};
layerId = "76C6DC51-463D-4A0C-B694-3EB424048C5D";
paths = (
{
closed = 1;
nodes = (
"412 634 LINE SMOOTH",
"473 634 OFFCURVE",
"513 598 OFFCURVE",
"513 544 CURVE SMOOTH",
"513 441 LINE SMOOTH",
"513 375 OFFCURVE",
"464 331 OFFCURVE",
"390 331 CURVE SMOOTH",
"149 331 LINE",
"149 634 LINE"
);
},
{
closed = 1;
nodes = (
"509 265 OFFCURVE",
"587 335 OFFCURVE",
"587 439 CURVE SMOOTH",
"587 542 LINE SMOOTH",
"587 637 OFFCURVE",
"518 700 OFFCURVE",
"414 700 CURVE SMOOTH",
"75 700 LINE",
"75 0 LINE",
"149 0 LINE",
"149 265 LINE",
"392 265 LINE SMOOTH"
);
}
);
width = 632;
}
);
note = P;
unicode = 0050;
},
{
glyphname = Q;
lastChange = "2018-03-27 09:50:47 +0000";
layers = (
{
anchors = (
{
name = bottom;
position = "{348, 0}";
},
{
name = top;
position = "{348, 700}";
}
);
background = {
paths = (
{
closed = 1;
nodes = (
"617 -36 LINE",
"706 54 LINE",
"460 306 LINE",
"371 216 LINE"
);
},
{
closed = 1;
nodes = (
"168 393 LINE SMOOTH",
"168 507 OFFCURVE",
"232 583 OFFCURVE",
"327 583 CURVE SMOOTH",
"428 583 LINE SMOOTH",
"498 583 OFFCURVE",
"544 529 OFFCURVE",
"544 448 CURVE SMOOTH",
"544 307 LINE SMOOTH",
"544 193 OFFCURVE",
"481 117 OFFCURVE",
"387 117 CURVE SMOOTH",
"284 117 LINE SMOOTH",
"214 117 OFFCURVE",
"168 171 OFFCURVE",
"168 252 CURVE SMOOTH"
);
},
{
closed = 1;
nodes = (
"30 98 OFFCURVE",
"132 -5 OFFCURVE",
"284 -5 CURVE SMOOTH",
"387 -5 LINE SMOOTH",
"554 -5 OFFCURVE",
"682 130 OFFCURVE",
"682 307 CURVE SMOOTH",
"682 448 LINE SMOOTH",
"682 602 OFFCURVE",
"580 705 OFFCURVE",
"428 705 CURVE SMOOTH",
"327 705 LINE SMOOTH",
"149 705 OFFCURVE",
"30 580 OFFCURVE",
"30 393 CURVE SMOOTH",
"30 252 LINE SMOOTH"
);
}
);
};
layerId = "EA06CE92-4115-4482-8874-2441C279E756";
paths = (
{
closed = 1;
nodes = (
"617 -36 LINE",
"706 54 LINE",
"460 306 LINE",
"371 216 LINE"
);
},
{
closed = 1;
nodes = (
"168 393 LINE SMOOTH",
"168 507 OFFCURVE",
"232 583 OFFCURVE",
"327 583 CURVE SMOOTH",
"428 583 LINE SMOOTH",
"498 583 OFFCURVE",
"544 529 OFFCURVE",
"544 448 CURVE SMOOTH",
"544 307 LINE SMOOTH",
"544 193 OFFCURVE",
"481 117 OFFCURVE",
"387 117 CURVE SMOOTH",
"284 117 LINE SMOOTH",
"214 117 OFFCURVE",
"168 171 OFFCURVE",
"168 252 CURVE SMOOTH"
);
},
{
closed = 1;
nodes = (
"30 98 OFFCURVE",
"132 -5 OFFCURVE",
"284 -5 CURVE SMOOTH",
"387 -5 LINE SMOOTH",
"554 -5 OFFCURVE",
"682 130 OFFCURVE",
"682 307 CURVE SMOOTH",
"682 448 LINE SMOOTH",
"682 602 OFFCURVE",
"580 705 OFFCURVE",
"428 705 CURVE SMOOTH",
"327 705 LINE SMOOTH",
"149 705 OFFCURVE",
"30 580 OFFCURVE",
"30 393 CURVE SMOOTH",
"30 252 LINE SMOOTH"
);
}
);
width = 726;
},
{
associatedMasterId = "020CB1CC-CCFF-4D13-936A-D2256F19E5D3";
layerId = "8AF6BA7E-4672-4BE4-A9AE-4DB948958C2C";
width = 600;
},
{
associatedMasterId = "020CB1CC-CCFF-4D13-936A-D2256F19E5D3";
layerId = "F7E09509-B089-4ED3-80B4-7EC038265276";
width = 600;
},
{
anchors = (
{
name = bottom;
position = "{343, 0}";
},
{
name = top;
position = "{343, 700}";
}
);
background = {
paths = (
{
closed = 1;
nodes = (
"608 -15 LINE",
"630 6 LINE",
"419 221 LINE",
"397 200 LINE"
);
},
{
closed = 1;
nodes = (
"92 439 LINE SMOOTH",
"92 581 OFFCURVE",
"175 674 OFFCURVE",
"302 674 CURVE SMOOTH",
"403 674 LINE SMOOTH",
"503 674 OFFCURVE",
"570 603 OFFCURVE",
"570 494 CURVE SMOOTH",
"570 261 LINE SMOOTH",
"570 119 OFFCURVE",
"486 26 OFFCURVE",
"362 26 CURVE SMOOTH",
"259 26 LINE SMOOTH",
"158 26 OFFCURVE",
"92 97 OFFCURVE",
"92 206 CURVE SMOOTH"
);
},
{
closed = 1;
nodes = (
"56 79 OFFCURVE",
"137 -7 OFFCURVE",
"259 -7 CURVE SMOOTH",
"362 -7 LINE SMOOTH",
"514 -7 OFFCURVE",
"606 95 OFFCURVE",
"606 261 CURVE SMOOTH",
"606 494 LINE SMOOTH",
"606 621 OFFCURVE",
"524 707 OFFCURVE",
"403 707 CURVE SMOOTH",
"302 707 LINE SMOOTH",
"154 707 OFFCURVE",
"56 599 OFFCURVE",
"56 439 CURVE SMOOTH",
"56 206 LINE SMOOTH"
);
}
);
};
layerId = "020CB1CC-CCFF-4D13-936A-D2256F19E5D3";
paths = (
{
closed = 1;
nodes = (
"626 -17 LINE",
"650 6 LINE",
"439 221 LINE",
"415 198 LINE"
);
},
{
closed = 1;
nodes = (
"112 439 LINE SMOOTH",
"112 579 OFFCURVE",
"196 672 OFFCURVE",
"322 672 CURVE SMOOTH",
"423 672 LINE SMOOTH",
"523 672 OFFCURVE",
"590 601 OFFCURVE",
"590 494 CURVE SMOOTH",
"590 261 LINE SMOOTH",
"590 121 OFFCURVE",
"507 28 OFFCURVE",
"382 28 CURVE SMOOTH",
"279 28 LINE SMOOTH",
"179 28 OFFCURVE",
"112 99 OFFCURVE",
"112 206 CURVE SMOOTH"
);
},
{
closed = 1;
nodes = (
"76 79 OFFCURVE",
"157 -6 OFFCURVE",
"279 -6 CURVE SMOOTH",
"382 -6 LINE SMOOTH",
"528 -6 OFFCURVE",
"626 101 OFFCURVE",
"626 261 CURVE SMOOTH",
"626 494 LINE SMOOTH",
"626 621 OFFCURVE",
"545 706 OFFCURVE",
"423 706 CURVE SMOOTH",
"322 706 LINE SMOOTH",
"174 706 OFFCURVE",
"76 599 OFFCURVE",
"76 439 CURVE SMOOTH",
"76 206 LINE SMOOTH"
);
}
);
width = 686;
},
{
associatedMasterId = "020CB1CC-CCFF-4D13-936A-D2256F19E5D3";
layerId = "D893B644-DE11-4E16-8D30-6BFEF0B08C8B";
width = 600;
},
{
anchors = (
{
name = bottom;
position = "{342, 0}";
},
{
name = top;
position = "{342, 700}";
}
);
background = {
paths = (
{
closed = 1;
nodes = (
"641 -23 LINE",
"688 24 LINE",
"464 253 LINE",
"417 206 LINE"
);
},
{
closed = 1;
nodes = (
"410 -6 LINE SMOOTH",
"547 -6 OFFCURVE",
"655 92 OFFCURVE",
"655 239 CURVE SMOOTH",
"655 463 LINE SMOOTH",
"655 609 OFFCURVE",
"557 706 OFFCURVE",
"410 706 CURVE SMOOTH",
"305 706 LINE SMOOTH",
"158 706 OFFCURVE",
"60 609 OFFCURVE",
"60 463 CURVE SMOOTH",
"60 239 LINE SMOOTH",
"60 92 OFFCURVE",
"158 -6 OFFCURVE",
"305 -6 CURVE SMOOTH"
);
},
{
closed = 1;
nodes = (
"202 60 OFFCURVE",
"134 132 OFFCURVE",
"134 239 CURVE SMOOTH",
"134 463 LINE SMOOTH",
"134 569 OFFCURVE",
"202 640 OFFCURVE",
"305 640 CURVE SMOOTH",
"410 640 LINE SMOOTH",
"513 640 OFFCURVE",
"581 569 OFFCURVE",
"581 463 CURVE SMOOTH",
"581 239 LINE SMOOTH",
"581 132 OFFCURVE",
"503 60 OFFCURVE",
"410 60 CURVE SMOOTH",
"305 60 LINE SMOOTH"
);
}
);
};
components = (
{
name = O;
}
);
layerId = "76C6DC51-463D-4A0C-B694-3EB424048C5D";
paths = (
{
closed = 1;
nodes = (
"641 -23 LINE",
"688 24 LINE",
"464 253 LINE",
"417 206 LINE"
);
}
);
width = 715;
}
);
note = Q;
unicode = 0051;
},
{
glyphname = R;
lastChange = "2018-03-27 09:41:45 +0000";
layers = (
{
anchors = (
{
name = bottom;
position = "{327, 0}";
},
{
name = top;
position = "{327, 700}";
}
);
background = {
paths = (
{
closed = 1;
nodes = (
"45 700 LINE",
"45 0 LINE",
"183 0 LINE",
"183 252 LINE",
"358 252 LINE SMOOTH",
"409 252 OFFCURVE",
"438 214 OFFCURVE",
"456 161 CURVE SMOOTH",
"511 0 LINE",
"654 0 LINE",
"594 177 LINE SMOOTH",
"578 226 OFFCURVE",
"548 275 OFFCURVE",
"520 299 CURVE",
"581 332 OFFCURVE",
"622 393 OFFCURVE",
"622 451 CURVE SMOOTH",
"622 513 LINE SMOOTH",
"622 625 OFFCURVE",
"542 700 OFFCURVE",
"421 700 CURVE SMOOTH"
);
},
{
closed = 1;
nodes = (
"459 580 OFFCURVE",
"484 556 OFFCURVE",
"484 519 CURVE SMOOTH",
"484 451 LINE SMOOTH",
"484 404 OFFCURVE",
"449 372 OFFCURVE",
"396 372 CURVE SMOOTH",
"183 372 LINE",
"183 580 LINE",
"421 580 LINE SMOOTH"
);
}
);
};
layerId = "EA06CE92-4115-4482-8874-2441C279E756";
paths = (
{
closed = 1;
nodes = (
"45 700 LINE",
"45 0 LINE",
"183 0 LINE",
"183 252 LINE",
"358 252 LINE SMOOTH",
"409 252 OFFCURVE",
"438 214 OFFCURVE",
"456 161 CURVE SMOOTH",
"511 0 LINE",
"654 0 LINE",
"594 177 LINE SMOOTH",
"577 228 OFFCURVE",
"547 277 OFFCURVE",
"517 300 CURVE",
"580 334 OFFCURVE",
"622 394 OFFCURVE",
"622 451 CURVE SMOOTH",
"622 513 LINE SMOOTH",
"622 625 OFFCURVE",
"542 700 OFFCURVE",
"421 700 CURVE SMOOTH"
);
},
{
closed = 1;
nodes = (
"459 580 OFFCURVE",
"484 556 OFFCURVE",
"484 519 CURVE SMOOTH",
"484 451 LINE SMOOTH",
"484 404 OFFCURVE",
"449 372 OFFCURVE",
"396 372 CURVE SMOOTH",
"181 372 LINE",
"181 580 LINE",
"421 580 LINE SMOOTH"
);
}
);
width = 659;
},
{
associatedMasterId = "020CB1CC-CCFF-4D13-936A-D2256F19E5D3";
layerId = "8AF6BA7E-4672-4BE4-A9AE-4DB948958C2C";
width = 600;
},
{
associatedMasterId = "020CB1CC-CCFF-4D13-936A-D2256F19E5D3";
layerId = "B534C071-F737-4F5D-BBDF-160D283A8C0C";
width = 600;
},
{
anchors = (
{
name = bottom;
position = "{326, 0}";
},
{
name = top;
position = "{326, 700}";
}
);
background = {
paths = (
{
closed = 1;
nodes = (
"75 700 LINE",
"75 0 LINE",
"111 0 LINE",
"111 322 LINE",
"337 322 LINE SMOOTH",
"402 322 OFFCURVE",
"461 282 OFFCURVE",
"484 203 CURVE SMOOTH",
"542 0 LINE",
"579 0 LINE",
"523 193 LINE SMOOTH",
"503 262 OFFCURVE",
"463 307 OFFCURVE",
"414 322 CURVE",
"495 336 OFFCURVE",
"550 399 OFFCURVE",
"550 480 CURVE SMOOTH",
"550 558 LINE SMOOTH",
"550 643 OFFCURVE",
"489 700 OFFCURVE",
"400 700 CURVE SMOOTH"
);
},
{
closed = 1;
nodes = (
"468 666 OFFCURVE",
"514 623 OFFCURVE",
"514 561 CURVE SMOOTH",
"514 480 LINE SMOOTH",
"514 406 OFFCURVE",
"458 356 OFFCURVE",
"375 356 CURVE SMOOTH",
"112 356 LINE",
"112 666 LINE",
"400 666 LINE SMOOTH"
);
}
);
};
layerId = "020CB1CC-CCFF-4D13-936A-D2256F19E5D3";
paths = (
{
closed = 1;
nodes = (
"95 700 LINE",
"95 0 LINE",
"131 0 LINE",
"131 322 LINE",
"347 322 LINE SMOOTH",
"427 322 OFFCURVE",
"481 279 OFFCURVE",
"505 198 CURVE SMOOTH",
"562 0 LINE",
"599 0 LINE",
"543 198 LINE SMOOTH",
"521 268 OFFCURVE",
"490 306 OFFCURVE",
"436 330 CURVE",
"516 344 OFFCURVE",
"570 403 OFFCURVE",
"570 480 CURVE SMOOTH",
"570 560 LINE SMOOTH",
"570 644 OFFCURVE",
"510 700 OFFCURVE",
"420 700 CURVE SMOOTH"
);
},
{
closed = 1;
nodes = (
"488 666 OFFCURVE",
"534 624 OFFCURVE",
"534 560 CURVE SMOOTH",
"534 480 LINE SMOOTH",
"534 406 OFFCURVE",
"478 356 OFFCURVE",
"395 356 CURVE SMOOTH",
"131 356 LINE",
"131 666 LINE",
"420 666 LINE SMOOTH"
);
}
);
width = 651;
},
{
associatedMasterId = "020CB1CC-CCFF-4D13-936A-D2256F19E5D3";
layerId = "D7A6115E-1A1D-4224-861B-64AE24996F6F";
width = 600;
},
{
anchors = (
{
name = bottom;
position = "{325, 0}";
},
{
name = top;
position = "{325, 700}";
}
);
background = {
paths = (
{
closed = 1;
nodes = (
"75 700 LINE",
"75 0 LINE",
"149 0 LINE",
"149 296 LINE",
"355 296 LINE SMOOTH",
"409 296 OFFCURVE",
"458 252 OFFCURVE",
"478 187 CURVE SMOOTH",
"535 0 LINE",
"611 0 LINE",
"554 187 LINE SMOOTH",
"535 248 OFFCURVE",
"499 299 OFFCURVE",
"463 314 CURVE",
"537 335 OFFCURVE",
"587 397 OFFCURVE",
"587 469 CURVE SMOOTH",
"587 541 LINE SMOOTH",
"587 636 OFFCURVE",
"519 700 OFFCURVE",
"418 700 CURVE SMOOTH"
);
},
{
closed = 1;
nodes = (
"474 634 OFFCURVE",
"513 598 OFFCURVE",
"513 545 CURVE SMOOTH",
"513 469 LINE SMOOTH",
"513 405 OFFCURVE",
"465 362 OFFCURVE",
"393 362 CURVE SMOOTH",
"149 362 LINE",
"149 634 LINE",
"416 634 LINE SMOOTH"
);
}
);
};
layerId = "76C6DC51-463D-4A0C-B694-3EB424048C5D";
paths = (
{
closed = 1;
nodes = (
"75 700 LINE",
"75 0 LINE",
"149 0 LINE",
"149 296 LINE",
"355 296 LINE SMOOTH",
"409 296 OFFCURVE",
"458 252 OFFCURVE",
"478 187 CURVE SMOOTH",
"535 0 LINE",
"611 0 LINE",
"554 187 LINE SMOOTH",
"534 250 OFFCURVE",
"503 293 OFFCURVE",
"463 314 CURVE",
"463 315 LINE",
"541 339 OFFCURVE",
"587 396 OFFCURVE",
"587 469 CURVE SMOOTH",
"587 541 LINE SMOOTH",
"587 636 OFFCURVE",
"519 700 OFFCURVE",
"418 700 CURVE SMOOTH"
);
},
{
closed = 1;
nodes = (
"474 634 OFFCURVE",
"513 598 OFFCURVE",
"513 545 CURVE SMOOTH",
"513 469 LINE SMOOTH",
"513 405 OFFCURVE",
"465 362 OFFCURVE",
"393 362 CURVE SMOOTH",
"149 362 LINE",
"149 634 LINE",
"416 634 LINE SMOOTH"
);
}
);
width = 650;
}
);
note = R;
unicode = 0052;
},
{
glyphname = S;
lastChange = "2018-03-27 09:45:19 +0000";
layers = (
{
anchors = (
{
name = bottom;
position = "{319, 0}";
},
{
name = top;
position = "{319, 700}";
}
);
background = {
paths = (
{
closed = 1;
nodes = (
"362 -6 LINE SMOOTH",
"499 -6 OFFCURVE",
"591 67 OFFCURVE",
"591 176 CURVE SMOOTH",
"591 200 LINE SMOOTH",
"591 292 OFFCURVE",
"529 356 OFFCURVE",
"423 374 CURVE SMOOTH",
"220 409 LINE SMOOTH",
"168 418 OFFCURVE",
"134 451 OFFCURVE",
"134 492 CURVE SMOOTH",
"134 516 LINE SMOOTH",
"134 590 OFFCURVE",
"187 639 OFFCURVE",
"266 639 CURVE SMOOTH",
"382 639 LINE SMOOTH",
"453 639 OFFCURVE",
"500 583 OFFCURVE",
"500 498 CURVE",
"572 498 LINE",
"572 622 OFFCURVE",
"496 705 OFFCURVE",
"382 705 CURVE SMOOTH",
"266 705 LINE SMOOTH",
"142 705 OFFCURVE",
"60 629 OFFCURVE",
"60 516 CURVE SMOOTH",
"60 492 LINE SMOOTH",
"60 418 OFFCURVE",
"120 358 OFFCURVE",
"210 343 CURVE SMOOTH",
"416 308 LINE SMOOTH",
"479 299 OFFCURVE",
"517 259 OFFCURVE",
"517 200 CURVE SMOOTH",
"517 176 LINE SMOOTH",
"517 106 OFFCURVE",
"455 60 OFFCURVE",
"362 60 CURVE SMOOTH",
"260 60 LINE SMOOTH",
"177 60 OFFCURVE",
"122 124 OFFCURVE",
"122 219 CURVE",
"50 219 LINE",
"50 84 OFFCURVE",
"134 -6 OFFCURVE",
"260 -6 CURVE SMOOTH"
);
}
);
};
layerId = "EA06CE92-4115-4482-8874-2441C279E756";
paths = (
{
closed = 1;
nodes = (
"363 -6 LINE SMOOTH",
"520 -6 OFFCURVE",
"624 72 OFFCURVE",
"624 189 CURVE SMOOTH",
"624 213 LINE SMOOTH",
"624 311 OFFCURVE",
"552 381 OFFCURVE",
"429 402 CURVE SMOOTH",
"226 437 LINE SMOOTH",
"189 443 OFFCURVE",
"167 462 OFFCURVE",
"167 487 CURVE SMOOTH",
"167 511 LINE SMOOTH",
"167 555 OFFCURVE",
"207 584 OFFCURVE",
"267 584 CURVE SMOOTH",
"383 584 LINE SMOOTH",
"434 584 OFFCURVE",
"468 548 OFFCURVE",
"468 493 CURVE",
"604 493 LINE",
"604 621 OFFCURVE",
"516 706 OFFCURVE",
"383 706 CURVE SMOOTH",
"267 706 LINE SMOOTH",
"124 706 OFFCURVE",
"29 628 OFFCURVE",
"29 511 CURVE SMOOTH",
"29 487 LINE SMOOTH",
"29 398 OFFCURVE",
"95 334 OFFCURVE",
"206 315 CURVE SMOOTH",
"412 281 LINE SMOOTH",
"459 274 OFFCURVE",
"486 249 OFFCURVE",
"486 213 CURVE SMOOTH",
"486 189 LINE SMOOTH",
"486 145 OFFCURVE",
"437 116 OFFCURVE",
"363 116 CURVE SMOOTH",
"261 116 LINE SMOOTH",
"198 116 OFFCURVE",
"156 160 OFFCURVE",
"156 225 CURVE",
"20 225 LINE",
"20 86 OFFCURVE",
"116 -6 OFFCURVE",
"261 -6 CURVE SMOOTH"
);
}
);
width = 639;
},
{
associatedMasterId = "020CB1CC-CCFF-4D13-936A-D2256F19E5D3";
layerId = "8AF6BA7E-4672-4BE4-A9AE-4DB948958C2C";
width = 600;
},
{
associatedMasterId = "020CB1CC-CCFF-4D13-936A-D2256F19E5D3";
layerId = "4C2210A5-135A-4B17-8770-5A3101254AF2";
width = 600;
},
{
anchors = (
{
name = bottom;
position = "{330, 0}";
},
{
name = top;
position = "{323, 700}";
}
);
background = {
paths = (
{
closed = 1;
nodes = (
"343 -6 LINE SMOOTH",
"468 -6 OFFCURVE",
"553 64 OFFCURVE",
"553 168 CURVE SMOOTH",
"553 192 LINE SMOOTH",
"553 281 OFFCURVE",
"497 341 OFFCURVE",
"401 357 CURVE SMOOTH",
"199 392 LINE SMOOTH",
"137 403 OFFCURVE",
"97 444 OFFCURVE",
"97 495 CURVE SMOOTH",
"97 519 LINE SMOOTH",
"97 611 OFFCURVE",
"157 672 OFFCURVE",
"247 672 CURVE SMOOTH",
"363 672 LINE SMOOTH",
"446 672 OFFCURVE",
"501 604 OFFCURVE",
"501 501 CURVE",
"535 501 LINE",
"535 623 OFFCURVE",
"466 704 OFFCURVE",
"363 704 CURVE SMOOTH",
"247 704 LINE SMOOTH",
"135 704 OFFCURVE",
"61 630 OFFCURVE",
"61 519 CURVE SMOOTH",
"61 495 LINE SMOOTH",
"61 430 OFFCURVE",
"117 373 OFFCURVE",
"194 360 CURVE SMOOTH",
"401 325 LINE SMOOTH",
"473 313 OFFCURVE",
"518 265 OFFCURVE",
"518 192 CURVE SMOOTH",
"518 168 LINE SMOOTH",
"518 83 OFFCURVE",
"448 26 OFFCURVE",
"343 26 CURVE SMOOTH",
"241 26 LINE SMOOTH",
"146 26 OFFCURVE",
"84 102 OFFCURVE",
"84 215 CURVE",
"50 215 LINE",
"50 83 OFFCURVE",
"127 -6 OFFCURVE",
"241 -6 CURVE SMOOTH"
);
}
);
};
layerId = "020CB1CC-CCFF-4D13-936A-D2256F19E5D3";
paths = (
{
closed = 1;
nodes = (
"363 -6 LINE SMOOTH",
"489 -6 OFFCURVE",
"573 62 OFFCURVE",
"573 164 CURVE SMOOTH",
"573 198 LINE SMOOTH",
"573 283 OFFCURVE",
"517 342 OFFCURVE",
"421 358 CURVE SMOOTH",
"217 393 LINE SMOOTH",
"154 405 OFFCURVE",
"117 444 OFFCURVE",
"117 500 CURVE SMOOTH",
"117 534 LINE SMOOTH",
"117 616 OFFCURVE",
"179 670 OFFCURVE",
"272 670 CURVE SMOOTH",
"383 670 LINE SMOOTH",
"465 670 OFFCURVE",
"519 602 OFFCURVE",
"519 501 CURVE",
"555 501 LINE",
"555 623 OFFCURVE",
"486 704 OFFCURVE",
"383 704 CURVE SMOOTH",
"272 704 LINE SMOOTH",
"157 704 OFFCURVE",
"81 636 OFFCURVE",
"81 534 CURVE SMOOTH",
"81 500 LINE SMOOTH",
"81 426 OFFCURVE",
"132 374 OFFCURVE",
"217 359 CURVE SMOOTH",
"421 323 LINE SMOOTH",
"494 311 OFFCURVE",
"537 264 OFFCURVE",
"537 198 CURVE SMOOTH",
"537 164 LINE SMOOTH",
"537 82 OFFCURVE",
"467 28 OFFCURVE",
"363 28 CURVE SMOOTH",
"261 28 LINE SMOOTH",
"168 28 OFFCURVE",
"106 103 OFFCURVE",
"106 215 CURVE",
"70 215 LINE",
"70 82 OFFCURVE",
"146 -6 OFFCURVE",
"261 -6 CURVE SMOOTH"
);
}
);
width = 638;
},
{
associatedMasterId = "020CB1CC-CCFF-4D13-936A-D2256F19E5D3";
layerId = "8A41E671-91F9-4C6A-ACDA-99B8D053A0D5";
width = 600;
},
{
anchors = (
{
name = bottom;
position = "{320, 0}";
},
{
name = top;
position = "{320, 700}";
}
);
background = {
paths = (
{
closed = 1;
nodes = (
"368 -6 LINE SMOOTH",
"495 -6 OFFCURVE",
"584 61 OFFCURVE",
"584 161 CURVE SMOOTH",
"584 205 LINE SMOOTH",
"584 287 OFFCURVE",
"516 351 OFFCURVE",
"417 370 CURVE SMOOTH",
"246 403 LINE SMOOTH",
"184 415 OFFCURVE",
"140 447 OFFCURVE",
"140 488 CURVE SMOOTH",
"140 536 LINE SMOOTH",
"140 598 OFFCURVE",
"193 639 OFFCURVE",
"271 639 CURVE SMOOTH",
"373 639 LINE SMOOTH",
"444 639 OFFCURVE",
"497 587 OFFCURVE",
"497 508 CURVE",
"569 508 LINE",
"569 626 OFFCURVE",
"489 705 OFFCURVE",
"375 705 CURVE SMOOTH",
"269 705 LINE SMOOTH",
"147 705 OFFCURVE",
"66 637 OFFCURVE",
"66 536 CURVE SMOOTH",
"66 488 LINE SMOOTH",
"66 414 OFFCURVE",
"136 356 OFFCURVE",
"236 337 CURVE SMOOTH",
"410 304 LINE SMOOTH",
"469 293 OFFCURVE",
"510 255 OFFCURVE",
"510 205 CURVE SMOOTH",
"510 161 LINE SMOOTH",
"510 100 OFFCURVE",
"448 60 OFFCURVE",
"366 60 CURVE SMOOTH",
"268 60 LINE SMOOTH",
"187 60 OFFCURVE",
"130 120 OFFCURVE",
"130 209 CURVE",
"56 209 LINE",
"56 80 OFFCURVE",
"142 -6 OFFCURVE",
"266 -6 CURVE SMOOTH"
);
}
);
};
layerId = "76C6DC51-463D-4A0C-B694-3EB424048C5D";
paths = (
{
closed = 1;
nodes = (
"368 -6 LINE SMOOTH",
"498 -6 OFFCURVE",
"584 61 OFFCURVE",
"584 161 CURVE SMOOTH",
"584 205 LINE SMOOTH",
"584 288 OFFCURVE",
"522 349 OFFCURVE",
"417 369 CURVE SMOOTH",
"246 402 LINE SMOOTH",
"182 414 OFFCURVE",
"140 449 OFFCURVE",
"140 490 CURVE SMOOTH",
"140 538 LINE SMOOTH",
"140 599 OFFCURVE",
"192 639 OFFCURVE",
"271 639 CURVE SMOOTH",
"373 639 LINE SMOOTH",
"447 639 OFFCURVE",
"497 587 OFFCURVE",
"497 508 CURVE",
"569 508 LINE",
"569 626 OFFCURVE",
"491 705 OFFCURVE",
"375 705 CURVE SMOOTH",
"269 705 LINE SMOOTH",
"147 705 OFFCURVE",
"66 638 OFFCURVE",
"66 538 CURVE SMOOTH",
"66 490 LINE SMOOTH",
"66 417 OFFCURVE",
"134 355 OFFCURVE",
"236 336 CURVE SMOOTH",
"410 303 LINE SMOOTH",
"473 291 OFFCURVE",
"510 255 OFFCURVE",
"510 205 CURVE SMOOTH",
"510 161 LINE SMOOTH",
"510 100 OFFCURVE",
"452 60 OFFCURVE",
"366 60 CURVE SMOOTH",
"268 60 LINE SMOOTH",
"185 60 OFFCURVE",
"130 120 OFFCURVE",
"130 209 CURVE",
"56 209 LINE",
"56 80 OFFCURVE",
"140 -6 OFFCURVE",
"266 -6 CURVE SMOOTH"
);
}
);
width = 639;
}
);
note = S;
unicode = 0053;
},
{
glyphname = T;
lastChange = "2018-03-27 08:41:01 +0000";
layers = (
{
anchors = (
{
name = bottom;
position = "{300, 0}";
},
{
name = center;
position = "{300, 350}";
},
{
name = top;
position = "{300, 700}";
}
);
background = {
paths = (
{
closed = 1;
nodes = (
"262 0 LINE",
"336 0 LINE",
"336 634 LINE",
"561 634 LINE",
"561 700 LINE",
"37 700 LINE",
"37 634 LINE",
"262 634 LINE"
);
}
);
};
layerId = "EA06CE92-4115-4482-8874-2441C279E756";
paths = (
{
closed = 1;
nodes = (
"230 0 LINE",
"368 0 LINE",
"368 578 LINE",
"593 578 LINE",
"593 700 LINE",
"5 700 LINE",
"5 578 LINE",
"230 578 LINE"
);
}
);
width = 598;
},
{
associatedMasterId = "020CB1CC-CCFF-4D13-936A-D2256F19E5D3";
layerId = "8AF6BA7E-4672-4BE4-A9AE-4DB948958C2C";
width = 600;
},
{
associatedMasterId = "020CB1CC-CCFF-4D13-936A-D2256F19E5D3";
layerId = "1ADA52BE-D832-4CC2-881F-BE1D9BDD7F23";
width = 600;
},
{
anchors = (
{
name = bottom;
position = "{300, 0}";
},
{
name = center;
position = "{299, 350}";
},
{
name = top;
position = "{298, 700}";
}
);
layerId = "020CB1CC-CCFF-4D13-936A-D2256F19E5D3";
paths = (
{
closed = 1;
nodes = (
"280 0 LINE",
"316 0 LINE",
"316 668 LINE",
"541 668 LINE",
"541 700 LINE",
"55 700 LINE",
"55 668 LINE",
"280 668 LINE"
);
}
);
width = 596;
},
{
associatedMasterId = "020CB1CC-CCFF-4D13-936A-D2256F19E5D3";
layerId = "285359E2-BB18-4B4D-A366-AA909422BDC7";
width = 600;
},
{
anchors = (
{
name = bottom;
position = "{298, 0}";
},
{
name = center;
position = "{298, 350}";
},
{
name = top;
position = "{298, 700}";
}
);
layerId = "76C6DC51-463D-4A0C-B694-3EB424048C5D";
paths = (
{
closed = 1;
nodes = (
"260 0 LINE",
"334 0 LINE",
"334 636 LINE",
"559 636 LINE",
"559 700 LINE",
"35 700 LINE",
"35 636 LINE",
"260 636 LINE"
);
}
);
width = 594;
}
);
note = T;
unicode = 0054;
},
{
glyphname = U;
lastChange = "2018-03-27 09:53:00 +0000";
layers = (
{
anchors = (
{
name = bottom;
position = "{348, 0}";
},
{
name = ogonek;
position = "{624, 10}";
},
{
name = top;
position = "{348, 700}";
},
{
name = topright;
position = "{673, 700}";
}
);
background = {
paths = (
{
closed = 1;
nodes = (
"72 86 OFFCURVE",
"156 -6 OFFCURVE",
"283 -6 CURVE SMOOTH",
"383 -6 LINE SMOOTH",
"527 -6 OFFCURVE",
"623 102 OFFCURVE",
"623 265 CURVE SMOOTH",
"623 700 LINE",
"549 700 LINE",
"549 265 LINE SMOOTH",
"549 142 OFFCURVE",
"483 60 OFFCURVE",
"383 60 CURVE SMOOTH",
"283 60 LINE SMOOTH",
"201 60 OFFCURVE",
"146 125 OFFCURVE",
"146 223 CURVE SMOOTH",
"146 700 LINE",
"72 700 LINE",
"72 223 LINE SMOOTH"
);
}
);
};
layerId = "EA06CE92-4115-4482-8874-2441C279E756";
paths = (
{
closed = 1;
nodes = (
"40 97 OFFCURVE",
"137 -6 OFFCURVE",
"283 -6 CURVE SMOOTH",
"383 -6 LINE SMOOTH",
"546 -6 OFFCURVE",
"654 114 OFFCURVE",
"654 293 CURVE SMOOTH",
"654 700 LINE",
"516 700 LINE",
"516 293 LINE SMOOTH",
"516 187 OFFCURVE",
"463 116 OFFCURVE",
"383 116 CURVE SMOOTH",
"283 116 LINE SMOOTH",
"220 116 OFFCURVE",
"178 170 OFFCURVE",
"178 251 CURVE SMOOTH",
"178 700 LINE",
"40 700 LINE",
"40 251 LINE SMOOTH"
);
}
);
width = 695;
},
{
associatedMasterId = "020CB1CC-CCFF-4D13-936A-D2256F19E5D3";
layerId = "8AF6BA7E-4672-4BE4-A9AE-4DB948958C2C";
width = 600;
},
{
associatedMasterId = "020CB1CC-CCFF-4D13-936A-D2256F19E5D3";
layerId = "04A8D49C-6E7D-4122-ACF5-C0A4C4E8B37D";
width = 600;
},
{
anchors = (
{
name = bottom;
position = "{337, 0}";
},
{
name = ogonek;
position = "{467, 10}";
},
{
name = top;
position = "{347, 700}";
},
{
name = topright;
position = "{613, 530}";
}
);
background = {
anchors = (
{
name = topright;
position = "{630, 494}";
}
);
};
layerId = "020CB1CC-CCFF-4D13-936A-D2256F19E5D3";
paths = (
{
closed = 1;
nodes = (
"90 79 OFFCURVE",
"167 -6 OFFCURVE",
"282 -6 CURVE SMOOTH",
"382 -6 LINE SMOOTH",
"515 -6 OFFCURVE",
"603 96 OFFCURVE",
"603 248 CURVE SMOOTH",
"603 700 LINE",
"567 700 LINE",
"567 248 LINE SMOOTH",
"567 116 OFFCURVE",
"493 28 OFFCURVE",
"382 28 CURVE SMOOTH",
"282 28 LINE SMOOTH",
"188 28 OFFCURVE",
"126 99 OFFCURVE",
"126 206 CURVE SMOOTH",
"126 700 LINE",
"90 700 LINE",
"90 206 LINE SMOOTH"
);
}
);
width = 693;
},
{
associatedMasterId = "020CB1CC-CCFF-4D13-936A-D2256F19E5D3";
layerId = "DFE83F9F-4A47-4BE5-9843-031C238356D4";
width = 600;
},
{
anchors = (
{
name = bottom;
position = "{344, 0}";
},
{
name = ogonek;
position = "{620, 10}";
},
{
name = top;
position = "{344, 700}";
},
{
name = topright;
position = "{669, 700}";
}
);
background = {
paths = (
{
closed = 1;
nodes = (
"68 86 OFFCURVE",
"156 -6 OFFCURVE",
"289 -6 CURVE SMOOTH",
"397 -6 LINE SMOOTH",
"530 -6 OFFCURVE",
"619 86 OFFCURVE",
"619 223 CURVE SMOOTH",
"619 700 LINE",
"545 700 LINE",
"545 223 LINE SMOOTH",
"545 125 OFFCURVE",
"486 60 OFFCURVE",
"397 60 CURVE SMOOTH",
"289 60 LINE SMOOTH",
"201 60 OFFCURVE",
"142 125 OFFCURVE",
"142 223 CURVE SMOOTH",
"142 700 LINE",
"68 700 LINE",
"68 223 LINE SMOOTH"
);
}
);
};
layerId = "76C6DC51-463D-4A0C-B694-3EB424048C5D";
paths = (
{
closed = 1;
nodes = (
"70 82 OFFCURVE",
"156 -10 OFFCURVE",
"286 -10 CURVE SMOOTH",
"392 -10 LINE SMOOTH",
"525 -10 OFFCURVE",
"614 82 OFFCURVE",
"614 220 CURVE SMOOTH",
"614 700 LINE",
"540 700 LINE",
"540 218 LINE SMOOTH",
"540 121 OFFCURVE",
"481 56 OFFCURVE",
"392 56 CURVE SMOOTH",
"286 56 LINE SMOOTH",
"201 56 OFFCURVE",
"144 121 OFFCURVE",
"144 218 CURVE SMOOTH",
"144 700 LINE",
"70 700 LINE",
"70 220 LINE SMOOTH"
);
}
);
width = 684;
}
);
note = U;
rightMetricsKey = "=|";
unicode = 0055;
},
{
glyphname = V;
lastChange = "2018-03-27 09:17:11 +0000";
layers = (
{
anchors = (
{
name = bottom;
position = "{340, 0}";
},
{
name = top;
position = "{340, 700}";
}
);
background = {
paths = (
{
closed = 1;
nodes = (
"272 18 OFFCURVE",
"305 -6 OFFCURVE",
"356 -6 CURVE SMOOTH",
"396 -6 LINE",
"681 700 LINE",
"535 700 LINE",
"317 121 LINE",
"362 121 LINE",
"145 700 LINE",
"0 700 LINE",
"252 69 LINE SMOOTH"
);
}
);
};
layerId = "EA06CE92-4115-4482-8874-2441C279E756";
paths = (
{
closed = 1;
nodes = (
"270 20 OFFCURVE",
"299 0 OFFCURVE",
"342 0 CURVE SMOOTH",
"400 0 LINE",
"681 700 LINE",
"530 700 LINE",
"317 133 LINE",
"362 133 LINE",
"150 700 LINE",
"0 700 LINE",
"252 65 LINE SMOOTH"
);
}
);
width = 681;
},
{
associatedMasterId = "020CB1CC-CCFF-4D13-936A-D2256F19E5D3";
layerId = "8AF6BA7E-4672-4BE4-A9AE-4DB948958C2C";
width = 600;
},
{
associatedMasterId = "020CB1CC-CCFF-4D13-936A-D2256F19E5D3";
layerId = "00A62930-547E-45E6-9563-288AD30966DA";
width = 600;
},
{
anchors = (
{
name = bottom;
position = "{336, 0}";
},
{
name = top;
position = "{336, 700}";
}
);
background = {
paths = (
{
closed = 1;
nodes = (
"291 8 OFFCURVE",
"301 0 OFFCURVE",
"316 0 CURVE SMOOTH",
"333 0 LINE",
"601 700 LINE",
"563 700 LINE",
"315 43 LINE",
"314 43 LINE",
"68 700 LINE",
"30 700 LINE",
"284 27 LINE SMOOTH"
);
}
);
};
layerId = "020CB1CC-CCFF-4D13-936A-D2256F19E5D3";
paths = (
{
closed = 1;
nodes = (
"311 8 OFFCURVE",
"321 0 OFFCURVE",
"337 0 CURVE SMOOTH",
"353 0 LINE",
"621 700 LINE",
"583 700 LINE",
"335 43 LINE",
"334 43 LINE",
"88 700 LINE",
"50 700 LINE",
"305 25 LINE SMOOTH"
);
}
);
width = 671;
},
{
associatedMasterId = "020CB1CC-CCFF-4D13-936A-D2256F19E5D3";
layerId = "77DA89A1-CCCE-4408-864A-0BBB3FB3CEBC";
width = 600;
},
{
anchors = (
{
name = bottom;
position = "{334, 0}";
},
{
name = top;
position = "{334, 700}";
}
);
layerId = "76C6DC51-463D-4A0C-B694-3EB424048C5D";
paths = (
{
closed = 1;
nodes = (
"290 14 OFFCURVE",
"306 0 OFFCURVE",
"331 0 CURVE SMOOTH",
"369 0 LINE",
"638 700 LINE",
"562 700 LINE",
"334 89 LINE",
"333 89 LINE",
"106 700 LINE",
"30 700 LINE",
"278 46 LINE SMOOTH"
);
}
);
width = 668;
}
);
note = V;
unicode = 0056;
},
{
glyphname = W;
lastChange = "2018-03-19 05:46:53 +0000";
layers = (
{
anchors = (
{
name = bottom;
position = "{411, 0}";
},
{
name = top;
position = "{411, 700}";
}
);
background = {
paths = (
{
closed = 1;
nodes = (
"262 -6 LINE",
"427 497 LINE",
"396 497 LINE",
"559 -6 LINE",
"617 -6 LINE SMOOTH",
"667 -6 OFFCURVE",
"695 19 OFFCURVE",
"705 72 CURVE SMOOTH",
"821 700 LINE",
"681 700 LINE",
"597 159 LINE",
"617 159 LINE",
"483 573 LINE SMOOTH",
"470 614 OFFCURVE",
"448 633 OFFCURVE",
"411 633 CURVE SMOOTH",
"361 633 LINE",
"204 159 LINE",
"224 159 LINE",
"140 700 LINE",
"0 700 LINE",
"115 72 LINE SMOOTH",
"125 19 OFFCURVE",
"153 -6 OFFCURVE",
"204 -6 CURVE SMOOTH"
);
}
);
};
layerId = "EA06CE92-4115-4482-8874-2441C279E756";
paths = (
{
closed = 1;
nodes = (
"262 0 LINE",
"427 497 LINE",
"396 497 LINE",
"559 0 LINE",
"617 0 LINE SMOOTH",
"667 0 OFFCURVE",
"695 25 OFFCURVE",
"705 78 CURVE SMOOTH",
"821 700 LINE",
"681 700 LINE",
"597 159 LINE",
"617 159 LINE",
"483 573 LINE SMOOTH",
"470 614 OFFCURVE",
"448 633 OFFCURVE",
"411 633 CURVE SMOOTH",
"361 633 LINE",
"204 159 LINE",
"224 159 LINE",
"140 700 LINE",
"0 700 LINE",
"115 78 LINE SMOOTH",
"125 25 OFFCURVE",
"153 0 OFFCURVE",
"204 0 CURVE SMOOTH"
);
}
);
width = 821;
},
{
associatedMasterId = "020CB1CC-CCFF-4D13-936A-D2256F19E5D3";
layerId = "8AF6BA7E-4672-4BE4-A9AE-4DB948958C2C";
width = 600;
},
{
associatedMasterId = "020CB1CC-CCFF-4D13-936A-D2256F19E5D3";
layerId = "EE58F0DE-A264-4B0D-9C87-988B92A40C83";
width = 600;
},
{
anchors = (
{
name = bottom;
position = "{408, 0}";
},
{
name = top;
position = "{409, 700}";
}
);
background = {
paths = (
{
closed = 1;
nodes = (
"201 0 LINE",
"389 576 LINE",
"390 576 LINE",
"574 0 LINE",
"590 0 LINE SMOOTH",
"615 0 OFFCURVE",
"625 15 OFFCURVE",
"632 57 CURVE SMOOTH",
"745 700 LINE",
"708 700 LINE",
"596 47 LINE",
"595 47 LINE",
"417 605 LINE SMOOTH",
"410 626 OFFCURVE",
"403 633 OFFCURVE",
"386 633 CURVE SMOOTH",
"371 633 LINE",
"181 43 LINE",
"180 43 LINE",
"67 700 LINE",
"30 700 LINE",
"143 57 LINE SMOOTH",
"150 15 OFFCURVE",
"160 0 OFFCURVE",
"185 0 CURVE SMOOTH"
);
}
);
};
layerId = "020CB1CC-CCFF-4D13-936A-D2256F19E5D3";
paths = (
{
closed = 1;
nodes = (
"220 0 LINE",
"409 580 LINE",
"410 580 LINE",
"595 0 LINE",
"612 0 LINE SMOOTH",
"634 0 OFFCURVE",
"645 13 OFFCURVE",
"650 47 CURVE SMOOTH",
"765 700 LINE",
"728 700 LINE",
"615 47 LINE",
"614 47 LINE",
"437 605 LINE SMOOTH",
"430 625 OFFCURVE",
"421 633 OFFCURVE",
"405 633 CURVE SMOOTH",
"391 633 LINE",
"201 47 LINE",
"200 47 LINE",
"87 700 LINE",
"50 700 LINE",
"165 47 LINE SMOOTH",
"170 13 OFFCURVE",
"181 0 OFFCURVE",
"203 0 CURVE SMOOTH"
);
}
);
width = 815;
},
{
associatedMasterId = "020CB1CC-CCFF-4D13-936A-D2256F19E5D3";
layerId = "D4613C8E-5C0A-4038-AF86-DFE4FF76750C";
width = 600;
},
{
anchors = (
{
name = bottom;
position = "{412, 0}";
},
{
name = top;
position = "{412, 700}";
}
);
layerId = "76C6DC51-463D-4A0C-B694-3EB424048C5D";
paths = (
{
closed = 1;
nodes = (
"237 0 LINE",
"412 528 LINE",
"413 528 LINE",
"584 0 LINE",
"614 0 LINE SMOOTH",
"651 0 OFFCURVE",
"672 20 OFFCURVE",
"680 65 CURVE SMOOTH",
"791 700 LINE",
"716 700 LINE",
"618 94 LINE",
"617 94 LINE",
"458 590 LINE SMOOTH",
"449 619 OFFCURVE",
"434 633 OFFCURVE",
"410 633 CURVE SMOOTH",
"382 633 LINE",
"204 94 LINE",
"203 94 LINE",
"105 700 LINE",
"30 700 LINE",
"141 65 LINE SMOOTH",
"149 20 OFFCURVE",
"170 0 OFFCURVE",
"207 0 CURVE SMOOTH"
);
}
);
width = 819;
}
);
note = W;
unicode = 0057;
},
{
glyphname = X;
lastChange = "2018-03-13 05:33:59 +0000";
layers = (
{
anchors = (
{
name = bottom;
position = "{350, 0}";
},
{
name = top;
position = "{350, 700}";
}
);
background = {
paths = (
{
closed = 1;
nodes = (
"545 -28 LINE",
"704 -28 LINE",
"162 728 LINE",
"3 728 LINE"
);
},
{
closed = 1;
nodes = (
"540 728 LINE",
"-3 -28 LINE",
"156 -28 LINE",
"698 728 LINE"
);
}
);
};
layerId = "EA06CE92-4115-4482-8874-2441C279E756";
paths = (
{
closed = 1;
nodes = (
"524 0 LINE",
"686 0 LINE",
"167 700 LINE",
"5 700 LINE"
);
},
{
closed = 1;
nodes = (
"514 700 LINE",
"15 0 LINE",
"177 0 LINE",
"676 700 LINE"
);
}
);
width = 689;
},
{
associatedMasterId = "020CB1CC-CCFF-4D13-936A-D2256F19E5D3";
layerId = "8AF6BA7E-4672-4BE4-A9AE-4DB948958C2C";
width = 600;
},
{
associatedMasterId = "020CB1CC-CCFF-4D13-936A-D2256F19E5D3";
layerId = "C8580B0E-1BF4-4D55-AF17-8C9DA2D046C0";
width = 600;
},
{
anchors = (
{
name = bottom;
position = "{326, 0}";
},
{
name = top;
position = "{326, 700}";
}
);
background = {
paths = (
{
closed = 1;
nodes = (
"537 0 LINE",
"578 0 LINE",
"88 700 LINE",
"47 700 LINE"
);
},
{
closed = 1;
nodes = (
"537 700 LINE",
"35 0 LINE",
"76 0 LINE",
"578 700 LINE"
);
}
);
};
layerId = "020CB1CC-CCFF-4D13-936A-D2256F19E5D3";
paths = (
{
closed = 1;
nodes = (
"557 0 LINE",
"598 0 LINE",
"108 700 LINE",
"67 700 LINE"
);
},
{
closed = 1;
nodes = (
"557 700 LINE",
"55 0 LINE",
"96 0 LINE",
"598 700 LINE"
);
}
);
width = 653;
},
{
associatedMasterId = "020CB1CC-CCFF-4D13-936A-D2256F19E5D3";
layerId = "2FF14CE7-F819-4A2B-BD21-677EFE24EB59";
width = 600;
},
{
anchors = (
{
name = bottom;
position = "{330, 0}";
},
{
name = top;
position = "{330, 700}";
}
);
layerId = "76C6DC51-463D-4A0C-B694-3EB424048C5D";
paths = (
{
closed = 1;
nodes = (
"543 0 LINE",
"626 0 LINE",
"128 700 LINE",
"45 700 LINE"
);
},
{
closed = 1;
nodes = (
"534 700 LINE",
"35 0 LINE",
"118 0 LINE",
"616 700 LINE"
);
}
);
width = 661;
}
);
note = X;
unicode = 0058;
},
{
glyphname = Y;
lastChange = "2018-03-19 05:48:02 +0000";
layers = (
{
anchors = (
{
name = bottom;
position = "{341, 0}";
},
{
name = top;
position = "{341, 700}";
},
{
name = topleft;
position = "{26, 700}";
}
);
background = {
paths = (
{
closed = 1;
nodes = (
"409 286 LINE",
"700 728 LINE",
"545 728 LINE",
"341 413 LINE",
"136 728 LINE",
"-19 728 LINE",
"272 286 LINE",
"272 0 LINE",
"409 0 LINE"
);
}
);
};
layerId = "EA06CE92-4115-4482-8874-2441C279E756";
paths = (
{
closed = 1;
nodes = (
"409 286 LINE",
"681 700 LINE",
"526 700 LINE",
"341 411 LINE",
"155 700 LINE",
"0 700 LINE",
"272 286 LINE",
"272 0 LINE",
"409 0 LINE"
);
}
);
width = 681;
},
{
associatedMasterId = "020CB1CC-CCFF-4D13-936A-D2256F19E5D3";
layerId = "8AF6BA7E-4672-4BE4-A9AE-4DB948958C2C";
width = 600;
},
{
associatedMasterId = "020CB1CC-CCFF-4D13-936A-D2256F19E5D3";
layerId = "78203ADB-2734-4D0A-84AA-2358D21568A1";
width = 600;
},
{
anchors = (
{
name = bottom;
position = "{333, 0}";
},
{
name = top;
position = "{333, 700}";
},
{
name = topleft;
position = "{18, 700}";
}
);
background = {
paths = (
{
closed = 1;
nodes = (
"330 297 LINE",
"596 700 LINE",
"559 700 LINE",
"313 325 LINE",
"67 700 LINE",
"30 700 LINE",
"296 297 LINE",
"296 0 LINE",
"330 0 LINE"
);
}
);
};
layerId = "020CB1CC-CCFF-4D13-936A-D2256F19E5D3";
paths = (
{
closed = 1;
nodes = (
"351 297 LINE",
"616 700 LINE",
"576 700 LINE",
"333 330 LINE",
"90 700 LINE",
"50 700 LINE",
"315 297 LINE",
"315 0 LINE",
"351 0 LINE"
);
}
);
width = 666;
},
{
associatedMasterId = "020CB1CC-CCFF-4D13-936A-D2256F19E5D3";
layerId = "1A806601-681C-4EEF-8A48-81F6456A8F27";
width = 600;
},
{
anchors = (
{
name = bottom;
position = "{335, 0}";
},
{
name = top;
position = "{335, 700}";
},
{
name = topleft;
position = "{20, 700}";
}
);
layerId = "76C6DC51-463D-4A0C-B694-3EB424048C5D";
paths = (
{
closed = 1;
nodes = (
"371 293 LINE",
"639 700 LINE",
"557 700 LINE",
"335 357 LINE",
"112 700 LINE",
"30 700 LINE",
"298 293 LINE",
"298 0 LINE",
"371 0 LINE"
);
}
);
width = 669;
}
);
note = Y;
unicode = 0059;
},
{
glyphname = Z;
lastChange = "2018-03-27 09:52:03 +0000";
layers = (
{
anchors = (
{
name = bottom;
position = "{303, 0}";
},
{
name = top;
position = "{303, 700}";
}
);
background = {
paths = (
{
closed = 1;
nodes = (
"395 584 LINE",
"10 69 LINE",
"10 0 LINE",
"584 0 LINE",
"584 116 LINE",
"209 116 LINE",
"594 631 LINE",
"594 700 LINE",
"30 700 LINE",
"30 584 LINE"
);
}
);
};
layerId = "EA06CE92-4115-4482-8874-2441C279E756";
paths = (
{
closed = 1;
nodes = (
"395 584 LINE",
"10 69 LINE",
"10 0 LINE",
"584 0 LINE",
"584 116 LINE",
"209 116 LINE",
"594 631 LINE",
"594 700 LINE",
"40 700 LINE",
"40 584 LINE"
);
}
);
width = 604;
},
{
associatedMasterId = "020CB1CC-CCFF-4D13-936A-D2256F19E5D3";
layerId = "8AF6BA7E-4672-4BE4-A9AE-4DB948958C2C";
width = 600;
},
{
associatedMasterId = "020CB1CC-CCFF-4D13-936A-D2256F19E5D3";
layerId = "C63BD5EE-F908-4D10-93B8-728C682AD0C4";
width = 600;
},
{
anchors = (
{
name = bottom;
position = "{312, 0}";
},
{
name = top;
position = "{308, 700}";
}
);
background = {
paths = (
{
closed = 1;
nodes = (
"488 668 LINE",
"60 14 LINE",
"60 0 LINE",
"533 0 LINE",
"533 32 LINE",
"115 32 LINE",
"543 686 LINE",
"543 700 LINE",
"80 700 LINE",
"80 668 LINE"
);
}
);
};
layerId = "020CB1CC-CCFF-4D13-936A-D2256F19E5D3";
paths = (
{
closed = 1;
nodes = (
"488 668 LINE",
"60 14 LINE",
"60 0 LINE",
"533 0 LINE",
"533 32 LINE",
"115 32 LINE",
"543 686 LINE",
"543 700 LINE",
"90 700 LINE",
"90 668 LINE"
);
}
);
width = 603;
},
{
associatedMasterId = "020CB1CC-CCFF-4D13-936A-D2256F19E5D3";
layerId = "2DC570F0-810C-4241-B21D-34E6EBC1CAC4";
width = 600;
},
{
anchors = (
{
name = bottom;
position = "{305, 0}";
},
{
name = top;
position = "{305, 700}";
}
);
layerId = "76C6DC51-463D-4A0C-B694-3EB424048C5D";
paths = (
{
closed = 1;
nodes = (
"551 0 LINE",
"551 64 LINE",
"146 64 LINE",
"561 667 LINE",
"561 700 LINE",
"70 700 LINE",
"70 636 LINE",
"455 636 LINE",
"40 33 LINE",
"40 0 LINE"
);
}
);
width = 601;
}
);
note = Z;
unicode = 005A;
},
{
glyphname = a;
lastChange = "2018-03-27 08:54:29 +0000";
layers = (
{
anchors = (
{
name = bottom;
position = "{274, 0}";
},
{
name = ogonek;
position = "{495, 10}";
},
{
name = top;
position = "{274, 470}";
}
);
background = {
paths = (
{
closed = 1;
nodes = (
"175 94 OFFCURVE",
"152 112 OFFCURVE",
"152 138 CURVE SMOOTH",
"152 158 LINE SMOOTH",
"152 185 OFFCURVE",
"182 203 OFFCURVE",
"226 203 CURVE SMOOTH",
"308 203 LINE SMOOTH",
"330 203 OFFCURVE",
"356 195 OFFCURVE",
"374 183 CURVE",
"374 156 LINE",
"351 119 OFFCURVE",
"307 94 OFFCURVE",
"264 94 CURVE SMOOTH",
"210 94 LINE SMOOTH"
);
},
{
closed = 1;
nodes = (
"166 372 OFFCURVE",
"200 391 OFFCURVE",
"252 391 CURVE SMOOTH",
"312 391 LINE SMOOTH",
"350 391 OFFCURVE",
"376 374 OFFCURVE",
"376 349 CURVE SMOOTH",
"376 285 LINE",
"352 297 OFFCURVE",
"321 307 OFFCURVE",
"298 307 CURVE SMOOTH",
"216 307 LINE SMOOTH",
"98 307 OFFCURVE",
"20 247 OFFCURVE",
"20 158 CURVE SMOOTH",
"20 138 LINE SMOOTH",
"20 49 OFFCURVE",
"92 -10 OFFCURVE",
"200 -10 CURVE SMOOTH",
"254 -10 LINE SMOOTH",
"295 -10 OFFCURVE",
"347 14 OFFCURVE",
"384 54 CURVE",
"384 0 LINE",
"510 0 LINE",
"510 349 LINE SMOOTH",
"510 444 OFFCURVE",
"431 507 OFFCURVE",
"312 507 CURVE SMOOTH",
"252 507 LINE SMOOTH",
"121 507 OFFCURVE",
"34 441 OFFCURVE",
"34 343 CURVE",
"166 343 LINE"
);
}
);
};
layerId = "EA06CE92-4115-4482-8874-2441C279E756";
paths = (
{
closed = 1;
nodes = (
"175 94 OFFCURVE",
"152 112 OFFCURVE",
"152 139 CURVE SMOOTH",
"152 159 LINE SMOOTH",
"152 185 OFFCURVE",
"178 203 OFFCURVE",
"216 203 CURVE SMOOTH",
"308 203 LINE SMOOTH",
"331 203 OFFCURVE",
"358 195 OFFCURVE",
"376 183 CURVE",
"376 156 LINE",
"353 119 OFFCURVE",
"308 94 OFFCURVE",
"264 94 CURVE SMOOTH",
"210 94 LINE SMOOTH"
);
},
{
closed = 1;
nodes = (
"166 372 OFFCURVE",
"200 391 OFFCURVE",
"252 391 CURVE SMOOTH",
"322 391 LINE SMOOTH",
"353 391 OFFCURVE",
"374 369 OFFCURVE",
"374 337 CURVE SMOOTH",
"374 285 LINE",
"348 298 OFFCURVE",
"317 307 OFFCURVE",
"298 307 CURVE SMOOTH",
"206 307 LINE SMOOTH",
"94 307 OFFCURVE",
"20 248 OFFCURVE",
"20 159 CURVE SMOOTH",
"20 139 LINE SMOOTH",
"20 50 OFFCURVE",
"92 -10 OFFCURVE",
"200 -10 CURVE SMOOTH",
"254 -10 LINE SMOOTH",
"296 -10 OFFCURVE",
"348 16 OFFCURVE",
"384 54 CURVE",
"384 0 LINE",
"510 0 LINE",
"510 337 LINE SMOOTH",
"510 439 OFFCURVE",
"435 507 OFFCURVE",
"322 507 CURVE SMOOTH",
"252 507 LINE SMOOTH",
"121 507 OFFCURVE",
"34 441 OFFCURVE",
"34 343 CURVE",
"166 343 LINE"
);
}
);
width = 550;
},
{
associatedMasterId = "020CB1CC-CCFF-4D13-936A-D2256F19E5D3";
layerId = "8AF6BA7E-4672-4BE4-A9AE-4DB948958C2C";
width = 600;
},
{
associatedMasterId = "020CB1CC-CCFF-4D13-936A-D2256F19E5D3";
layerId = "5B92481F-58DA-4C35-AE88-F14D7E26FA98";
width = 600;
},
{
anchors = (
{
name = bottom;
position = "{276, 0}";
},
{
name = ogonek;
position = "{494, 10}";
},
{
name = top;
position = "{276, 470}";
}
);
background = {
paths = (
{
closed = 1;
nodes = (
"126 24 OFFCURVE",
"86 66 OFFCURVE",
"86 128 CURVE SMOOTH",
"86 161 LINE SMOOTH",
"86 223 OFFCURVE",
"140 265 OFFCURVE",
"220 265 CURVE SMOOTH",
"286 265 LINE SMOOTH",
"327 265 OFFCURVE",
"375 245 OFFCURVE",
"405 216 CURVE",
"405 146 LINE",
"381 73 OFFCURVE",
"320 24 OFFCURVE",
"254 24 CURVE SMOOTH",
"187 24 LINE SMOOTH"
);
},
{
closed = 1;
nodes = (
"100 439 OFFCURVE",
"153 473 OFFCURVE",
"232 473 CURVE SMOOTH",
"292 473 LINE SMOOTH",
"360 473 OFFCURVE",
"405 426 OFFCURVE",
"405 356 CURVE SMOOTH",
"405 256 LINE",
"371 282 OFFCURVE",
"324 299 OFFCURVE",
"286 299 CURVE SMOOTH",
"220 299 LINE SMOOTH",
"118 299 OFFCURVE",
"50 244 OFFCURVE",
"50 161 CURVE SMOOTH",
"50 128 LINE SMOOTH",
"50 45 OFFCURVE",
"107 -10 OFFCURVE",
"193 -10 CURVE SMOOTH",
"260 -10 LINE SMOOTH",
"315 -10 OFFCURVE",
"373 26 OFFCURVE",
"405 80 CURVE",
"405 0 LINE",
"441 0 LINE",
"441 356 LINE SMOOTH",
"441 447 OFFCURVE",
"381 507 OFFCURVE",
"292 507 CURVE SMOOTH",
"232 507 LINE SMOOTH",
"131 507 OFFCURVE",
"64 459 OFFCURVE",
"64 388 CURVE",
"100 388 LINE"
);
}
);
};
layerId = "020CB1CC-CCFF-4D13-936A-D2256F19E5D3";
paths = (
{
closed = 1;
nodes = (
"146 24 OFFCURVE",
"106 66 OFFCURVE",
"106 128 CURVE SMOOTH",
"106 161 LINE SMOOTH",
"106 223 OFFCURVE",
"160 265 OFFCURVE",
"240 265 CURVE SMOOTH",
"306 265 LINE SMOOTH",
"347 265 OFFCURVE",
"395 245 OFFCURVE",
"425 216 CURVE",
"425 146 LINE",
"401 73 OFFCURVE",
"341 24 OFFCURVE",
"274 24 CURVE SMOOTH",
"207 24 LINE SMOOTH"
);
},
{
closed = 1;
nodes = (
"120 439 OFFCURVE",
"173 473 OFFCURVE",
"252 473 CURVE SMOOTH",
"312 473 LINE SMOOTH",
"380 473 OFFCURVE",
"425 426 OFFCURVE",
"425 356 CURVE SMOOTH",
"425 256 LINE",
"391 282 OFFCURVE",
"344 299 OFFCURVE",
"306 299 CURVE SMOOTH",
"240 299 LINE SMOOTH",
"138 299 OFFCURVE",
"70 244 OFFCURVE",
"70 161 CURVE SMOOTH",
"70 128 LINE SMOOTH",
"70 45 OFFCURVE",
"127 -10 OFFCURVE",
"213 -10 CURVE SMOOTH",
"280 -10 LINE SMOOTH",
"333 -10 OFFCURVE",
"391 25 OFFCURVE",
"425 78 CURVE",
"425 0 LINE",
"461 0 LINE",
"461 356 LINE SMOOTH",
"461 447 OFFCURVE",
"401 507 OFFCURVE",
"312 507 CURVE SMOOTH",
"252 507 LINE SMOOTH",
"151 507 OFFCURVE",
"84 459 OFFCURVE",
"84 388 CURVE",
"120 388 LINE"
);
}
);
width = 551;
},
{
associatedMasterId = "020CB1CC-CCFF-4D13-936A-D2256F19E5D3";
layerId = "5C24E9B9-E964-4912-947A-BFDB4428E28F";
width = 600;
},
{
anchors = (
{
name = bottom;
position = "{272, 0}";
},
{
name = ogonek;
position = "{491, 10}";
},
{
name = top;
position = "{272, 470}";
}
);
background = {
paths = (
{
closed = 1;
nodes = (
"156 54 OFFCURVE",
"122 84 OFFCURVE",
"122 132 CURVE SMOOTH",
"122 164 LINE SMOOTH",
"122 212 OFFCURVE",
"158 240 OFFCURVE",
"216 240 CURVE SMOOTH",
"280 240 LINE SMOOTH",
"320 240 OFFCURVE",
"378 224 OFFCURVE",
"408 196 CURVE",
"408 161 LINE",
"391 97 OFFCURVE",
"334 54 OFFCURVE",
"272 54 CURVE SMOOTH",
"210 54 LINE SMOOTH"
);
},
{
closed = 1;
nodes = (
"136 414 OFFCURVE",
"175 443 OFFCURVE",
"233 443 CURVE SMOOTH",
"313 443 LINE SMOOTH",
"370 443 OFFCURVE",
"408 405 OFFCURVE",
"408 349 CURVE SMOOTH",
"408 267 LINE",
"375 289 OFFCURVE",
"318 304 OFFCURVE",
"280 304 CURVE SMOOTH",
"216 304 LINE SMOOTH",
"115 304 OFFCURVE",
"50 250 OFFCURVE",
"50 164 CURVE SMOOTH",
"50 132 LINE SMOOTH",
"50 46 OFFCURVE",
"113 -10 OFFCURVE",
"210 -10 CURVE SMOOTH",
"274 -10 LINE SMOOTH",
"325 -10 OFFCURVE",
"377 21 OFFCURVE",
"410 70 CURVE",
"410 0 LINE",
"478 0 LINE",
"478 349 LINE SMOOTH",
"478 444 OFFCURVE",
"412 507 OFFCURVE",
"313 507 CURVE SMOOTH",
"233 507 LINE SMOOTH",
"132 507 OFFCURVE",
"64 453 OFFCURVE",
"64 371 CURVE",
"136 371 LINE"
);
}
);
};
layerId = "76C6DC51-463D-4A0C-B694-3EB424048C5D";
paths = (
{
closed = 1;
nodes = (
"158 54 OFFCURVE",
"122 85 OFFCURVE",
"122 132 CURVE SMOOTH",
"122 164 LINE SMOOTH",
"122 212 OFFCURVE",
"158 240 OFFCURVE",
"216 240 CURVE SMOOTH",
"280 240 LINE SMOOTH",
"330 240 OFFCURVE",
"381 223 OFFCURVE",
"408 198 CURVE",
"408 161 LINE",
"391 97 OFFCURVE",
"336 54 OFFCURVE",
"274 54 CURVE SMOOTH",
"212 54 LINE SMOOTH"
);
},
{
closed = 1;
nodes = (
"136 414 OFFCURVE",
"175 443 OFFCURVE",
"233 443 CURVE SMOOTH",
"313 443 LINE SMOOTH",
"370 443 OFFCURVE",
"408 405 OFFCURVE",
"408 349 CURVE SMOOTH",
"408 266 LINE",
"374 289 OFFCURVE",
"323 304 OFFCURVE",
"280 304 CURVE SMOOTH",
"216 304 LINE SMOOTH",
"115 304 OFFCURVE",
"50 250 OFFCURVE",
"50 164 CURVE SMOOTH",
"50 132 LINE SMOOTH",
"50 47 OFFCURVE",
"115 -10 OFFCURVE",
"212 -10 CURVE SMOOTH",
"272 -10 LINE SMOOTH",
"325 -10 OFFCURVE",
"379 22 OFFCURVE",
"410 70 CURVE",
"410 0 LINE",
"478 0 LINE",
"478 349 LINE SMOOTH",
"478 444 OFFCURVE",
"412 507 OFFCURVE",
"313 507 CURVE SMOOTH",
"233 507 LINE SMOOTH",
"132 507 OFFCURVE",
"64 453 OFFCURVE",
"64 371 CURVE",
"136 371 LINE"
);
}
);
width = 543;
}
);
note = a;
unicode = 0061;
},
{
glyphname = b;
lastChange = "2018-03-27 07:11:28 +0000";
layers = (
{
anchors = (
{
name = bottom;
position = "{276, 0}";
},
{
name = top;
position = "{276, 470}";
}
);
background = {
paths = (
{
closed = 1;
nodes = (
"176 700 LINE",
"40 700 LINE",
"40 0 LINE",
"166 0 LINE",
"166 60 LINE",
"194 18 OFFCURVE",
"237 -10 OFFCURVE",
"278 -10 CURVE SMOOTH",
"336 -10 LINE SMOOTH",
"459 -10 OFFCURVE",
"532 77 OFFCURVE",
"532 225 CURVE SMOOTH",
"532 302 LINE SMOOTH",
"532 431 OFFCURVE",
"462 507 OFFCURVE",
"343 507 CURVE SMOOTH",
"281 507 LINE SMOOTH",
"247 507 OFFCURVE",
"205 489 OFFCURVE",
"176 461 CURVE"
);
},
{
closed = 1;
nodes = (
"176 282 LINE",
"181 345 OFFCURVE",
"223 387 OFFCURVE",
"281 387 CURVE SMOOTH",
"341 387 LINE SMOOTH",
"376 387 OFFCURVE",
"396 355 OFFCURVE",
"396 302 CURVE SMOOTH",
"396 225 LINE SMOOTH",
"396 151 OFFCURVE",
"366 108 OFFCURVE",
"316 108 CURVE SMOOTH",
"258 108 LINE SMOOTH",
"213 108 OFFCURVE",
"180 142 OFFCURVE",
"176 193 CURVE"
);
}
);
};
layerId = "EA06CE92-4115-4482-8874-2441C279E756";
paths = (
{
closed = 1;
nodes = (
"176 700 LINE",
"40 700 LINE",
"40 0 LINE",
"166 0 LINE",
"166 60 LINE",
"194 18 OFFCURVE",
"239 -10 OFFCURVE",
"278 -10 CURVE SMOOTH",
"336 -10 LINE SMOOTH",
"454 -10 OFFCURVE",
"532 80 OFFCURVE",
"532 215 CURVE SMOOTH",
"532 302 LINE SMOOTH",
"532 425 OFFCURVE",
"456 507 OFFCURVE",
"343 507 CURVE SMOOTH",
"281 507 LINE SMOOTH",
"247 507 OFFCURVE",
"205 489 OFFCURVE",
"176 461 CURVE"
);
},
{
closed = 1;
nodes = (
"176 282 LINE",
"181 345 OFFCURVE",
"223 387 OFFCURVE",
"281 387 CURVE SMOOTH",
"341 387 LINE SMOOTH",
"374 387 OFFCURVE",
"396 353 OFFCURVE",
"396 302 CURVE SMOOTH",
"396 215 LINE SMOOTH",
"396 151 OFFCURVE",
"364 108 OFFCURVE",
"316 108 CURVE SMOOTH",
"258 108 LINE SMOOTH",
"213 108 OFFCURVE",
"180 142 OFFCURVE",
"176 193 CURVE"
);
}
);
width = 552;
},
{
associatedMasterId = "020CB1CC-CCFF-4D13-936A-D2256F19E5D3";
layerId = "8AF6BA7E-4672-4BE4-A9AE-4DB948958C2C";
width = 600;
},
{
associatedMasterId = "020CB1CC-CCFF-4D13-936A-D2256F19E5D3";
layerId = "8BF619E7-7D0E-4707-AAD8-EE484C016385";
width = 600;
},
{
anchors = (
{
name = bottom;
position = "{275, 0}";
},
{
name = top;
position = "{275, 470}";
}
);
background = {
paths = (
{
closed = 1;
nodes = (
"106 700 LINE",
"70 700 LINE",
"70 0 LINE",
"106 0 LINE",
"106 67 LINE",
"131 21 OFFCURVE",
"180 -10 OFFCURVE",
"222 -10 CURVE SMOOTH",
"280 -10 LINE SMOOTH",
"388 -10 OFFCURVE",
"460 64 OFFCURVE",
"460 174 CURVE SMOOTH",
"460 347 LINE SMOOTH",
"460 443 OFFCURVE",
"405 507 OFFCURVE",
"323 507 CURVE SMOOTH",
"260 507 LINE SMOOTH",
"200 507 OFFCURVE",
"138 471 OFFCURVE",
"106 416 CURVE"
);
},
{
closed = 1;
nodes = (
"106 314 LINE",
"114 409 OFFCURVE",
"175 473 OFFCURVE",
"260 473 CURVE SMOOTH",
"323 473 LINE SMOOTH",
"384 473 OFFCURVE",
"424 423 OFFCURVE",
"424 347 CURVE SMOOTH",
"424 174 LINE SMOOTH",
"424 84 OFFCURVE",
"366 24 OFFCURVE",
"280 24 CURVE SMOOTH",
"222 24 LINE SMOOTH",
"161 24 OFFCURVE",
"114 80 OFFCURVE",
"106 164 CURVE"
);
}
);
};
layerId = "020CB1CC-CCFF-4D13-936A-D2256F19E5D3";
paths = (
{
closed = 1;
nodes = (
"126 700 LINE",
"90 700 LINE",
"90 0 LINE",
"126 0 LINE",
"126 72 LINE",
"153 24 OFFCURVE",
"200 -10 OFFCURVE",
"242 -10 CURVE SMOOTH",
"300 -10 LINE SMOOTH",
"408 -10 OFFCURVE",
"480 68 OFFCURVE",
"480 184 CURVE SMOOTH",
"480 337 LINE SMOOTH",
"480 439 OFFCURVE",
"425 507 OFFCURVE",
"343 507 CURVE SMOOTH",
"280 507 LINE SMOOTH",
"216 507 OFFCURVE",
"155 471 OFFCURVE",
"126 416 CURVE"
);
},
{
closed = 1;
nodes = (
"126 316 LINE",
"134 410 OFFCURVE",
"196 473 OFFCURVE",
"280 473 CURVE SMOOTH",
"343 473 LINE SMOOTH",
"404 473 OFFCURVE",
"444 419 OFFCURVE",
"444 337 CURVE SMOOTH",
"444 184 LINE SMOOTH",
"444 88 OFFCURVE",
"386 24 OFFCURVE",
"300 24 CURVE SMOOTH",
"242 24 LINE SMOOTH",
"193 24 OFFCURVE",
"132 88 OFFCURVE",
"126 158 CURVE"
);
}
);
width = 550;
},
{
associatedMasterId = "020CB1CC-CCFF-4D13-936A-D2256F19E5D3";
layerId = "C1BC3D3C-3856-4896-B4D7-9B37233578AB";
width = 600;
},
{
anchors = (
{
name = bottom;
position = "{274, 0}";
},
{
name = top;
position = "{274, 470}";
}
);
background = {
paths = (
{
closed = 1;
nodes = (
"332 -10 LINE SMOOTH",
"439 -10 OFFCURVE",
"510 70 OFFCURVE",
"510 189 CURVE SMOOTH",
"510 320 LINE SMOOTH",
"510 432 OFFCURVE",
"442 507 OFFCURVE",
"340 507 CURVE SMOOTH",
"265 507 LINE SMOOTH",
"219 507 OFFCURVE",
"171 485 OFFCURVE",
"142 442 CURVE",
"142 700 LINE",
"70 700 LINE",
"70 0 LINE",
"140 0 LINE",
"140 60 LINE",
"167 18 OFFCURVE",
"215 -10 OFFCURVE",
"259 -10 CURVE SMOOTH"
);
},
{
closed = 1;
nodes = (
"197 54 OFFCURVE",
"147 107 OFFCURVE",
"142 179 CURVE",
"142 305 LINE",
"148 390 OFFCURVE",
"196 443 OFFCURVE",
"265 443 CURVE SMOOTH",
"340 443 LINE SMOOTH",
"399 443 OFFCURVE",
"438 394 OFFCURVE",
"438 320 CURVE SMOOTH",
"438 189 LINE SMOOTH",
"438 108 OFFCURVE",
"396 54 OFFCURVE",
"332 54 CURVE SMOOTH",
"259 54 LINE SMOOTH"
);
}
);
};
layerId = "76C6DC51-463D-4A0C-B694-3EB424048C5D";
paths = (
{
closed = 1;
nodes = (
"333 -10 LINE SMOOTH",
"439 -10 OFFCURVE",
"510 70 OFFCURVE",
"510 189 CURVE SMOOTH",
"510 320 LINE SMOOTH",
"510 432 OFFCURVE",
"442 507 OFFCURVE",
"340 507 CURVE SMOOTH",
"269 507 LINE SMOOTH",
"219 507 OFFCURVE",
"171 483 OFFCURVE",
"142 442 CURVE",
"142 700 LINE",
"70 700 LINE",
"70 0 LINE",
"140 0 LINE",
"140 62 LINE",
"167 21 OFFCURVE",
"221 -10 OFFCURVE",
"265 -10 CURVE SMOOTH"
);
},
{
closed = 1;
nodes = (
"203 54 OFFCURVE",
"146 110 OFFCURVE",
"142 181 CURVE",
"142 305 LINE",
"148 390 OFFCURVE",
"202 443 OFFCURVE",
"271 443 CURVE SMOOTH",
"338 443 LINE SMOOTH",
"398 443 OFFCURVE",
"438 394 OFFCURVE",
"438 320 CURVE SMOOTH",
"438 189 LINE SMOOTH",
"438 108 OFFCURVE",
"395 54 OFFCURVE",
"331 54 CURVE SMOOTH",
"265 54 LINE SMOOTH"
);
}
);
width = 560;
}
);
note = b;
unicode = 0062;
},
{
glyphname = c;
lastChange = "2018-03-27 12:41:22 +0000";
layers = (
{
anchors = (
{
name = bottom;
position = "{264, 0}";
},
{
name = top;
position = "{264, 470}";
}
);
background = {
paths = (
{
closed = 1;
nodes = (
"506 295 LINE",
"521 419 OFFCURVE",
"437 507 OFFCURVE",
"310 507 CURVE SMOOTH",
"240 507 LINE SMOOTH",
"109 507 OFFCURVE",
"20 412 OFFCURVE",
"20 273 CURVE SMOOTH",
"20 199 LINE SMOOTH",
"20 75 OFFCURVE",
"102 -10 OFFCURVE",
"222 -10 CURVE SMOOTH",
"293 -10 LINE SMOOTH",
"431 -10 OFFCURVE",
"523 90 OFFCURVE",
"509 231 CURVE",
"373 231 LINE",
"384 157 OFFCURVE",
"351 110 OFFCURVE",
"293 110 CURVE SMOOTH",
"222 110 LINE SMOOTH",
"182 110 OFFCURVE",
"156 144 OFFCURVE",
"156 199 CURVE SMOOTH",
"156 273 LINE SMOOTH",
"156 344 OFFCURVE",
"190 387 OFFCURVE",
"240 387 CURVE SMOOTH",
"310 387 LINE SMOOTH",
"359 387 OFFCURVE",
"384 351 OFFCURVE",
"371 295 CURVE"
);
}
);
};
layerId = "EA06CE92-4115-4482-8874-2441C279E756";
paths = (
{
closed = 1;
nodes = (
"506 315 LINE",
"506 430 OFFCURVE",
"428 507 OFFCURVE",
"310 507 CURVE SMOOTH",
"240 507 LINE SMOOTH",
"108 507 OFFCURVE",
"20 413 OFFCURVE",
"20 273 CURVE SMOOTH",
"20 199 LINE SMOOTH",
"20 74 OFFCURVE",
"101 -10 OFFCURVE",
"222 -10 CURVE SMOOTH",
"293 -10 LINE SMOOTH",
"422 -10 OFFCURVE",
"508 75 OFFCURVE",
"508 202 CURVE",
"374 202 LINE",
"374 147 OFFCURVE",
"342 110 OFFCURVE",
"293 110 CURVE SMOOTH",
"222 110 LINE SMOOTH",
"182 110 OFFCURVE",
"156 146 OFFCURVE",
"156 199 CURVE SMOOTH",
"156 273 LINE SMOOTH",
"156 341 OFFCURVE",
"190 387 OFFCURVE",
"240 387 CURVE SMOOTH",
"310 387 LINE SMOOTH",
"348 387 OFFCURVE",
"373 358 OFFCURVE",
"373 315 CURVE"
);
}
);
width = 528;
},
{
associatedMasterId = "020CB1CC-CCFF-4D13-936A-D2256F19E5D3";
layerId = "8AF6BA7E-4672-4BE4-A9AE-4DB948958C2C";
width = 600;
},
{
associatedMasterId = "020CB1CC-CCFF-4D13-936A-D2256F19E5D3";
layerId = "9DC488BC-96ED-4399-9AAD-4AA98E01906C";
width = 600;
},
{
anchors = (
{
name = bottom;
position = "{265, 0}";
},
{
name = top;
position = "{265, 470}";
}
);
background = {
paths = (
{
closed = 1;
nodes = (
"437 373 LINE",
"437 453 OFFCURVE",
"378 507 OFFCURVE",
"289 507 CURVE SMOOTH",
"219 507 LINE SMOOTH",
"118 507 OFFCURVE",
"50 431 OFFCURVE",
"50 318 CURVE SMOOTH",
"50 154 LINE SMOOTH",
"50 56 OFFCURVE",
"110 -10 OFFCURVE",
"201 -10 CURVE SMOOTH",
"272 -10 LINE SMOOTH",
"372 -10 OFFCURVE",
"439 58 OFFCURVE",
"439 159 CURVE",
"403 159 LINE",
"403 78 OFFCURVE",
"351 24 OFFCURVE",
"272 24 CURVE SMOOTH",
"201 24 LINE SMOOTH",
"132 24 OFFCURVE",
"86 76 OFFCURVE",
"86 154 CURVE SMOOTH",
"86 318 LINE SMOOTH",
"86 411 OFFCURVE",
"139 473 OFFCURVE",
"219 473 CURVE SMOOTH",
"289 473 LINE SMOOTH",
"356 473 OFFCURVE",
"401 433 OFFCURVE",
"401 373 CURVE"
);
}
);
};
layerId = "020CB1CC-CCFF-4D13-936A-D2256F19E5D3";
paths = (
{
closed = 1;
nodes = (
"457 373 LINE",
"457 453 OFFCURVE",
"398 507 OFFCURVE",
"309 507 CURVE SMOOTH",
"239 507 LINE SMOOTH",
"138 507 OFFCURVE",
"70 431 OFFCURVE",
"70 318 CURVE SMOOTH",
"70 154 LINE SMOOTH",
"70 56 OFFCURVE",
"130 -10 OFFCURVE",
"221 -10 CURVE SMOOTH",
"292 -10 LINE SMOOTH",
"392 -10 OFFCURVE",
"459 58 OFFCURVE",
"459 159 CURVE",
"423 159 LINE",
"423 78 OFFCURVE",
"371 24 OFFCURVE",
"292 24 CURVE SMOOTH",
"221 24 LINE SMOOTH",
"152 24 OFFCURVE",
"106 76 OFFCURVE",
"106 154 CURVE SMOOTH",
"106 318 LINE SMOOTH",
"106 411 OFFCURVE",
"159 473 OFFCURVE",
"239 473 CURVE SMOOTH",
"309 473 LINE SMOOTH",
"376 473 OFFCURVE",
"421 433 OFFCURVE",
"421 373 CURVE"
);
}
);
width = 529;
},
{
associatedMasterId = "020CB1CC-CCFF-4D13-936A-D2256F19E5D3";
layerId = "587A334F-709E-4469-A54C-3553B06EC754";
width = 600;
},
{
anchors = (
{
name = bottom;
position = "{275, 0}";
},
{
name = top;
position = "{275, 470}";
}
);
background = {
paths = (
{
closed = 1;
nodes = (
"314 -10 LINE SMOOTH",
"419 -10 OFFCURVE",
"488 64 OFFCURVE",
"488 175 CURVE",
"418 175 LINE",
"418 102 OFFCURVE",
"376 54 OFFCURVE",
"314 54 CURVE SMOOTH",
"232 54 LINE SMOOTH",
"167 54 OFFCURVE",
"124 101 OFFCURVE",
"124 171 CURVE SMOOTH",
"124 316 LINE SMOOTH",
"124 392 OFFCURVE",
"167 443 OFFCURVE",
"232 443 CURVE SMOOTH",
"314 443 LINE SMOOTH",
"376 443 OFFCURVE",
"413 406 OFFCURVE",
"413 351 CURVE",
"483 351 LINE",
"483 445 OFFCURVE",
"418 507 OFFCURVE",
"314 507 CURVE SMOOTH",
"232 507 LINE SMOOTH",
"124 507 OFFCURVE",
"52 431 OFFCURVE",
"52 316 CURVE SMOOTH",
"52 171 LINE SMOOTH",
"52 62 OFFCURVE",
"124 -10 OFFCURVE",
"232 -10 CURVE SMOOTH"
);
}
);
};
layerId = "76C6DC51-463D-4A0C-B694-3EB424048C5D";
paths = (
{
closed = 1;
nodes = (
"314 -10 LINE SMOOTH",
"420 -10 OFFCURVE",
"490 64 OFFCURVE",
"490 175 CURVE",
"420 175 LINE",
"420 102 OFFCURVE",
"378 54 OFFCURVE",
"314 54 CURVE SMOOTH",
"234 54 LINE SMOOTH",
"168 54 OFFCURVE",
"122 101 OFFCURVE",
"122 171 CURVE SMOOTH",
"122 316 LINE SMOOTH",
"122 392 OFFCURVE",
"166 443 OFFCURVE",
"232 443 CURVE SMOOTH",
"312 443 LINE SMOOTH",
"373 443 OFFCURVE",
"415 406 OFFCURVE",
"415 351 CURVE",
"485 351 LINE",
"485 445 OFFCURVE",
"415 507 OFFCURVE",
"312 507 CURVE SMOOTH",
"232 507 LINE SMOOTH",
"123 507 OFFCURVE",
"50 431 OFFCURVE",
"50 316 CURVE SMOOTH",
"50 171 LINE SMOOTH",
"50 62 OFFCURVE",
"125 -10 OFFCURVE",
"234 -10 CURVE SMOOTH"
);
}
);
width = 535;
}
);
note = c;
unicode = 0063;
},
{
glyphname = d;
lastChange = "2018-03-27 10:16:05 +0000";
layers = (
{
anchors = (
{
name = bottom;
position = "{276, 0}";
},
{
name = center;
position = "{276, 235}";
},
{
name = top;
position = "{276, 470}";
},
{
name = topright;
position = "{530, 470}";
}
);
background = {
anchors = (
{
name = bottom;
position = "{276, 0}";
},
{
name = center;
position = "{276, 235}";
},
{
name = top;
position = "{276, 470}";
},
{
name = topright;
position = "{530, 470}";
}
);
paths = (
{
closed = 1;
nodes = (
"261 -10 LINE SMOOTH",
"308 -10 OFFCURVE",
"358 18 OFFCURVE",
"386 60 CURVE",
"386 0 LINE",
"512 0 LINE",
"512 700 LINE",
"376 700 LINE",
"376 461 LINE",
"354 489 OFFCURVE",
"317 507 OFFCURVE",
"283 507 CURVE SMOOTH",
"225 507 LINE SMOOTH",
"102 507 OFFCURVE",
"20 419 OFFCURVE",
"20 286 CURVE SMOOTH",
"20 175 LINE SMOOTH",
"20 64 OFFCURVE",
"88 -10 OFFCURVE",
"189 -10 CURVE SMOOTH"
);
},
{
closed = 1;
nodes = (
"182 108 OFFCURVE",
"156 135 OFFCURVE",
"156 175 CURVE SMOOTH",
"156 286 LINE SMOOTH",
"156 348 OFFCURVE",
"192 389 OFFCURVE",
"245 389 CURVE SMOOTH",
"297 389 LINE SMOOTH",
"340 389 OFFCURVE",
"372 357 OFFCURVE",
"376 310 CURVE",
"376 215 LINE",
"371 151 OFFCURVE",
"329 108 OFFCURVE",
"271 108 CURVE SMOOTH",
"217 108 LINE SMOOTH"
);
}
);
};
layerId = "EA06CE92-4115-4482-8874-2441C279E756";
paths = (
{
closed = 1;
nodes = (
"261 -10 LINE SMOOTH",
"308 -10 OFFCURVE",
"358 18 OFFCURVE",
"386 60 CURVE",
"386 0 LINE",
"512 0 LINE",
"512 700 LINE",
"376 700 LINE",
"376 461 LINE",
"354 489 OFFCURVE",
"317 507 OFFCURVE",
"283 507 CURVE SMOOTH",
"225 507 LINE SMOOTH",
"102 507 OFFCURVE",
"20 419 OFFCURVE",
"20 286 CURVE SMOOTH",
"20 175 LINE SMOOTH",
"20 64 OFFCURVE",
"88 -10 OFFCURVE",
"189 -10 CURVE SMOOTH"
);
},
{
closed = 1;
nodes = (
"180 108 OFFCURVE",
"156 135 OFFCURVE",
"156 175 CURVE SMOOTH",
"156 286 LINE SMOOTH",
"156 348 OFFCURVE",
"192 389 OFFCURVE",
"245 389 CURVE SMOOTH",
"297 389 LINE SMOOTH",
"340 389 OFFCURVE",
"372 357 OFFCURVE",
"376 310 CURVE",
"376 215 LINE",
"371 151 OFFCURVE",
"329 108 OFFCURVE",
"271 108 CURVE SMOOTH",
"217 108 LINE SMOOTH"
);
}
);
width = 552;
},
{
associatedMasterId = "020CB1CC-CCFF-4D13-936A-D2256F19E5D3";
layerId = "8AF6BA7E-4672-4BE4-A9AE-4DB948958C2C";
width = 600;
},
{
associatedMasterId = "020CB1CC-CCFF-4D13-936A-D2256F19E5D3";
layerId = "E1356629-3779-458F-8D54-D9ED906A4909";
width = 600;
},
{
anchors = (
{
name = bottom;
position = "{275, -141}";
},
{
name = center;
position = "{275, 376}";
},
{
name = top;
position = "{275, 470}";
},
{
name = topright;
position = "{529, 470}";
}
);
background = {
paths = (
{
closed = 1;
nodes = (
"252 -10 LINE SMOOTH",
"309 -10 OFFCURVE",
"370 28 OFFCURVE",
"404 86 CURVE",
"404 0 LINE",
"440 0 LINE",
"440 700 LINE",
"404 700 LINE",
"404 438 LINE",
"380 479 OFFCURVE",
"337 507 OFFCURVE",
"298 507 CURVE SMOOTH",
"238 507 LINE SMOOTH",
"125 507 OFFCURVE",
"50 424 OFFCURVE",
"50 299 CURVE SMOOTH",
"50 162 LINE SMOOTH",
"50 59 OFFCURVE",
"107 -10 OFFCURVE",
"192 -10 CURVE SMOOTH"
);
},
{
closed = 1;
nodes = (
"128 24 OFFCURVE",
"86 79 OFFCURVE",
"86 162 CURVE SMOOTH",
"86 299 LINE SMOOTH",
"86 403 OFFCURVE",
"147 473 OFFCURVE",
"238 473 CURVE SMOOTH",
"298 473 LINE SMOOTH",
"346 473 OFFCURVE",
"388 428 OFFCURVE",
"404 360 CURVE",
"404 156 LINE",
"377 77 OFFCURVE",
"316 24 OFFCURVE",
"252 24 CURVE SMOOTH",
"192 24 LINE SMOOTH"
);
}
);
};
layerId = "020CB1CC-CCFF-4D13-936A-D2256F19E5D3";
paths = (
{
closed = 1;
nodes = (
"272 -10 LINE SMOOTH",
"327 -10 OFFCURVE",
"388 26 OFFCURVE",
"424 80 CURVE",
"424 0 LINE",
"460 0 LINE",
"460 700 LINE",
"424 700 LINE",
"424 438 LINE",
"400 479 OFFCURVE",
"357 507 OFFCURVE",
"318 507 CURVE SMOOTH",
"258 507 LINE SMOOTH",
"145 507 OFFCURVE",
"70 424 OFFCURVE",
"70 299 CURVE SMOOTH",
"70 162 LINE SMOOTH",
"70 59 OFFCURVE",
"127 -10 OFFCURVE",
"212 -10 CURVE SMOOTH"
);
},
{
closed = 1;
nodes = (
"148 24 OFFCURVE",
"106 79 OFFCURVE",
"106 162 CURVE SMOOTH",
"106 299 LINE SMOOTH",
"106 403 OFFCURVE",
"167 473 OFFCURVE",
"258 473 CURVE SMOOTH",
"318 473 LINE SMOOTH",
"365 473 OFFCURVE",
"408 428 OFFCURVE",
"424 360 CURVE",
"424 142 LINE",
"395 71 OFFCURVE",
"334 24 OFFCURVE",
"272 24 CURVE SMOOTH",
"212 24 LINE SMOOTH"
);
}
);
width = 550;
},
{
associatedMasterId = "020CB1CC-CCFF-4D13-936A-D2256F19E5D3";
layerId = "2582ADA2-ACE0-473E-9BD3-8A8BC2931528";
width = 600;
},
{
anchors = (
{
name = bottom;
position = "{274, 0}";
},
{
name = center;
position = "{274, 235}";
},
{
name = top;
position = "{274, 470}";
},
{
name = topright;
position = "{528, 470}";
}
);
background = {
paths = (
{
closed = 1;
nodes = (
"295 -10 LINE SMOOTH",
"340 -10 OFFCURVE",
"390 22 OFFCURVE",
"420 71 CURVE",
"420 0 LINE",
"490 0 LINE",
"490 700 LINE",
"418 700 LINE",
"418 447 LINE",
"394 483 OFFCURVE",
"348 507 OFFCURVE",
"303 507 CURVE SMOOTH",
"227 507 LINE SMOOTH",
"120 507 OFFCURVE",
"48 425 OFFCURVE",
"48 303 CURVE SMOOTH",
"48 176 LINE SMOOTH",
"48 64 OFFCURVE",
"116 -10 OFFCURVE",
"219 -10 CURVE SMOOTH"
);
},
{
closed = 1;
nodes = (
"160 54 OFFCURVE",
"120 103 OFFCURVE",
"120 176 CURVE SMOOTH",
"120 303 LINE SMOOTH",
"120 387 OFFCURVE",
"163 443 OFFCURVE",
"227 443 CURVE SMOOTH",
"303 443 LINE SMOOTH",
"363 443 OFFCURVE",
"409 395 OFFCURVE",
"418 324 CURVE",
"418 187 LINE",
"399 107 OFFCURVE",
"350 54 OFFCURVE",
"295 54 CURVE SMOOTH",
"219 54 LINE SMOOTH"
);
}
);
};
layerId = "76C6DC51-463D-4A0C-B694-3EB424048C5D";
paths = (
{
closed = 1;
nodes = (
"120 303 LINE SMOOTH",
"120 387 OFFCURVE",
"164 443 OFFCURVE",
"229 443 CURVE SMOOTH",
"301 443 LINE SMOOTH",
"362 443 OFFCURVE",
"409 395 OFFCURVE",
"418 324 CURVE",
"418 196 LINE",
"413 125 OFFCURVE",
"354 54 OFFCURVE",
"287 54 CURVE SMOOTH",
"222 54 LINE SMOOTH",
"162 54 OFFCURVE",
"120 105 OFFCURVE",
"120 181 CURVE SMOOTH"
);
},
{
closed = 1;
nodes = (
"48 66 OFFCURVE",
"117 -10 OFFCURVE",
"220 -10 CURVE SMOOTH",
"289 -10 LINE SMOOTH",
"336 -10 OFFCURVE",
"389 23 OFFCURVE",
"420 72 CURVE",
"420 0 LINE",
"490 0 LINE",
"490 700 LINE",
"418 700 LINE",
"418 447 LINE",
"394 483 OFFCURVE",
"348 507 OFFCURVE",
"303 507 CURVE SMOOTH",
"227 507 LINE SMOOTH",
"120 507 OFFCURVE",
"48 425 OFFCURVE",
"48 303 CURVE SMOOTH",
"48 181 LINE SMOOTH"
);
}
);
width = 560;
}
);
note = d;
unicode = 0064;
},
{
glyphname = e;
lastChange = "2018-03-27 07:51:37 +0000";
layers = (
{
anchors = (
{
name = bottom;
position = "{269, 0}";
},
{
name = ogonek;
position = "{483, 10}";
},
{
name = top;
position = "{269, 470}";
}
);
background = {
paths = (
{
closed = 1;
nodes = (
"382 233 LINE",
"518 233 LINE",
"518 298 LINE SMOOTH",
"518 423 OFFCURVE",
"436 507 OFFCURVE",
"312 507 CURVE SMOOTH",
"240 507 LINE SMOOTH",
"108 507 OFFCURVE",
"20 413 OFFCURVE",
"20 273 CURVE SMOOTH",
"20 199 LINE SMOOTH",
"20 74 OFFCURVE",
"101 -10 OFFCURVE",
"222 -10 CURVE SMOOTH",
"293 -10 LINE SMOOTH",
"426 -10 OFFCURVE",
"514 63 OFFCURVE",
"514 173 CURVE",
"378 173 LINE",
"378 135 OFFCURVE",
"344 110 OFFCURVE",
"293 110 CURVE SMOOTH",
"222 110 LINE SMOOTH",
"182 110 OFFCURVE",
"156 146 OFFCURVE",
"156 199 CURVE SMOOTH",
"156 273 LINE SMOOTH",
"156 341 OFFCURVE",
"190 387 OFFCURVE",
"240 387 CURVE SMOOTH",
"312 387 LINE SMOOTH",
"354 387 OFFCURVE",
"382 351 OFFCURVE",
"382 298 CURVE SMOOTH"
);
},
{
closed = 1;
nodes = (
"31 211 LINE",
"518 211 LINE",
"518 301 LINE",
"31 301 LINE"
);
}
);
};
layerId = "EA06CE92-4115-4482-8874-2441C279E756";
paths = (
{
closed = 1;
nodes = (
"384 233 LINE",
"518 233 LINE",
"518 298 LINE SMOOTH",
"518 423 OFFCURVE",
"436 507 OFFCURVE",
"312 507 CURVE SMOOTH",
"240 507 LINE SMOOTH",
"108 507 OFFCURVE",
"20 413 OFFCURVE",
"20 273 CURVE SMOOTH",
"20 199 LINE SMOOTH",
"20 74 OFFCURVE",
"101 -10 OFFCURVE",
"222 -10 CURVE SMOOTH",
"293 -10 LINE SMOOTH",
"426 -10 OFFCURVE",
"514 60 OFFCURVE",
"514 165 CURVE",
"380 165 LINE",
"380 130 OFFCURVE",
"345 106 OFFCURVE",
"293 106 CURVE SMOOTH",
"222 106 LINE SMOOTH",
"181 106 OFFCURVE",
"154 143 OFFCURVE",
"154 199 CURVE SMOOTH",
"154 273 LINE SMOOTH",
"154 344 OFFCURVE",
"188 391 OFFCURVE",
"240 391 CURVE SMOOTH",
"312 391 LINE SMOOTH",
"355 391 OFFCURVE",
"384 354 OFFCURVE",
"384 298 CURVE SMOOTH"
);
},
{
closed = 1;
nodes = (
"31 211 LINE",
"518 211 LINE",
"518 299 LINE",
"31 299 LINE"
);
}
);
width = 538;
},
{
associatedMasterId = "020CB1CC-CCFF-4D13-936A-D2256F19E5D3";
layerId = "8AF6BA7E-4672-4BE4-A9AE-4DB948958C2C";
width = 600;
},
{
associatedMasterId = "020CB1CC-CCFF-4D13-936A-D2256F19E5D3";
layerId = "341EC5D8-9ECE-4B25-808D-61F6DF56EA64";
width = 600;
},
{
anchors = (
{
name = bottom;
position = "{268, 0}";
},
{
name = ogonek;
position = "{482, 10}";
},
{
name = top;
position = "{268, 470}";
}
);
background = {
paths = (
{
closed = 1;
nodes = (
"410 278 LINE",
"446 278 LINE",
"446 343 LINE SMOOTH",
"446 442 OFFCURVE",
"383 507 OFFCURVE",
"291 507 CURVE SMOOTH",
"219 507 LINE SMOOTH",
"117 507 OFFCURVE",
"50 432 OFFCURVE",
"50 318 CURVE SMOOTH",
"50 154 LINE SMOOTH",
"50 55 OFFCURVE",
"110 -10 OFFCURVE",
"201 -10 CURVE SMOOTH",
"272 -10 LINE SMOOTH",
"376 -10 OFFCURVE",
"445 60 OFFCURVE",
"445 165 CURVE",
"409 165 LINE",
"409 79 OFFCURVE",
"356 24 OFFCURVE",
"272 24 CURVE SMOOTH",
"201 24 LINE SMOOTH",
"131 24 OFFCURVE",
"86 76 OFFCURVE",
"86 154 CURVE SMOOTH",
"86 318 LINE SMOOTH",
"86 411 OFFCURVE",
"138 473 OFFCURVE",
"219 473 CURVE SMOOTH",
"291 473 LINE SMOOTH",
"363 473 OFFCURVE",
"410 421 OFFCURVE",
"410 343 CURVE"
);
},
{
closed = 1;
nodes = (
"61 256 LINE",
"446 256 LINE",
"446 302 LINE",
"61 302 LINE"
);
}
);
};
layerId = "020CB1CC-CCFF-4D13-936A-D2256F19E5D3";
paths = (
{
closed = 1;
nodes = (
"430 278 LINE",
"466 278 LINE",
"466 343 LINE SMOOTH",
"466 441 OFFCURVE",
"404 507 OFFCURVE",
"311 507 CURVE SMOOTH",
"239 507 LINE SMOOTH",
"138 507 OFFCURVE",
"70 431 OFFCURVE",
"70 318 CURVE SMOOTH",
"70 154 LINE SMOOTH",
"70 56 OFFCURVE",
"130 -10 OFFCURVE",
"221 -10 CURVE SMOOTH",
"292 -10 LINE SMOOTH",
"395 -10 OFFCURVE",
"464 60 OFFCURVE",
"464 165 CURVE",
"428 165 LINE",
"428 80 OFFCURVE",
"374 24 OFFCURVE",
"292 24 CURVE SMOOTH",
"221 24 LINE SMOOTH",
"152 24 OFFCURVE",
"106 76 OFFCURVE",
"106 154 CURVE SMOOTH",
"106 318 LINE SMOOTH",
"106 411 OFFCURVE",
"159 473 OFFCURVE",
"239 473 CURVE SMOOTH",
"311 473 LINE SMOOTH",
"382 473 OFFCURVE",
"430 421 OFFCURVE",
"430 343 CURVE"
);
},
{
closed = 1;
nodes = (
"81 256 LINE",
"466 256 LINE",
"466 290 LINE",
"81 290 LINE"
);
}
);
width = 536;
},
{
associatedMasterId = "020CB1CC-CCFF-4D13-936A-D2256F19E5D3";
layerId = "8C537367-385B-439A-AA90-55BFD8E9B844";
width = 600;
},
{
anchors = (
{
name = bottom;
position = "{266, 0}";
},
{
name = ogonek;
position = "{480, 10}";
},
{
name = top;
position = "{266, 470}";
}
);
background = {
paths = (
{
closed = 1;
nodes = (
"307 -10 LINE SMOOTH",
"411 -10 OFFCURVE",
"481 60 OFFCURVE",
"481 165 CURVE",
"410 165 LINE",
"410 98 OFFCURVE",
"368 54 OFFCURVE",
"307 54 CURVE SMOOTH",
"231 54 LINE SMOOTH",
"165 54 OFFCURVE",
"121 101 OFFCURVE",
"121 171 CURVE SMOOTH",
"121 301 LINE SMOOTH",
"121 390 OFFCURVE",
"163 443 OFFCURVE",
"235 443 CURVE SMOOTH",
"307 443 LINE SMOOTH",
"368 443 OFFCURVE",
"411 396 OFFCURVE",
"411 326 CURVE SMOOTH",
"411 261 LINE",
"483 261 LINE",
"483 326 LINE SMOOTH",
"483 435 OFFCURVE",
"411 507 OFFCURVE",
"307 507 CURVE SMOOTH",
"235 507 LINE SMOOTH",
"119 507 OFFCURVE",
"49 425 OFFCURVE",
"49 301 CURVE SMOOTH",
"49 171 LINE SMOOTH",
"49 62 OFFCURVE",
"122 -10 OFFCURVE",
"231 -10 CURVE SMOOTH"
);
},
{
closed = 1;
nodes = (
"483 231 LINE",
"483 293 LINE",
"60 293 LINE",
"60 231 LINE"
);
}
);
};
layerId = "76C6DC51-463D-4A0C-B694-3EB424048C5D";
paths = (
{
closed = 1;
nodes = (
"492 233 LINE",
"492 295 LINE",
"61 295 LINE",
"61 233 LINE"
);
},
{
closed = 1;
nodes = (
"310 -10 LINE SMOOTH",
"418 -10 OFFCURVE",
"490 56 OFFCURVE",
"490 155 CURVE",
"420 155 LINE",
"420 94 OFFCURVE",
"377 54 OFFCURVE",
"310 54 CURVE SMOOTH",
"236 54 LINE SMOOTH",
"166 54 OFFCURVE",
"122 101 OFFCURVE",
"122 171 CURVE SMOOTH",
"122 316 LINE SMOOTH",
"122 392 OFFCURVE",
"166 443 OFFCURVE",
"236 443 CURVE SMOOTH",
"316 443 LINE SMOOTH",
"380 443 OFFCURVE",
"420 394 OFFCURVE",
"420 321 CURVE SMOOTH",
"420 281 LINE",
"492 281 LINE",
"492 321 LINE SMOOTH",
"492 433 OFFCURVE",
"422 507 OFFCURVE",
"316 507 CURVE SMOOTH",
"236 507 LINE SMOOTH",
"124 507 OFFCURVE",
"50 431 OFFCURVE",
"50 316 CURVE SMOOTH",
"50 171 LINE SMOOTH",
"50 62 OFFCURVE",
"124 -10 OFFCURVE",
"236 -10 CURVE SMOOTH"
);
}
);
width = 542;
}
);
note = e;
unicode = 0065;
},
{
glyphname = f;
lastChange = "2018-03-13 05:33:59 +0000";
layers = (
{
anchors = (
{
name = bottom;
position = "{167, 0}";
},
{
name = top;
position = "{167, 470}";
}
);
background = {
paths = (
{
closed = 1;
nodes = (
"190 0 LINE",
"190 437 LINE",
"310 437 LINE",
"310 501 LINE",
"190 501 LINE",
"190 538 LINE SMOOTH",
"190 609 OFFCURVE",
"219 642 OFFCURVE",
"283 642 CURVE SMOOTH",
"321 642 LINE",
"321 704 LINE",
"283 704 LINE SMOOTH",
"175 704 OFFCURVE",
"118 647 OFFCURVE",
"118 538 CURVE SMOOTH",
"118 501 LINE",
"32 501 LINE",
"32 437 LINE",
"118 437 LINE",
"118 0 LINE"
);
}
);
};
layerId = "EA06CE92-4115-4482-8874-2441C279E756";
paths = (
{
closed = 1;
nodes = (
"222 0 LINE",
"222 383 LINE",
"342 383 LINE",
"342 501 LINE",
"222 501 LINE",
"222 511 LINE SMOOTH",
"222 564 OFFCURVE",
"241 588 OFFCURVE",
"283 588 CURVE SMOOTH",
"353 588 LINE",
"353 704 LINE",
"283 704 LINE SMOOTH",
"154 704 OFFCURVE",
"86 638 OFFCURVE",
"86 511 CURVE SMOOTH",
"86 501 LINE",
"0 501 LINE",
"0 383 LINE",
"86 383 LINE",
"86 0 LINE"
);
}
);
width = 353;
},
{
associatedMasterId = "020CB1CC-CCFF-4D13-936A-D2256F19E5D3";
layerId = "8AF6BA7E-4672-4BE4-A9AE-4DB948958C2C";
width = 600;
},
{
associatedMasterId = "020CB1CC-CCFF-4D13-936A-D2256F19E5D3";
layerId = "B33D8315-4E2D-432F-81CC-4B4588C953F3";
width = 600;
},
{
anchors = (
{
name = bottom;
position = "{163, 0}";
},
{
name = top;
position = "{163, 470}";
}
);
background = {
paths = (
{
closed = 1;
nodes = (
"147 0 LINE",
"147 467 LINE",
"267 467 LINE",
"267 501 LINE",
"147 501 LINE",
"147 554 LINE SMOOTH",
"147 638 OFFCURVE",
"178 672 OFFCURVE",
"258 672 CURVE SMOOTH",
"278 672 LINE",
"278 704 LINE",
"258 704 LINE SMOOTH",
"157 704 OFFCURVE",
"111 657 OFFCURVE",
"111 554 CURVE SMOOTH",
"111 501 LINE",
"25 501 LINE",
"25 467 LINE",
"111 467 LINE",
"111 0 LINE"
);
}
);
};
layerId = "020CB1CC-CCFF-4D13-936A-D2256F19E5D3";
paths = (
{
closed = 1;
nodes = (
"167 0 LINE",
"167 467 LINE",
"287 467 LINE",
"287 501 LINE",
"167 501 LINE",
"167 554 LINE SMOOTH",
"167 638 OFFCURVE",
"199 672 OFFCURVE",
"278 672 CURVE SMOOTH",
"298 672 LINE",
"298 704 LINE",
"278 704 LINE SMOOTH",
"177 704 OFFCURVE",
"131 657 OFFCURVE",
"131 554 CURVE SMOOTH",
"131 501 LINE",
"45 501 LINE",
"45 467 LINE",
"131 467 LINE",
"131 0 LINE"
);
}
);
width = 323;
},
{
associatedMasterId = "020CB1CC-CCFF-4D13-936A-D2256F19E5D3";
layerId = "54995933-DB9F-46B4-9B9C-949F3ED27267";
width = 600;
},
{
anchors = (
{
name = bottom;
position = "{160, 0}";
},
{
name = top;
position = "{160, 470}";
}
);
layerId = "76C6DC51-463D-4A0C-B694-3EB424048C5D";
paths = (
{
closed = 1;
nodes = (
"183 0 LINE",
"183 437 LINE",
"303 437 LINE",
"303 501 LINE",
"183 501 LINE",
"183 538 LINE SMOOTH",
"183 609 OFFCURVE",
"212 642 OFFCURVE",
"276 642 CURVE SMOOTH",
"314 642 LINE",
"314 704 LINE",
"276 704 LINE SMOOTH",
"168 704 OFFCURVE",
"111 647 OFFCURVE",
"111 538 CURVE SMOOTH",
"111 501 LINE",
"25 501 LINE",
"25 437 LINE",
"111 437 LINE",
"111 0 LINE"
);
}
);
width = 319;
}
);
note = f;
unicode = 0066;
},
{
glyphname = g;
lastChange = "2018-03-27 07:55:28 +0000";
layers = (
{
anchors = (
{
name = bottom;
position = "{276, 0}";
},
{
name = top;
position = "{276, 470}";
}
);
background = {
paths = (
{
closed = 1;
nodes = (
"378 507 LINE",
"378 493 LINE",
"357 506 OFFCURVE",
"334 513 OFFCURVE",
"312 513 CURVE SMOOTH",
"250 513 LINE SMOOTH",
"113 513 OFFCURVE",
"20 416 OFFCURVE",
"20 272 CURVE SMOOTH",
"20 195 LINE SMOOTH",
"20 73 OFFCURVE",
"97 -10 OFFCURVE",
"209 -10 CURVE SMOOTH",
"271 -10 LINE SMOOTH",
"307 -10 OFFCURVE",
"344 2 OFFCURVE",
"376 24 CURVE",
"376 -8 LINE SMOOTH",
"376 -71 OFFCURVE",
"341 -111 OFFCURVE",
"286 -111 CURVE SMOOTH",
"227 -111 LINE SMOOTH",
"194 -111 OFFCURVE",
"172 -83 OFFCURVE",
"175 -38 CURVE",
"39 -38 LINE",
"34 -149 OFFCURVE",
"115 -229 OFFCURVE",
"227 -229 CURVE SMOOTH",
"286 -229 LINE SMOOTH",
"420 -229 OFFCURVE",
"512 -139 OFFCURVE",
"512 -8 CURVE SMOOTH",
"512 507 LINE"
);
},
{
closed = 1;
nodes = (
"156 346 OFFCURVE",
"193 393 OFFCURVE",
"250 393 CURVE SMOOTH",
"307 393 LINE SMOOTH",
"339 393 OFFCURVE",
"368 356 OFFCURVE",
"376 300 CURVE",
"376 218 LINE",
"359 152 OFFCURVE",
"318 110 OFFCURVE",
"271 110 CURVE SMOOTH",
"209 110 LINE SMOOTH",
"178 110 OFFCURVE",
"156 143 OFFCURVE",
"156 195 CURVE SMOOTH",
"156 272 LINE SMOOTH"
);
}
);
};
layerId = "EA06CE92-4115-4482-8874-2441C279E756";
paths = (
{
closed = 1;
nodes = (
"286 -209 LINE SMOOTH",
"422 -209 OFFCURVE",
"512 -125 OFFCURVE",
"512 2 CURVE SMOOTH",
"512 501 LINE",
"386 501 LINE",
"386 451 LINE",
"359 485 OFFCURVE",
"318 507 OFFCURVE",
"283 507 CURVE SMOOTH",
"225 507 LINE SMOOTH",
"102 507 OFFCURVE",
"20 419 OFFCURVE",
"20 286 CURVE SMOOTH",
"20 205 LINE SMOOTH",
"20 94 OFFCURVE",
"88 20 OFFCURVE",
"189 20 CURVE SMOOTH",
"261 20 LINE SMOOTH",
"305 20 OFFCURVE",
"351 42 OFFCURVE",
"376 74 CURVE",
"376 2 LINE SMOOTH",
"376 -55 OFFCURVE",
"340 -93 OFFCURVE",
"286 -93 CURVE SMOOTH",
"228 -93 LINE SMOOTH",
"199 -93 OFFCURVE",
"177 -72 OFFCURVE",
"174 -40 CURVE",
"40 -40 LINE",
"48 -141 OFFCURVE",
"123 -209 OFFCURVE",
"228 -209 CURVE SMOOTH"
);
},
{
closed = 1;
nodes = (
"180 138 OFFCURVE",
"156 165 OFFCURVE",
"156 205 CURVE SMOOTH",
"156 286 LINE SMOOTH",
"156 348 OFFCURVE",
"192 389 OFFCURVE",
"245 389 CURVE SMOOTH",
"297 389 LINE SMOOTH",
"340 389 OFFCURVE",
"372 357 OFFCURVE",
"376 310 CURVE",
"376 245 LINE",
"372 181 OFFCURVE",
"330 138 OFFCURVE",
"271 138 CURVE SMOOTH",
"217 138 LINE SMOOTH"
);
}
);
width = 552;
},
{
associatedMasterId = "020CB1CC-CCFF-4D13-936A-D2256F19E5D3";
layerId = "8AF6BA7E-4672-4BE4-A9AE-4DB948958C2C";
width = 600;
},
{
associatedMasterId = "020CB1CC-CCFF-4D13-936A-D2256F19E5D3";
layerId = "BF02D11D-FE9D-4C71-A5A7-2FA3CA3236A0";
width = 600;
},
{
anchors = (
{
name = bottom;
position = "{275, 0}";
},
{
name = top;
position = "{275, 470}";
}
);
background = {
paths = (
{
closed = 1;
nodes = (
"265 -196 LINE SMOOTH",
"370 -196 OFFCURVE",
"440 -123 OFFCURVE",
"440 -14 CURVE SMOOTH",
"440 501 LINE",
"404 501 LINE",
"404 438 LINE",
"380 479 OFFCURVE",
"337 507 OFFCURVE",
"298 507 CURVE SMOOTH",
"238 507 LINE SMOOTH",
"125 507 OFFCURVE",
"50 424 OFFCURVE",
"50 299 CURVE SMOOTH",
"50 192 LINE SMOOTH",
"50 89 OFFCURVE",
"107 20 OFFCURVE",
"192 20 CURVE SMOOTH",
"252 20 LINE SMOOTH",
"307 20 OFFCURVE",
"368 56 OFFCURVE",
"404 110 CURVE",
"404 -14 LINE SMOOTH",
"404 -103 OFFCURVE",
"348 -162 OFFCURVE",
"265 -162 CURVE SMOOTH",
"205 -162 LINE SMOOTH",
"152 -162 OFFCURVE",
"112 -130 OFFCURVE",
"106 -82 CURVE",
"70 -82 LINE",
"78 -150 OFFCURVE",
"132 -196 OFFCURVE",
"205 -196 CURVE SMOOTH"
);
},
{
closed = 1;
nodes = (
"128 54 OFFCURVE",
"86 109 OFFCURVE",
"86 192 CURVE SMOOTH",
"86 299 LINE SMOOTH",
"86 403 OFFCURVE",
"147 473 OFFCURVE",
"238 473 CURVE SMOOTH",
"298 473 LINE SMOOTH",
"345 473 OFFCURVE",
"388 428 OFFCURVE",
"404 360 CURVE",
"404 172 LINE",
"375 101 OFFCURVE",
"314 54 OFFCURVE",
"252 54 CURVE SMOOTH",
"192 54 LINE SMOOTH"
);
}
);
};
layerId = "020CB1CC-CCFF-4D13-936A-D2256F19E5D3";
paths = (
{
closed = 1;
nodes = (
"285 -196 LINE SMOOTH",
"390 -196 OFFCURVE",
"460 -123 OFFCURVE",
"460 -14 CURVE SMOOTH",
"460 501 LINE",
"424 501 LINE",
"424 436 LINE",
"398 477 OFFCURVE",
"357 507 OFFCURVE",
"318 507 CURVE SMOOTH",
"258 507 LINE SMOOTH",
"145 507 OFFCURVE",
"70 424 OFFCURVE",
"70 299 CURVE SMOOTH",
"70 192 LINE SMOOTH",
"70 89 OFFCURVE",
"127 20 OFFCURVE",
"212 20 CURVE SMOOTH",
"272 20 LINE SMOOTH",
"329 20 OFFCURVE",
"390 56 OFFCURVE",
"424 110 CURVE",
"424 -14 LINE SMOOTH",
"424 -103 OFFCURVE",
"368 -162 OFFCURVE",
"285 -162 CURVE SMOOTH",
"225 -162 LINE SMOOTH",
"172 -162 OFFCURVE",
"132 -130 OFFCURVE",
"126 -82 CURVE",
"90 -82 LINE",
"98 -150 OFFCURVE",
"152 -196 OFFCURVE",
"225 -196 CURVE SMOOTH"
);
},
{
closed = 1;
nodes = (
"148 54 OFFCURVE",
"106 109 OFFCURVE",
"106 192 CURVE SMOOTH",
"106 299 LINE SMOOTH",
"106 403 OFFCURVE",
"167 473 OFFCURVE",
"258 473 CURVE SMOOTH",
"318 473 LINE SMOOTH",
"361 473 OFFCURVE",
"404 430 OFFCURVE",
"424 366 CURVE",
"424 172 LINE",
"395 101 OFFCURVE",
"334 54 OFFCURVE",
"272 54 CURVE SMOOTH",
"212 54 LINE SMOOTH"
);
}
);
width = 550;
},
{
associatedMasterId = "020CB1CC-CCFF-4D13-936A-D2256F19E5D3";
layerId = "1D1F3AD7-E233-4313-A299-75635C8EA5DC";
width = 600;
},
{
anchors = (
{
name = bottom;
position = "{286, 0}";
},
{
name = top;
position = "{286, 470}";
}
);
background = {
paths = (
{
closed = 1;
nodes = (
"306 -201 LINE SMOOTH",
"422 -201 OFFCURVE",
"490 -124 OFFCURVE",
"490 -8 CURVE SMOOTH",
"490 501 LINE",
"420 501 LINE",
"420 447 LINE",
"396 483 OFFCURVE",
"350 507 OFFCURVE",
"305 507 CURVE SMOOTH",
"229 507 LINE SMOOTH",
"122 507 OFFCURVE",
"50 425 OFFCURVE",
"50 303 CURVE SMOOTH",
"50 196 LINE SMOOTH",
"50 84 OFFCURVE",
"118 10 OFFCURVE",
"221 10 CURVE SMOOTH",
"297 10 LINE SMOOTH",
"342 10 OFFCURVE",
"390 42 OFFCURVE",
"418 87 CURVE",
"418 -8 LINE SMOOTH",
"418 -87 OFFCURVE",
"379 -139 OFFCURVE",
"306 -139 CURVE SMOOTH",
"237 -139 LINE SMOOTH",
"194 -139 OFFCURVE",
"161 -110 OFFCURVE",
"154 -66 CURVE",
"82 -66 LINE",
"90 -147 OFFCURVE",
"152 -201 OFFCURVE",
"237 -201 CURVE SMOOTH"
);
},
{
closed = 1;
nodes = (
"162 74 OFFCURVE",
"122 123 OFFCURVE",
"122 196 CURVE SMOOTH",
"122 303 LINE SMOOTH",
"122 387 OFFCURVE",
"165 443 OFFCURVE",
"229 443 CURVE SMOOTH",
"305 443 LINE SMOOTH",
"365 443 OFFCURVE",
"411 395 OFFCURVE",
"420 324 CURVE",
"420 207 LINE",
"401 127 OFFCURVE",
"352 74 OFFCURVE",
"297 74 CURVE SMOOTH",
"221 74 LINE SMOOTH"
);
}
);
};
layerId = "76C6DC51-463D-4A0C-B694-3EB424048C5D";
paths = (
{
closed = 1;
nodes = (
"311 -203 LINE SMOOTH",
"420 -203 OFFCURVE",
"492 -126 OFFCURVE",
"492 -10 CURVE SMOOTH",
"492 501 LINE",
"422 501 LINE",
"422 445 LINE",
"397 482 OFFCURVE",
"347 507 OFFCURVE",
"304 507 CURVE SMOOTH",
"232 507 LINE SMOOTH",
"123 507 OFFCURVE",
"50 427 OFFCURVE",
"50 308 CURVE SMOOTH",
"50 191 LINE SMOOTH",
"50 76 OFFCURVE",
"119 0 OFFCURVE",
"222 0 CURVE SMOOTH",
"295 0 LINE SMOOTH",
"338 0 OFFCURVE",
"390 27 OFFCURVE",
"420 67 CURVE",
"420 -10 LINE SMOOTH",
"420 -89 OFFCURVE",
"376 -141 OFFCURVE",
"311 -141 CURVE SMOOTH",
"237 -141 LINE SMOOTH",
"191 -141 OFFCURVE",
"157 -114 OFFCURVE",
"152 -74 CURVE",
"80 -74 LINE",
"86 -151 OFFCURVE",
"149 -203 OFFCURVE",
"237 -203 CURVE SMOOTH"
);
},
{
closed = 1;
nodes = (
"164 64 OFFCURVE",
"122 115 OFFCURVE",
"122 191 CURVE SMOOTH",
"122 308 LINE SMOOTH",
"122 389 OFFCURVE",
"168 443 OFFCURVE",
"234 443 CURVE SMOOTH",
"304 443 LINE SMOOTH",
"365 443 OFFCURVE",
"414 397 OFFCURVE",
"420 329 CURVE",
"420 204 LINE",
"414 123 OFFCURVE",
"362 64 OFFCURVE",
"295 64 CURVE SMOOTH",
"224 64 LINE SMOOTH"
);
}
);
width = 560;
}
);
note = g;
unicode = 0067;
},
{
glyphname = h;
lastChange = "2018-03-27 07:05:00 +0000";
layers = (
{
anchors = (
{
name = bottom;
position = "{281, 0}";
},
{
name = center;
position = "{281, 235}";
},
{
name = top;
position = "{281, 470}";
}
);
background = {
paths = (
{
closed = 1;
nodes = (
"390 0 LINE",
"526 0 LINE",
"526 320 LINE SMOOTH",
"526 438 OFFCURVE",
"460 507 OFFCURVE",
"349 507 CURVE SMOOTH",
"287 507 LINE SMOOTH",
"247 507 OFFCURVE",
"199 481 OFFCURVE",
"168 443 CURVE",
"168 701 LINE",
"40 701 LINE",
"40 0 LINE",
"176 0 LINE",
"176 297 LINE",
"188 351 OFFCURVE",
"232 387 OFFCURVE",
"285 387 CURVE SMOOTH",
"334 387 LINE SMOOTH",
"368 387 OFFCURVE",
"390 360 OFFCURVE",
"390 320 CURVE SMOOTH"
);
}
);
};
layerId = "EA06CE92-4115-4482-8874-2441C279E756";
paths = (
{
closed = 1;
nodes = (
"390 0 LINE",
"526 0 LINE",
"526 320 LINE SMOOTH",
"526 438 OFFCURVE",
"460 507 OFFCURVE",
"349 507 CURVE SMOOTH",
"287 507 LINE SMOOTH",
"251 507 OFFCURVE",
"207 485 OFFCURVE",
"176 452 CURVE",
"176 700 LINE",
"40 700 LINE",
"40 0 LINE",
"176 0 LINE",
"176 297 LINE",
"188 351 OFFCURVE",
"232 387 OFFCURVE",
"285 387 CURVE SMOOTH",
"334 387 LINE SMOOTH",
"368 387 OFFCURVE",
"390 360 OFFCURVE",
"390 320 CURVE SMOOTH"
);
}
);
width = 561;
},
{
associatedMasterId = "020CB1CC-CCFF-4D13-936A-D2256F19E5D3";
layerId = "8AF6BA7E-4672-4BE4-A9AE-4DB948958C2C";
width = 600;
},
{
associatedMasterId = "020CB1CC-CCFF-4D13-936A-D2256F19E5D3";
layerId = "4019E62D-36FC-4729-9971-B480EF9733E3";
width = 600;
},
{
anchors = (
{
name = bottom;
position = "{280, 0}";
},
{
name = center;
position = "{280, 235}";
},
{
name = top;
position = "{280, 470}";
}
);
background = {
paths = (
{
closed = 1;
nodes = (
"418 0 LINE",
"454 0 LINE",
"454 346 LINE SMOOTH",
"454 443 OFFCURVE",
"399 507 OFFCURVE",
"316 507 CURVE SMOOTH",
"251 507 LINE SMOOTH",
"200 507 OFFCURVE",
"142 471 OFFCURVE",
"106 418 CURVE",
"106 701 LINE",
"70 701 LINE",
"70 0 LINE",
"106 0 LINE",
"106 360 LINE",
"138 428 OFFCURVE",
"196 473 OFFCURVE",
"251 473 CURVE SMOOTH",
"316 473 LINE SMOOTH",
"377 473 OFFCURVE",
"418 424 OFFCURVE",
"418 350 CURVE SMOOTH"
);
}
);
};
layerId = "020CB1CC-CCFF-4D13-936A-D2256F19E5D3";
paths = (
{
closed = 1;
nodes = (
"438 0 LINE",
"474 0 LINE",
"474 346 LINE SMOOTH",
"474 443 OFFCURVE",
"419 507 OFFCURVE",
"336 507 CURVE SMOOTH",
"271 507 LINE SMOOTH",
"220 507 OFFCURVE",
"162 472 OFFCURVE",
"126 419 CURVE",
"126 700 LINE",
"90 700 LINE",
"90 0 LINE",
"126 0 LINE",
"126 361 LINE",
"158 428 OFFCURVE",
"216 473 OFFCURVE",
"271 473 CURVE SMOOTH",
"336 473 LINE SMOOTH",
"397 473 OFFCURVE",
"438 424 OFFCURVE",
"438 350 CURVE SMOOTH"
);
}
);
width = 559;
},
{
associatedMasterId = "020CB1CC-CCFF-4D13-936A-D2256F19E5D3";
layerId = "9100CF85-BBA1-4EA3-B489-0AAA4ECDA1E7";
width = 600;
},
{
background = {
paths = (
{
closed = 1;
nodes = (
"424 0 LINE",
"496 0 LINE",
"496 337 LINE SMOOTH",
"496 439 OFFCURVE",
"434 507 OFFCURVE",
"342 507 CURVE SMOOTH",
"274 507 LINE SMOOTH",
"225 507 OFFCURVE",
"170 475 OFFCURVE",
"140 427 CURVE",
"140 501 LINE",
"70 501 LINE",
"70 0 LINE",
"142 0 LINE",
"142 313 LINE",
"155 391 OFFCURVE",
"214 443 OFFCURVE",
"276 443 CURVE SMOOTH",
"340 443 LINE SMOOTH",
"390 443 OFFCURVE",
"424 401 OFFCURVE",
"424 339 CURVE SMOOTH"
);
}
);
};
layerId = "76C6DC51-463D-4A0C-B694-3EB424048C5D";
paths = (
{
closed = 1;
nodes = (
"424 0 LINE",
"496 0 LINE",
"496 337 LINE SMOOTH",
"496 439 OFFCURVE",
"434 507 OFFCURVE",
"342 507 CURVE SMOOTH",
"274 507 LINE SMOOTH",
"225 507 OFFCURVE",
"173 476 OFFCURVE",
"142 430 CURVE",
"142 700 LINE",
"70 700 LINE",
"70 0 LINE",
"142 0 LINE",
"142 313 LINE",
"155 391 OFFCURVE",
"214 443 OFFCURVE",
"276 443 CURVE SMOOTH",
"340 443 LINE SMOOTH",
"390 443 OFFCURVE",
"424 401 OFFCURVE",
"424 339 CURVE SMOOTH"
);
}
);
width = 567;
}
);
note = h;
unicode = 0068;
},
{
glyphname = i;
lastChange = "2018-03-13 05:33:59 +0000";
layers = (
{
anchors = (
{
name = bottom;
position = "{127, 0}";
}
);
background = {
paths = (
{
closed = 1;
nodes = (
"90 0 LINE",
"162 0 LINE",
"162 501 LINE",
"90 501 LINE"
);
},
{
closed = 1;
nodes = (
"73 596 OFFCURVE",
"94 574 OFFCURVE",
"126 574 CURVE SMOOTH",
"158 574 OFFCURVE",
"180 596 OFFCURVE",
"180 628 CURVE SMOOTH",
"180 660 OFFCURVE",
"158 682 OFFCURVE",
"126 682 CURVE SMOOTH",
"94 682 OFFCURVE",
"73 660 OFFCURVE",
"73 628 CURVE SMOOTH"
);
}
);
};
layerId = "EA06CE92-4115-4482-8874-2441C279E756";
paths = (
{
closed = 1;
nodes = (
"58 0 LINE",
"194 0 LINE",
"194 501 LINE",
"58 501 LINE"
);
},
{
closed = 1;
nodes = (
"40 579 OFFCURVE",
"74 546 OFFCURVE",
"126 546 CURVE SMOOTH",
"178 546 OFFCURVE",
"212 579 OFFCURVE",
"212 628 CURVE SMOOTH",
"212 677 OFFCURVE",
"178 710 OFFCURVE",
"126 710 CURVE SMOOTH",
"74 710 OFFCURVE",
"40 677 OFFCURVE",
"40 628 CURVE SMOOTH"
);
}
);
width = 252;
},
{
associatedMasterId = "020CB1CC-CCFF-4D13-936A-D2256F19E5D3";
layerId = "8AF6BA7E-4672-4BE4-A9AE-4DB948958C2C";
width = 600;
},
{
associatedMasterId = "020CB1CC-CCFF-4D13-936A-D2256F19E5D3";
layerId = "E3526FF5-4434-457A-BBC4-16DD12B25907";
width = 600;
},
{
anchors = (
{
name = bottom;
position = "{121, 0}";
}
);
layerId = "020CB1CC-CCFF-4D13-936A-D2256F19E5D3";
paths = (
{
closed = 1;
nodes = (
"102 0 LINE",
"138 0 LINE",
"138 501 LINE",
"102 501 LINE"
);
},
{
closed = 1;
nodes = (
"85 609 OFFCURVE",
"99 595 OFFCURVE",
"120 595 CURVE SMOOTH",
"141 595 OFFCURVE",
"155 609 OFFCURVE",
"155 630 CURVE SMOOTH",
"155 651 OFFCURVE",
"141 665 OFFCURVE",
"120 665 CURVE SMOOTH",
"99 665 OFFCURVE",
"85 651 OFFCURVE",
"85 630 CURVE SMOOTH"
);
}
);
width = 240;
},
{
associatedMasterId = "020CB1CC-CCFF-4D13-936A-D2256F19E5D3";
layerId = "763B5CE8-A0D8-4259-B799-29FA7F31AAEF";
width = 600;
},
{
anchors = (
{
name = bottom;
position = "{120, 0}";
}
);
layerId = "76C6DC51-463D-4A0C-B694-3EB424048C5D";
paths = (
{
closed = 1;
nodes = (
"83 0 LINE",
"155 0 LINE",
"155 501 LINE",
"83 501 LINE"
);
},
{
closed = 1;
nodes = (
"65 596 OFFCURVE",
"87 574 OFFCURVE",
"119 574 CURVE SMOOTH",
"151 574 OFFCURVE",
"173 596 OFFCURVE",
"173 628 CURVE SMOOTH",
"173 660 OFFCURVE",
"151 682 OFFCURVE",
"119 682 CURVE SMOOTH",
"87 682 OFFCURVE",
"65 660 OFFCURVE",
"65 628 CURVE SMOOTH"
);
}
);
width = 238;
}
);
note = i;
unicode = 0069;
},
{
glyphname = j;
lastChange = "2018-03-13 05:33:59 +0000";
layers = (
{
background = {
paths = (
{
closed = 1;
nodes = (
"92 -87 OFFCURVE",
"75 -107 OFFCURVE",
"27 -107 CURVE SMOOTH",
"-40 -107 LINE",
"-40 -227 LINE",
"27 -227 LINE SMOOTH",
"167 -227 OFFCURVE",
"228 -160 OFFCURVE",
"228 -10 CURVE SMOOTH",
"228 507 LINE",
"92 507 LINE",
"92 -15 LINE SMOOTH"
);
},
{
closed = 1;
nodes = (
"75 580 OFFCURVE",
"111 546 OFFCURVE",
"160 546 CURVE SMOOTH",
"210 546 OFFCURVE",
"246 581 OFFCURVE",
"246 628 CURVE SMOOTH",
"246 675 OFFCURVE",
"210 710 OFFCURVE",
"160 710 CURVE SMOOTH",
"111 710 OFFCURVE",
"75 676 OFFCURVE",
"75 628 CURVE SMOOTH"
);
}
);
};
layerId = "EA06CE92-4115-4482-8874-2441C279E756";
paths = (
{
closed = 1;
nodes = (
"92 -56 OFFCURVE",
"73 -83 OFFCURVE",
"27 -83 CURVE SMOOTH",
"-40 -83 LINE",
"-40 -199 LINE",
"27 -199 LINE SMOOTH",
"171 -199 OFFCURVE",
"228 -137 OFFCURVE",
"228 18 CURVE SMOOTH",
"228 501 LINE",
"92 501 LINE",
"92 13 LINE SMOOTH"
);
},
{
closed = 1;
nodes = (
"74 579 OFFCURVE",
"108 546 OFFCURVE",
"160 546 CURVE SMOOTH",
"212 546 OFFCURVE",
"246 579 OFFCURVE",
"246 628 CURVE SMOOTH",
"246 677 OFFCURVE",
"212 710 OFFCURVE",
"160 710 CURVE SMOOTH",
"108 710 OFFCURVE",
"74 677 OFFCURVE",
"74 628 CURVE SMOOTH"
);
}
);
width = 281;
},
{
associatedMasterId = "020CB1CC-CCFF-4D13-936A-D2256F19E5D3";
layerId = "8AF6BA7E-4672-4BE4-A9AE-4DB948958C2C";
width = 600;
},
{
associatedMasterId = "020CB1CC-CCFF-4D13-936A-D2256F19E5D3";
layerId = "0E1E4CF4-D89B-42A0-8819-7912B529B1AD";
width = 600;
},
{
background = {
paths = (
{
closed = 1;
nodes = (
"122 -128 OFFCURVE",
"89 -166 OFFCURVE",
"6 -166 CURVE SMOOTH",
"-10 -166 LINE",
"-10 -199 LINE",
"6 -199 LINE SMOOTH",
"113 -199 OFFCURVE",
"156 -150 OFFCURVE",
"156 -27 CURVE SMOOTH",
"156 501 LINE",
"122 501 LINE",
"122 -32 LINE SMOOTH"
);
},
{
closed = 1;
nodes = (
"106 606 OFFCURVE",
"119 591 OFFCURVE",
"139 591 CURVE SMOOTH",
"159 591 OFFCURVE",
"174 606 OFFCURVE",
"174 628 CURVE SMOOTH",
"174 650 OFFCURVE",
"159 665 OFFCURVE",
"139 665 CURVE SMOOTH",
"119 665 OFFCURVE",
"106 650 OFFCURVE",
"106 628 CURVE SMOOTH"
);
}
);
};
layerId = "020CB1CC-CCFF-4D13-936A-D2256F19E5D3";
paths = (
{
closed = 1;
nodes = (
"140 -126 OFFCURVE",
"108 -165 OFFCURVE",
"28 -165 CURVE SMOOTH",
"10 -165 LINE",
"10 -199 LINE",
"28 -199 LINE SMOOTH",
"134 -199 OFFCURVE",
"176 -151 OFFCURVE",
"176 -30 CURVE SMOOTH",
"176 501 LINE",
"140 501 LINE",
"140 -30 LINE SMOOTH"
);
},
{
closed = 1;
nodes = (
"123 609 OFFCURVE",
"137 595 OFFCURVE",
"158 595 CURVE SMOOTH",
"179 595 OFFCURVE",
"193 609 OFFCURVE",
"193 630 CURVE SMOOTH",
"193 651 OFFCURVE",
"179 665 OFFCURVE",
"158 665 CURVE SMOOTH",
"137 665 OFFCURVE",
"123 651 OFFCURVE",
"123 630 CURVE SMOOTH"
);
}
);
width = 278;
},
{
associatedMasterId = "020CB1CC-CCFF-4D13-936A-D2256F19E5D3";
layerId = "F8D7DAFE-ABED-4AB6-A5EC-2C5D89DC6AF5";
width = 600;
},
{
layerId = "76C6DC51-463D-4A0C-B694-3EB424048C5D";
paths = (
{
closed = 1;
nodes = (
"122 -101 OFFCURVE",
"94 -135 OFFCURVE",
"25 -135 CURVE SMOOTH",
"-10 -135 LINE",
"-10 -199 LINE",
"25 -199 LINE SMOOTH",
"146 -199 OFFCURVE",
"194 -145 OFFCURVE",
"194 -10 CURVE SMOOTH",
"194 501 LINE",
"122 501 LINE",
"122 -15 LINE SMOOTH"
);
},
{
closed = 1;
nodes = (
"105 596 OFFCURVE",
"126 574 OFFCURVE",
"158 574 CURVE SMOOTH",
"190 574 OFFCURVE",
"212 596 OFFCURVE",
"212 628 CURVE SMOOTH",
"212 660 OFFCURVE",
"190 682 OFFCURVE",
"158 682 CURVE SMOOTH",
"126 682 OFFCURVE",
"105 660 OFFCURVE",
"105 628 CURVE SMOOTH"
);
}
);
width = 277;
}
);
note = j;
unicode = 006A;
},
{
glyphname = k;
lastChange = "2018-03-27 07:02:23 +0000";
layers = (
{
anchors = (
{
name = bottom;
position = "{260, 0}";
},
{
name = top;
position = "{260, 470}";
}
);
background = {
paths = (
{
closed = 1;
nodes = (
"548 529 LINE",
"387 529 LINE",
"210 315 LINE",
"176 315 LINE",
"176 728 LINE",
"40 728 LINE",
"40 -28 LINE",
"176 -28 LINE",
"176 195 LINE",
"210 195 LINE",
"405 -28 LINE",
"570 -28 LINE",
"326 255 LINE"
);
}
);
};
layerId = "EA06CE92-4115-4482-8874-2441C279E756";
paths = (
{
closed = 1;
nodes = (
"522 501 LINE",
"362 501 LINE",
"228 312 LINE",
"176 312 LINE",
"176 700 LINE",
"40 700 LINE",
"40 0 LINE",
"176 0 LINE",
"176 194 LINE",
"228 194 LINE",
"376 0 LINE",
"538 0 LINE",
"340 253 LINE"
);
}
);
width = 538;
},
{
associatedMasterId = "020CB1CC-CCFF-4D13-936A-D2256F19E5D3";
layerId = "8AF6BA7E-4672-4BE4-A9AE-4DB948958C2C";
width = 600;
},
{
associatedMasterId = "020CB1CC-CCFF-4D13-936A-D2256F19E5D3";
layerId = "BCF04DBD-D570-4585-B651-22C67AA3650B";
width = 600;
},
{
anchors = (
{
name = bottom;
position = "{259, 0}";
},
{
name = top;
position = "{259, 470}";
}
);
background = {
paths = (
{
closed = 1;
nodes = (
"443 501 LINE",
"400 501 LINE",
"203 273 LINE",
"106 273 LINE",
"106 700 LINE",
"70 700 LINE",
"70 0 LINE",
"106 0 LINE",
"106 239 LINE",
"203 239 LINE",
"421 0 LINE",
"466 0 LINE",
"235 256 LINE"
);
}
);
};
layerId = "020CB1CC-CCFF-4D13-936A-D2256F19E5D3";
paths = (
{
closed = 1;
nodes = (
"463 501 LINE",
"419 501 LINE",
"223 273 LINE",
"126 273 LINE",
"126 700 LINE",
"90 700 LINE",
"90 0 LINE",
"126 0 LINE",
"126 239 LINE",
"223 239 LINE",
"441 0 LINE",
"486 0 LINE",
"255 256 LINE"
);
}
);
width = 516;
},
{
associatedMasterId = "020CB1CC-CCFF-4D13-936A-D2256F19E5D3";
layerId = "2150BE49-3EED-4D7C-8F9D-34E11D37D6A5";
width = 600;
},
{
anchors = (
{
name = bottom;
position = "{258, 0}";
},
{
name = top;
position = "{258, 470}";
}
);
background = {
paths = (
{
closed = 1;
nodes = (
"253 283 LINE",
"468 501 LINE",
"380 501 LINE",
"142 259 LINE",
"142 700 LINE",
"70 700 LINE",
"70 0 LINE",
"142 0 LINE",
"142 170 LINE",
"204 233 LINE",
"398 0 LINE",
"486 0 LINE"
);
}
);
};
layerId = "76C6DC51-463D-4A0C-B694-3EB424048C5D";
paths = (
{
closed = 1;
nodes = (
"253 283 LINE",
"468 501 LINE",
"380 501 LINE",
"142 259 LINE",
"142 700 LINE",
"70 700 LINE",
"70 0 LINE",
"142 0 LINE",
"142 172 LINE",
"203 234 LINE",
"398 0 LINE",
"486 0 LINE"
);
}
);
width = 514;
}
);
note = k;
unicode = 006B;
},
{
glyphname = l;
lastChange = "2018-03-27 07:05:02 +0000";
layers = (
{
anchors = (
{
name = bottom;
position = "{111, 0}";
},
{
name = center;
position = "{111, 235}";
},
{
name = top;
position = "{111, 470}";
},
{
name = topright;
position = "{199, 470}";
}
);
background = {
paths = (
{
closed = 1;
nodes = (
"45 0 LINE",
"181 0 LINE",
"181 700 LINE",
"45 700 LINE"
);
}
);
};
layerId = "EA06CE92-4115-4482-8874-2441C279E756";
paths = (
{
closed = 1;
nodes = (
"45 44 OFFCURVE",
"94 0 OFFCURVE",
"215 0 CURVE SMOOTH",
"281 0 LINE",
"281 118 LINE",
"225 118 LINE SMOOTH",
"194 118 OFFCURVE",
"181 131 OFFCURVE",
"181 164 CURVE SMOOTH",
"181 700 LINE",
"45 700 LINE",
"45 154 LINE SMOOTH"
);
}
);
width = 286;
},
{
associatedMasterId = "020CB1CC-CCFF-4D13-936A-D2256F19E5D3";
layerId = "8AF6BA7E-4672-4BE4-A9AE-4DB948958C2C";
width = 600;
},
{
associatedMasterId = "020CB1CC-CCFF-4D13-936A-D2256F19E5D3";
layerId = "13B12C61-9F26-467A-9EFC-F09E8D0FC6C7";
width = 600;
},
{
anchors = (
{
name = bottom;
position = "{112, -141}";
},
{
name = center;
position = "{112, 376}";
},
{
name = top;
position = "{112, 470}";
},
{
name = topright;
position = "{200, 470}";
}
);
background = {
paths = (
{
closed = 1;
nodes = (
"59 31 OFFCURVE",
"94 0 OFFCURVE",
"197 0 CURVE SMOOTH",
"231 0 LINE",
"231 62 LINE",
"207 62 LINE SMOOTH",
"158 62 OFFCURVE",
"131 88 OFFCURVE",
"131 136 CURVE SMOOTH",
"131 644 LINE",
"59 644 LINE",
"59 126 LINE SMOOTH"
);
}
);
};
layerId = "020CB1CC-CCFF-4D13-936A-D2256F19E5D3";
paths = (
{
closed = 1;
nodes = (
"95 35 OFFCURVE",
"128 0 OFFCURVE",
"211 0 CURVE SMOOTH",
"231 0 LINE",
"231 34 LINE",
"211 34 LINE SMOOTH",
"154 34 OFFCURVE",
"131 59 OFFCURVE",
"131 122 CURVE SMOOTH",
"131 700 LINE",
"95 700 LINE",
"95 122 LINE SMOOTH"
);
}
);
width = 261;
},
{
associatedMasterId = "020CB1CC-CCFF-4D13-936A-D2256F19E5D3";
layerId = "0E319710-E777-46CA-A8D4-7230326FF994";
width = 600;
},
{
anchors = (
{
name = bottom;
position = "{109, 0}";
},
{
name = center;
position = "{109, 235}";
},
{
name = top;
position = "{109, 470}";
},
{
name = topright;
position = "{197, 470}";
}
);
layerId = "76C6DC51-463D-4A0C-B694-3EB424048C5D";
paths = (
{
closed = 1;
nodes = (
"75 39 OFFCURVE",
"114 0 OFFCURVE",
"213 0 CURVE SMOOTH",
"247 0 LINE",
"247 64 LINE",
"213 64 LINE SMOOTH",
"166 64 OFFCURVE",
"147 85 OFFCURVE",
"147 136 CURVE SMOOTH",
"147 700 LINE",
"75 700 LINE",
"75 136 LINE SMOOTH"
);
}
);
width = 257;
}
);
note = l;
unicode = 006C;
},
{
glyphname = m;
lastChange = "2018-03-27 06:52:12 +0000";
layers = (
{
anchors = (
{
name = bottom;
position = "{403, 0}";
},
{
name = top;
position = "{403, 470}";
}
);
background = {
paths = (
{
closed = 1;
nodes = (
"572 507 LINE SMOOTH",
"506 507 OFFCURVE",
"440 459 OFFCURVE",
"407 388 CURVE",
"452 363 LINE",
"452 379 LINE SMOOTH",
"452 456 OFFCURVE",
"403 507 OFFCURVE",
"329 507 CURVE SMOOTH",
"277 507 LINE SMOOTH",
"238 507 OFFCURVE",
"193 479 OFFCURVE",
"166 443 CURVE",
"166 501 LINE",
"40 501 LINE",
"40 0 LINE",
"176 0 LINE",
"176 302 LINE",
"188 356 OFFCURVE",
"225 387 OFFCURVE",
"265 387 CURVE SMOOTH",
"298 387 LINE SMOOTH",
"325 387 OFFCURVE",
"338 363 OFFCURVE",
"338 310 CURVE SMOOTH",
"338 0 LINE",
"474 0 LINE",
"474 311 LINE",
"485 357 OFFCURVE",
"519 387 OFFCURVE",
"560 387 CURVE SMOOTH",
"593 387 LINE SMOOTH",
"622 387 OFFCURVE",
"635 363 OFFCURVE",
"635 310 CURVE SMOOTH",
"635 0 LINE",
"771 0 LINE",
"771 320 LINE SMOOTH",
"771 443 OFFCURVE",
"721 507 OFFCURVE",
"624 507 CURVE SMOOTH"
);
}
);
};
layerId = "EA06CE92-4115-4482-8874-2441C279E756";
paths = (
{
closed = 1;
nodes = (
"176 0 LINE",
"176 302 LINE",
"188 354 OFFCURVE",
"223 389 OFFCURVE",
"265 389 CURVE SMOOTH",
"298 389 LINE SMOOTH",
"323 389 OFFCURVE",
"339 360 OFFCURVE",
"339 312 CURVE SMOOTH",
"339 0 LINE",
"473 0 LINE",
"473 311 LINE",
"484 358 OFFCURVE",
"520 389 OFFCURVE",
"560 389 CURVE SMOOTH",
"593 389 LINE SMOOTH",
"619 389 OFFCURVE",
"635 360 OFFCURVE",
"635 312 CURVE SMOOTH",
"635 0 LINE",
"771 0 LINE",
"771 320 LINE SMOOTH",
"771 438 OFFCURVE",
"716 507 OFFCURVE",
"624 507 CURVE SMOOTH",
"572 507 LINE SMOOTH",
"506 507 OFFCURVE",
"440 459 OFFCURVE",
"407 388 CURVE",
"452 363 LINE",
"452 379 LINE SMOOTH",
"452 446 OFFCURVE",
"403 507 OFFCURVE",
"329 507 CURVE SMOOTH",
"277 507 LINE SMOOTH",
"239 507 OFFCURVE",
"195 481 OFFCURVE",
"166 443 CURVE",
"166 501 LINE",
"40 501 LINE",
"40 0 LINE"
);
}
);
width = 806;
},
{
associatedMasterId = "020CB1CC-CCFF-4D13-936A-D2256F19E5D3";
layerId = "8AF6BA7E-4672-4BE4-A9AE-4DB948958C2C";
width = 600;
},
{
associatedMasterId = "020CB1CC-CCFF-4D13-936A-D2256F19E5D3";
layerId = "0B423661-E5C6-4573-82BF-E536DFE94819";
width = 600;
},
{
anchors = (
{
name = bottom;
position = "{402, 0}";
},
{
name = top;
position = "{402, 470}";
}
);
background = {
paths = (
{
closed = 1;
nodes = (
"527 507 LINE SMOOTH",
"459 507 OFFCURVE",
"401 460 OFFCURVE",
"381 389 CURVE",
"399 369 LINE",
"399 374 LINE SMOOTH",
"399 454 OFFCURVE",
"354 507 OFFCURVE",
"286 507 CURVE SMOOTH",
"231 507 LINE SMOOTH",
"187 507 OFFCURVE",
"137 473 OFFCURVE",
"106 422 CURVE",
"106 501 LINE",
"70 501 LINE",
"70 0 LINE",
"106 0 LINE",
"106 357 LINE",
"130 427 OFFCURVE",
"180 473 OFFCURVE",
"231 473 CURVE SMOOTH",
"286 473 LINE SMOOTH",
"339 473 OFFCURVE",
"367 430 OFFCURVE",
"367 348 CURVE SMOOTH",
"367 0 LINE",
"403 0 LINE",
"403 348 LINE",
"413 423 OFFCURVE",
"463 473 OFFCURVE",
"527 473 CURVE SMOOTH",
"582 473 LINE SMOOTH",
"633 473 OFFCURVE",
"663 427 OFFCURVE",
"663 348 CURVE SMOOTH",
"663 0 LINE",
"699 0 LINE",
"699 348 LINE SMOOTH",
"699 443 OFFCURVE",
"652 507 OFFCURVE",
"582 507 CURVE SMOOTH"
);
}
);
};
layerId = "020CB1CC-CCFF-4D13-936A-D2256F19E5D3";
paths = (
{
closed = 1;
nodes = (
"126 0 LINE",
"126 369 LINE",
"157 431 OFFCURVE",
"207 473 OFFCURVE",
"251 473 CURVE SMOOTH",
"306 473 LINE SMOOTH",
"357 473 OFFCURVE",
"387 427 OFFCURVE",
"387 348 CURVE SMOOTH",
"387 0 LINE",
"423 0 LINE",
"423 348 LINE",
"433 423 OFFCURVE",
"483 473 OFFCURVE",
"547 473 CURVE SMOOTH",
"602 473 LINE SMOOTH",
"651 473 OFFCURVE",
"683 427 OFFCURVE",
"683 358 CURVE SMOOTH",
"683 0 LINE",
"719 0 LINE",
"719 358 LINE SMOOTH",
"719 447 OFFCURVE",
"672 507 OFFCURVE",
"602 507 CURVE SMOOTH",
"547 507 LINE SMOOTH",
"481 507 OFFCURVE",
"423 460 OFFCURVE",
"401 389 CURVE",
"419 359 LINE",
"419 368 LINE SMOOTH",
"419 451 OFFCURVE",
"374 507 OFFCURVE",
"306 507 CURVE SMOOTH",
"251 507 LINE SMOOTH",
"210 507 OFFCURVE",
"160 475 OFFCURVE",
"126 425 CURVE",
"126 501 LINE",
"90 501 LINE",
"90 0 LINE"
);
}
);
width = 804;
},
{
associatedMasterId = "020CB1CC-CCFF-4D13-936A-D2256F19E5D3";
layerId = "22675DCB-C56D-4C2F-BF92-EECD512C7AFD";
width = 600;
},
{
anchors = (
{
name = bottom;
position = "{401, 0}";
},
{
name = top;
position = "{401, 470}";
}
);
background = {
paths = (
{
closed = 1;
nodes = (
"371 0 LINE",
"443 0 LINE",
"443 337 LINE SMOOTH",
"443 439 OFFCURVE",
"400 507 OFFCURVE",
"308 507 CURVE SMOOTH",
"251 507 LINE SMOOTH",
"202 507 OFFCURVE",
"170 475 OFFCURVE",
"140 427 CURVE",
"140 501 LINE",
"70 501 LINE",
"70 0 LINE",
"142 0 LINE",
"142 313 LINE",
"155 391 OFFCURVE",
"191 443 OFFCURVE",
"253 443 CURVE SMOOTH",
"306 443 LINE SMOOTH",
"356 443 OFFCURVE",
"371 401 OFFCURVE",
"371 339 CURVE SMOOTH"
);
},
{
closed = 1;
nodes = (
"672 0 LINE",
"744 0 LINE",
"744 337 LINE SMOOTH",
"744 439 OFFCURVE",
"701 507 OFFCURVE",
"609 507 CURVE SMOOTH",
"552 507 LINE SMOOTH",
"495 507 OFFCURVE",
"440 473 OFFCURVE",
"410 395 CURVE",
"371 254 LINE",
"371 0 LINE",
"443 0 LINE",
"443 323 LINE",
"456 401 OFFCURVE",
"492 443 OFFCURVE",
"554 443 CURVE SMOOTH",
"607 443 LINE SMOOTH",
"657 443 OFFCURVE",
"672 401 OFFCURVE",
"672 339 CURVE SMOOTH"
);
}
);
};
layerId = "76C6DC51-463D-4A0C-B694-3EB424048C5D";
paths = (
{
closed = 1;
nodes = (
"552 507 LINE SMOOTH",
"495 507 OFFCURVE",
"439 473 OFFCURVE",
"410 396 CURVE",
"434 396 LINE",
"418 466 OFFCURVE",
"376 507 OFFCURVE",
"308 507 CURVE SMOOTH",
"255 507 LINE SMOOTH",
"210 507 OFFCURVE",
"165 476 OFFCURVE",
"140 429 CURVE",
"140 501 LINE",
"70 501 LINE",
"70 0 LINE",
"142 0 LINE",
"142 315 LINE",
"153 392 OFFCURVE",
"199 443 OFFCURVE",
"257 443 CURVE SMOOTH",
"306 443 LINE SMOOTH",
"349 443 OFFCURVE",
"371 409 OFFCURVE",
"371 343 CURVE SMOOTH",
"371 0 LINE",
"443 0 LINE",
"443 332 LINE",
"454 402 OFFCURVE",
"496 443 OFFCURVE",
"554 443 CURVE SMOOTH",
"603 443 LINE SMOOTH",
"646 443 OFFCURVE",
"672 408 OFFCURVE",
"672 349 CURVE SMOOTH",
"672 0 LINE",
"744 0 LINE",
"744 347 LINE SMOOTH",
"744 448 OFFCURVE",
"692 507 OFFCURVE",
"605 507 CURVE SMOOTH"
);
}
);
width = 809;
}
);
note = m;
unicode = 006D;
},
{
glyphname = n;
lastChange = "2018-03-27 06:52:04 +0000";
layers = (
{
anchors = (
{
name = bottom;
position = "{281, 0}";
},
{
name = top;
position = "{281, 470}";
}
);
background = {
paths = (
{
closed = 1;
nodes = (
"390 0 LINE",
"526 0 LINE",
"526 320 LINE SMOOTH",
"526 438 OFFCURVE",
"460 507 OFFCURVE",
"349 507 CURVE SMOOTH",
"287 507 LINE SMOOTH",
"247 507 OFFCURVE",
"198 481 OFFCURVE",
"168 443 CURVE",
"168 501 LINE",
"40 501 LINE",
"40 0 LINE",
"176 0 LINE",
"176 297 LINE",
"188 351 OFFCURVE",
"231 387 OFFCURVE",
"285 387 CURVE SMOOTH",
"334 387 LINE SMOOTH",
"368 387 OFFCURVE",
"390 360 OFFCURVE",
"390 320 CURVE SMOOTH"
);
}
);
};
layerId = "EA06CE92-4115-4482-8874-2441C279E756";
paths = (
{
closed = 1;
nodes = (
"390 0 LINE",
"526 0 LINE",
"526 320 LINE SMOOTH",
"526 438 OFFCURVE",
"460 507 OFFCURVE",
"349 507 CURVE SMOOTH",
"287 507 LINE SMOOTH",
"247 507 OFFCURVE",
"199 481 OFFCURVE",
"168 443 CURVE",
"168 501 LINE",
"40 501 LINE",
"40 0 LINE",
"176 0 LINE",
"176 297 LINE",
"188 351 OFFCURVE",
"232 387 OFFCURVE",
"285 387 CURVE SMOOTH",
"334 387 LINE SMOOTH",
"368 387 OFFCURVE",
"390 360 OFFCURVE",
"390 320 CURVE SMOOTH"
);
}
);
width = 561;
},
{
associatedMasterId = "020CB1CC-CCFF-4D13-936A-D2256F19E5D3";
layerId = "8AF6BA7E-4672-4BE4-A9AE-4DB948958C2C";
width = 600;
},
{
associatedMasterId = "020CB1CC-CCFF-4D13-936A-D2256F19E5D3";
layerId = "47C07CAE-9BD5-43A6-A9DD-C73DACD8BF04";
width = 600;
},
{
anchors = (
{
name = bottom;
position = "{280, 0}";
},
{
name = top;
position = "{280, 470}";
}
);
background = {
paths = (
{
closed = 1;
nodes = (
"418 0 LINE",
"454 0 LINE",
"454 346 LINE SMOOTH",
"454 443 OFFCURVE",
"399 507 OFFCURVE",
"316 507 CURVE SMOOTH",
"251 507 LINE SMOOTH",
"200 507 OFFCURVE",
"142 471 OFFCURVE",
"106 418 CURVE",
"106 501 LINE",
"70 501 LINE",
"70 0 LINE",
"106 0 LINE",
"106 360 LINE",
"138 428 OFFCURVE",
"196 473 OFFCURVE",
"251 473 CURVE SMOOTH",
"316 473 LINE SMOOTH",
"377 473 OFFCURVE",
"418 424 OFFCURVE",
"418 350 CURVE SMOOTH"
);
}
);
};
layerId = "020CB1CC-CCFF-4D13-936A-D2256F19E5D3";
paths = (
{
closed = 1;
nodes = (
"438 0 LINE",
"474 0 LINE",
"474 346 LINE SMOOTH",
"474 443 OFFCURVE",
"419 507 OFFCURVE",
"336 507 CURVE SMOOTH",
"271 507 LINE SMOOTH",
"220 507 OFFCURVE",
"162 472 OFFCURVE",
"126 419 CURVE",
"126 501 LINE",
"90 501 LINE",
"90 0 LINE",
"126 0 LINE",
"126 361 LINE",
"158 428 OFFCURVE",
"216 473 OFFCURVE",
"271 473 CURVE SMOOTH",
"336 473 LINE SMOOTH",
"397 473 OFFCURVE",
"438 424 OFFCURVE",
"438 350 CURVE SMOOTH"
);
}
);
width = 559;
},
{
associatedMasterId = "020CB1CC-CCFF-4D13-936A-D2256F19E5D3";
layerId = "5082048F-81E1-4B93-8311-C6C6A1A34DF5";
width = 600;
},
{
anchors = (
{
name = bottom;
position = "{279, 0}";
},
{
name = top;
position = "{279, 470}";
}
);
background = {
paths = (
{
closed = 1;
nodes = (
"424 0 LINE",
"496 0 LINE",
"496 337 LINE SMOOTH",
"496 439 OFFCURVE",
"434 507 OFFCURVE",
"342 507 CURVE SMOOTH",
"274 507 LINE SMOOTH",
"225 507 OFFCURVE",
"170 475 OFFCURVE",
"140 427 CURVE",
"140 501 LINE",
"70 501 LINE",
"70 0 LINE",
"142 0 LINE",
"142 313 LINE",
"155 391 OFFCURVE",
"214 443 OFFCURVE",
"276 443 CURVE SMOOTH",
"340 443 LINE SMOOTH",
"390 443 OFFCURVE",
"424 401 OFFCURVE",
"424 339 CURVE SMOOTH"
);
}
);
};
layerId = "76C6DC51-463D-4A0C-B694-3EB424048C5D";
paths = (
{
closed = 1;
nodes = (
"424 0 LINE",
"496 0 LINE",
"496 337 LINE SMOOTH",
"496 439 OFFCURVE",
"434 507 OFFCURVE",
"342 507 CURVE SMOOTH",
"274 507 LINE SMOOTH",
"225 507 OFFCURVE",
"170 475 OFFCURVE",
"140 427 CURVE",
"140 501 LINE",
"70 501 LINE",
"70 0 LINE",
"142 0 LINE",
"142 313 LINE",
"155 391 OFFCURVE",
"214 443 OFFCURVE",
"276 443 CURVE SMOOTH",
"340 443 LINE SMOOTH",
"390 443 OFFCURVE",
"424 401 OFFCURVE",
"424 339 CURVE SMOOTH"
);
}
);
width = 561;
}
);
note = n;
unicode = 006E;
},
{
glyphname = o;
lastChange = "2018-03-27 11:32:41 +0000";
layers = (
{
anchors = (
{
name = bottom;
position = "{273, 0}";
},
{
name = center;
position = "{273, 235}";
},
{
name = ogonek;
position = "{490, 10}";
},
{
name = top;
position = "{273, 470}";
},
{
name = topright;
position = "{524, 470}";
}
);
background = {
paths = (
{
closed = 1;
nodes = (
"494 326 LINE SMOOTH",
"494 435 OFFCURVE",
"426 507 OFFCURVE",
"325 507 CURVE SMOOTH",
"254 507 LINE SMOOTH",
"133 507 OFFCURVE",
"52 425 OFFCURVE",
"52 301 CURVE SMOOTH",
"52 171 LINE SMOOTH",
"52 62 OFFCURVE",
"119 -10 OFFCURVE",
"219 -10 CURVE SMOOTH",
"291 -10 LINE SMOOTH",
"413 -10 OFFCURVE",
"494 72 OFFCURVE",
"494 196 CURVE SMOOTH"
);
},
{
closed = 1;
nodes = (
"422 196 LINE SMOOTH",
"422 111 OFFCURVE",
"370 54 OFFCURVE",
"291 54 CURVE SMOOTH",
"219 54 LINE SMOOTH",
"162 54 OFFCURVE",
"124 101 OFFCURVE",
"124 171 CURVE SMOOTH",
"124 301 LINE SMOOTH",
"124 386 OFFCURVE",
"176 443 OFFCURVE",
"254 443 CURVE SMOOTH",
"325 443 LINE SMOOTH",
"383 443 OFFCURVE",
"422 396 OFFCURVE",
"422 326 CURVE SMOOTH"
);
}
);
};
layerId = "EA06CE92-4115-4482-8874-2441C279E756";
paths = (
{
closed = 1;
nodes = (
"291 -10 LINE SMOOTH",
"432 -10 OFFCURVE",
"526 83 OFFCURVE",
"526 222 CURVE SMOOTH",
"526 300 LINE SMOOTH",
"526 424 OFFCURVE",
"446 507 OFFCURVE",
"325 507 CURVE SMOOTH",
"254 507 LINE SMOOTH",
"114 507 OFFCURVE",
"20 414 OFFCURVE",
"20 275 CURVE SMOOTH",
"20 197 LINE SMOOTH",
"20 73 OFFCURVE",
"100 -10 OFFCURVE",
"219 -10 CURVE SMOOTH"
);
},
{
closed = 1;
nodes = (
"181 108 OFFCURVE",
"156 144 OFFCURVE",
"156 197 CURVE SMOOTH",
"156 275 LINE SMOOTH",
"156 343 OFFCURVE",
"195 389 OFFCURVE",
"254 389 CURVE SMOOTH",
"325 389 LINE SMOOTH",
"364 389 OFFCURVE",
"390 353 OFFCURVE",
"390 300 CURVE SMOOTH",
"390 222 LINE SMOOTH",
"390 154 OFFCURVE",
"350 108 OFFCURVE",
"291 108 CURVE SMOOTH",
"219 108 LINE SMOOTH"
);
}
);
width = 546;
},
{
associatedMasterId = "020CB1CC-CCFF-4D13-936A-D2256F19E5D3";
layerId = "8AF6BA7E-4672-4BE4-A9AE-4DB948958C2C";
width = 600;
},
{
associatedMasterId = "020CB1CC-CCFF-4D13-936A-D2256F19E5D3";
layerId = "03A1FE11-82FD-4266-82BB-1D6DD515064D";
width = 600;
},
{
anchors = (
{
name = bottom;
position = "{272, -141}";
},
{
name = center;
position = "{272, 376}";
},
{
name = ogonek;
position = "{489, 10}";
},
{
name = top;
position = "{272, 470}";
},
{
name = topright;
position = "{523, 470}";
}
);
background = {
paths = (
{
closed = 1;
nodes = (
"474 326 LINE SMOOTH",
"474 435 OFFCURVE",
"406 507 OFFCURVE",
"305 507 CURVE SMOOTH",
"234 507 LINE SMOOTH",
"113 507 OFFCURVE",
"32 425 OFFCURVE",
"32 301 CURVE SMOOTH",
"32 171 LINE SMOOTH",
"32 62 OFFCURVE",
"99 -10 OFFCURVE",
"199 -10 CURVE SMOOTH",
"271 -10 LINE SMOOTH",
"393 -10 OFFCURVE",
"474 72 OFFCURVE",
"474 196 CURVE SMOOTH"
);
},
{
closed = 1;
nodes = (
"402 196 LINE SMOOTH",
"402 111 OFFCURVE",
"350 54 OFFCURVE",
"271 54 CURVE SMOOTH",
"199 54 LINE SMOOTH",
"142 54 OFFCURVE",
"104 101 OFFCURVE",
"104 171 CURVE SMOOTH",
"104 301 LINE SMOOTH",
"104 386 OFFCURVE",
"156 443 OFFCURVE",
"234 443 CURVE SMOOTH",
"305 443 LINE SMOOTH",
"363 443 OFFCURVE",
"402 396 OFFCURVE",
"402 326 CURVE SMOOTH"
);
}
);
};
layerId = "020CB1CC-CCFF-4D13-936A-D2256F19E5D3";
paths = (
{
closed = 1;
nodes = (
"290 -10 LINE SMOOTH",
"400 -10 OFFCURVE",
"474 66 OFFCURVE",
"474 180 CURVE SMOOTH",
"474 342 LINE SMOOTH",
"474 441 OFFCURVE",
"414 507 OFFCURVE",
"324 507 CURVE SMOOTH",
"253 507 LINE SMOOTH",
"143 507 OFFCURVE",
"70 431 OFFCURVE",
"70 317 CURVE SMOOTH",
"70 155 LINE SMOOTH",
"70 56 OFFCURVE",
"129 -10 OFFCURVE",
"218 -10 CURVE SMOOTH"
);
},
{
closed = 1;
nodes = (
"151 24 OFFCURVE",
"106 76 OFFCURVE",
"106 155 CURVE SMOOTH",
"106 317 LINE SMOOTH",
"106 411 OFFCURVE",
"165 473 OFFCURVE",
"253 473 CURVE SMOOTH",
"324 473 LINE SMOOTH",
"392 473 OFFCURVE",
"438 421 OFFCURVE",
"438 342 CURVE SMOOTH",
"438 180 LINE SMOOTH",
"438 86 OFFCURVE",
"379 24 OFFCURVE",
"290 24 CURVE SMOOTH",
"218 24 LINE SMOOTH"
);
}
);
width = 544;
},
{
associatedMasterId = "020CB1CC-CCFF-4D13-936A-D2256F19E5D3";
layerId = "F75547CE-474F-45BA-8C4B-93AD57A6FFD9";
width = 600;
},
{
anchors = (
{
name = bottom;
position = "{270, 0}";
},
{
name = center;
position = "{270, 235}";
},
{
name = ogonek;
position = "{487, 10}";
},
{
name = top;
position = "{270, 470}";
},
{
name = topright;
position = "{521, 470}";
}
);
background = {
paths = (
{
closed = 1;
nodes = (
"505 318 LINE SMOOTH",
"505 431 OFFCURVE",
"430 507 OFFCURVE",
"317 507 CURVE SMOOTH",
"237 507 LINE SMOOTH",
"124 507 OFFCURVE",
"49 431 OFFCURVE",
"49 318 CURVE SMOOTH",
"49 179 LINE SMOOTH",
"49 66 OFFCURVE",
"127 -10 OFFCURVE",
"237 -10 CURVE SMOOTH",
"313 -10 LINE SMOOTH",
"425 -10 OFFCURVE",
"505 66 OFFCURVE",
"505 179 CURVE SMOOTH"
);
},
{
closed = 1;
nodes = (
"121 318 LINE SMOOTH",
"121 393 OFFCURVE",
"168 443 OFFCURVE",
"239 443 CURVE SMOOTH",
"315 443 LINE SMOOTH",
"386 443 OFFCURVE",
"433 393 OFFCURVE",
"433 318 CURVE SMOOTH",
"433 179 LINE SMOOTH",
"433 104 OFFCURVE",
"381 54 OFFCURVE",
"311 54 CURVE SMOOTH",
"239 54 LINE SMOOTH",
"171 54 OFFCURVE",
"121 104 OFFCURVE",
"121 179 CURVE SMOOTH"
);
}
);
};
layerId = "76C6DC51-463D-4A0C-B694-3EB424048C5D";
paths = (
{
closed = 1;
nodes = (
"504 318 LINE SMOOTH",
"504 431 OFFCURVE",
"430 507 OFFCURVE",
"318 507 CURVE SMOOTH",
"236 507 LINE SMOOTH",
"124 507 OFFCURVE",
"50 431 OFFCURVE",
"50 318 CURVE SMOOTH",
"50 179 LINE SMOOTH",
"50 66 OFFCURVE",
"124 -10 OFFCURVE",
"236 -10 CURVE SMOOTH",
"314 -10 LINE SMOOTH",
"428 -10 OFFCURVE",
"504 66 OFFCURVE",
"504 179 CURVE SMOOTH"
);
},
{
closed = 1;
nodes = (
"122 318 LINE SMOOTH",
"122 393 OFFCURVE",
"168 443 OFFCURVE",
"236 443 CURVE SMOOTH",
"318 443 LINE SMOOTH",
"386 443 OFFCURVE",
"432 393 OFFCURVE",
"432 318 CURVE SMOOTH",
"432 179 LINE SMOOTH",
"432 104 OFFCURVE",
"385 54 OFFCURVE",
"314 54 CURVE SMOOTH",
"236 54 LINE SMOOTH",
"168 54 OFFCURVE",
"122 104 OFFCURVE",
"122 179 CURVE SMOOTH"
);
}
);
width = 554;
}
);
note = o;
unicode = 006F;
},
{
glyphname = p;
lastChange = "2018-03-27 06:19:05 +0000";
layers = (
{
anchors = (
{
name = bottom;
position = "{276, 0}";
},
{
name = top;
position = "{276, 470}";
}
);
background = {
paths = (
{
closed = 1;
nodes = (
"200 1 OFFCURVE",
"226 -6 OFFCURVE",
"251 -6 CURVE SMOOTH",
"313 -6 LINE SMOOTH",
"444 -6 OFFCURVE",
"532 92 OFFCURVE",
"532 235 CURVE SMOOTH",
"532 302 LINE SMOOTH",
"532 424 OFFCURVE",
"455 507 OFFCURVE",
"343 507 CURVE SMOOTH",
"281 507 LINE SMOOTH",
"244 507 OFFCURVE",
"206 495 OFFCURVE",
"174 473 CURVE",
"174 497 LINE",
"40 497 LINE",
"40 -199 LINE",
"176 -199 LINE",
"176 14 LINE"
);
},
{
closed = 1;
nodes = (
"396 161 OFFCURVE",
"362 114 OFFCURVE",
"313 114 CURVE SMOOTH",
"256 114 LINE SMOOTH",
"216 114 OFFCURVE",
"184 150 OFFCURVE",
"176 207 CURVE",
"176 279 LINE",
"193 345 OFFCURVE",
"235 387 OFFCURVE",
"281 387 CURVE SMOOTH",
"343 387 LINE SMOOTH",
"374 387 OFFCURVE",
"396 354 OFFCURVE",
"396 302 CURVE SMOOTH",
"396 235 LINE SMOOTH"
);
}
);
};
layerId = "EA06CE92-4115-4482-8874-2441C279E756";
paths = (
{
closed = 1;
nodes = (
"176 -203 LINE",
"176 36 LINE",
"198 8 OFFCURVE",
"236 -10 OFFCURVE",
"271 -10 CURVE SMOOTH",
"329 -10 LINE SMOOTH",
"451 -10 OFFCURVE",
"532 78 OFFCURVE",
"532 211 CURVE SMOOTH",
"532 322 LINE SMOOTH",
"532 433 OFFCURVE",
"464 507 OFFCURVE",
"361 507 CURVE SMOOTH",
"289 507 LINE SMOOTH",
"243 507 OFFCURVE",
"194 479 OFFCURVE",
"166 437 CURVE",
"166 497 LINE",
"40 497 LINE",
"40 -203 LINE"
);
},
{
closed = 1;
nodes = (
"212 108 OFFCURVE",
"180 140 OFFCURVE",
"176 187 CURVE",
"176 282 LINE",
"184 346 OFFCURVE",
"225 389 OFFCURVE",
"279 389 CURVE SMOOTH",
"333 389 LINE SMOOTH",
"371 389 OFFCURVE",
"396 362 OFFCURVE",
"396 322 CURVE SMOOTH",
"396 211 LINE SMOOTH",
"396 149 OFFCURVE",
"361 108 OFFCURVE",
"309 108 CURVE SMOOTH",
"257 108 LINE SMOOTH"
);
}
);
width = 552;
},
{
associatedMasterId = "020CB1CC-CCFF-4D13-936A-D2256F19E5D3";
layerId = "8AF6BA7E-4672-4BE4-A9AE-4DB948958C2C";
width = 600;
},
{
associatedMasterId = "020CB1CC-CCFF-4D13-936A-D2256F19E5D3";
layerId = "F3D3A55D-AA3E-479A-9A1E-FB8352773663";
width = 600;
},
{
anchors = (
{
name = bottom;
position = "{275, 0}";
},
{
name = top;
position = "{275, 470}";
}
);
background = {
paths = (
{
closed = 1;
nodes = (
"256 507 LINE SMOOTH",
"198 507 OFFCURVE",
"138 470 OFFCURVE",
"106 415 CURVE",
"106 501 LINE",
"70 501 LINE",
"70 -203 LINE",
"106 -203 LINE",
"106 59 LINE",
"130 18 OFFCURVE",
"175 -10 OFFCURVE",
"217 -10 CURVE SMOOTH",
"277 -10 LINE SMOOTH",
"387 -10 OFFCURVE",
"460 73 OFFCURVE",
"460 198 CURVE SMOOTH",
"460 335 LINE SMOOTH",
"460 438 OFFCURVE",
"402 507 OFFCURVE",
"316 507 CURVE SMOOTH"
);
},
{
closed = 1;
nodes = (
"381 473 OFFCURVE",
"424 418 OFFCURVE",
"424 335 CURVE SMOOTH",
"424 198 LINE SMOOTH",
"424 94 OFFCURVE",
"365 24 OFFCURVE",
"277 24 CURVE SMOOTH",
"217 24 LINE SMOOTH",
"166 24 OFFCURVE",
"122 69 OFFCURVE",
"106 137 CURVE",
"106 345 LINE",
"132 422 OFFCURVE",
"192 473 OFFCURVE",
"256 473 CURVE SMOOTH",
"316 473 LINE SMOOTH"
);
}
);
};
layerId = "020CB1CC-CCFF-4D13-936A-D2256F19E5D3";
paths = (
{
closed = 1;
nodes = (
"126 -203 LINE",
"126 59 LINE",
"154 18 OFFCURVE",
"199 -10 OFFCURVE",
"239 -10 CURVE SMOOTH",
"297 -10 LINE SMOOTH",
"407 -10 OFFCURVE",
"480 73 OFFCURVE",
"480 198 CURVE SMOOTH",
"480 335 LINE SMOOTH",
"480 438 OFFCURVE",
"422 507 OFFCURVE",
"336 507 CURVE SMOOTH",
"276 507 LINE SMOOTH",
"218 507 OFFCURVE",
"158 471 OFFCURVE",
"126 417 CURVE",
"126 501 LINE",
"90 501 LINE",
"90 -203 LINE"
);
},
{
closed = 1;
nodes = (
"193 24 OFFCURVE",
"138 75 OFFCURVE",
"126 127 CURVE",
"126 345 LINE",
"149 422 OFFCURVE",
"209 473 OFFCURVE",
"276 473 CURVE SMOOTH",
"336 473 LINE SMOOTH",
"401 473 OFFCURVE",
"444 418 OFFCURVE",
"444 335 CURVE SMOOTH",
"444 198 LINE SMOOTH",
"444 94 OFFCURVE",
"385 24 OFFCURVE",
"297 24 CURVE SMOOTH",
"239 24 LINE SMOOTH"
);
}
);
width = 550;
},
{
associatedMasterId = "020CB1CC-CCFF-4D13-936A-D2256F19E5D3";
layerId = "4D4041F6-E48A-4310-8614-124B21729F1C";
width = 600;
},
{
anchors = (
{
name = bottom;
position = "{274, 0}";
},
{
name = top;
position = "{274, 470}";
}
);
background = {
paths = (
{
closed = 1;
nodes = (
"142 -203 LINE",
"142 53 LINE",
"168 15 OFFCURVE",
"214 -10 OFFCURVE",
"255 -10 CURVE SMOOTH",
"329 -10 LINE SMOOTH",
"436 -10 OFFCURVE",
"512 72 OFFCURVE",
"512 196 CURVE SMOOTH",
"512 321 LINE SMOOTH",
"512 433 OFFCURVE",
"441 507 OFFCURVE",
"337 507 CURVE SMOOTH",
"263 507 LINE SMOOTH",
"217 507 OFFCURVE",
"168 477 OFFCURVE",
"140 433 CURVE",
"140 501 LINE",
"70 501 LINE",
"70 -203 LINE"
);
},
{
closed = 1;
nodes = (
"197 54 OFFCURVE",
"151 104 OFFCURVE",
"142 175 CURVE",
"142 327 LINE",
"159 397 OFFCURVE",
"207 443 OFFCURVE",
"263 443 CURVE SMOOTH",
"337 443 LINE SMOOTH",
"398 443 OFFCURVE",
"440 394 OFFCURVE",
"440 321 CURVE SMOOTH",
"440 196 LINE SMOOTH",
"440 111 OFFCURVE",
"394 54 OFFCURVE",
"329 54 CURVE SMOOTH",
"259 54 LINE SMOOTH"
);
}
);
};
layerId = "76C6DC51-463D-4A0C-B694-3EB424048C5D";
paths = (
{
closed = 1;
nodes = (
"142 -203 LINE",
"142 53 LINE",
"168 15 OFFCURVE",
"216 -10 OFFCURVE",
"257 -10 CURVE SMOOTH",
"329 -10 LINE SMOOTH",
"439 -10 OFFCURVE",
"512 72 OFFCURVE",
"512 196 CURVE SMOOTH",
"512 321 LINE SMOOTH",
"512 433 OFFCURVE",
"441 507 OFFCURVE",
"336 507 CURVE SMOOTH",
"264 507 LINE SMOOTH",
"218 507 OFFCURVE",
"168 477 OFFCURVE",
"140 433 CURVE",
"140 501 LINE",
"70 501 LINE",
"70 -203 LINE"
);
},
{
closed = 1;
nodes = (
"199 54 OFFCURVE",
"151 104 OFFCURVE",
"142 175 CURVE",
"142 327 LINE",
"159 397 OFFCURVE",
"208 443 OFFCURVE",
"264 443 CURVE SMOOTH",
"334 443 LINE SMOOTH",
"397 443 OFFCURVE",
"440 394 OFFCURVE",
"440 321 CURVE SMOOTH",
"440 196 LINE SMOOTH",
"440 111 OFFCURVE",
"395 54 OFFCURVE",
"327 54 CURVE SMOOTH",
"261 54 LINE SMOOTH"
);
}
);
width = 560;
}
);
note = p;
unicode = 0070;
},
{
glyphname = q;
lastChange = "2018-03-27 07:54:54 +0000";
layers = (
{
anchors = (
{
name = bottom;
position = "{276, 0}";
},
{
name = top;
position = "{276, 470}";
}
);
background = {
paths = (
{
closed = 1;
nodes = (
"408 -203 LINE",
"480 -203 LINE",
"480 501 LINE",
"410 501 LINE",
"410 442 LINE",
"383 483 OFFCURVE",
"342 507 OFFCURVE",
"302 507 CURVE SMOOTH",
"249 507 LINE SMOOTH",
"131 507 OFFCURVE",
"52 424 OFFCURVE",
"52 300 CURVE SMOOTH",
"52 167 LINE SMOOTH",
"52 61 OFFCURVE",
"115 -10 OFFCURVE",
"209 -10 CURVE SMOOTH",
"271 -10 LINE SMOOTH",
"326 -10 OFFCURVE",
"374 15 OFFCURVE",
"408 64 CURVE"
);
},
{
closed = 1;
nodes = (
"408 196 LINE",
"403 119 OFFCURVE",
"346 54 OFFCURVE",
"271 54 CURVE SMOOTH",
"209 54 LINE SMOOTH",
"155 54 OFFCURVE",
"124 97 OFFCURVE",
"124 167 CURVE SMOOTH",
"124 300 LINE SMOOTH",
"124 386 OFFCURVE",
"174 443 OFFCURVE",
"249 443 CURVE SMOOTH",
"302 443 LINE SMOOTH",
"355 443 OFFCURVE",
"403 390 OFFCURVE",
"408 325 CURVE"
);
}
);
};
layerId = "EA06CE92-4115-4482-8874-2441C279E756";
paths = (
{
closed = 1;
nodes = (
"376 -203 LINE",
"512 -203 LINE",
"512 501 LINE",
"386 501 LINE",
"386 441 LINE",
"360 481 OFFCURVE",
"315 507 OFFCURVE",
"274 507 CURVE SMOOTH",
"216 507 LINE SMOOTH",
"98 507 OFFCURVE",
"20 417 OFFCURVE",
"20 282 CURVE SMOOTH",
"20 195 LINE SMOOTH",
"20 72 OFFCURVE",
"96 -10 OFFCURVE",
"211 -10 CURVE SMOOTH",
"271 -10 LINE SMOOTH",
"305 -10 OFFCURVE",
"347 8 OFFCURVE",
"376 36 CURVE"
);
},
{
closed = 1;
nodes = (
"376 214 LINE",
"371 152 OFFCURVE",
"329 110 OFFCURVE",
"271 110 CURVE SMOOTH",
"211 110 LINE SMOOTH",
"178 110 OFFCURVE",
"156 144 OFFCURVE",
"156 195 CURVE SMOOTH",
"156 282 LINE SMOOTH",
"156 346 OFFCURVE",
"189 389 OFFCURVE",
"238 389 CURVE SMOOTH",
"294 389 LINE SMOOTH",
"339 389 OFFCURVE",
"372 355 OFFCURVE",
"376 304 CURVE"
);
}
);
width = 552;
},
{
associatedMasterId = "020CB1CC-CCFF-4D13-936A-D2256F19E5D3";
layerId = "8AF6BA7E-4672-4BE4-A9AE-4DB948958C2C";
width = 600;
},
{
associatedMasterId = "020CB1CC-CCFF-4D13-936A-D2256F19E5D3";
layerId = "FD3CABC1-744E-4369-8779-2240BBC6EE40";
width = 600;
},
{
anchors = (
{
name = bottom;
position = "{275, 0}";
},
{
name = top;
position = "{275, 470}";
}
);
background = {
paths = (
{
closed = 1;
nodes = (
"404 -203 LINE",
"440 -203 LINE",
"440 501 LINE",
"404 501 LINE",
"404 434 LINE",
"380 478 OFFCURVE",
"333 507 OFFCURVE",
"287 507 CURVE SMOOTH",
"229 507 LINE SMOOTH",
"122 507 OFFCURVE",
"50 429 OFFCURVE",
"50 313 CURVE SMOOTH",
"50 160 LINE SMOOTH",
"50 58 OFFCURVE",
"106 -10 OFFCURVE",
"190 -10 CURVE SMOOTH",
"253 -10 LINE SMOOTH",
"312 -10 OFFCURVE",
"372 26 OFFCURVE",
"404 81 CURVE"
);
},
{
closed = 1;
nodes = (
"404 183 LINE",
"394 88 OFFCURVE",
"334 24 OFFCURVE",
"253 24 CURVE SMOOTH",
"190 24 LINE SMOOTH",
"128 24 OFFCURVE",
"86 78 OFFCURVE",
"86 160 CURVE SMOOTH",
"86 313 LINE SMOOTH",
"86 409 OFFCURVE",
"143 473 OFFCURVE",
"229 473 CURVE SMOOTH",
"287 473 LINE SMOOTH",
"349 473 OFFCURVE",
"396 419 OFFCURVE",
"404 337 CURVE"
);
}
);
};
layerId = "020CB1CC-CCFF-4D13-936A-D2256F19E5D3";
paths = (
{
closed = 1;
nodes = (
"424 -203 LINE",
"460 -203 LINE",
"460 501 LINE",
"424 501 LINE",
"424 434 LINE",
"398 478 OFFCURVE",
"353 507 OFFCURVE",
"307 507 CURVE SMOOTH",
"249 507 LINE SMOOTH",
"142 507 OFFCURVE",
"70 429 OFFCURVE",
"70 313 CURVE SMOOTH",
"70 160 LINE SMOOTH",
"70 58 OFFCURVE",
"126 -10 OFFCURVE",
"210 -10 CURVE SMOOTH",
"273 -10 LINE SMOOTH",
"334 -10 OFFCURVE",
"394 27 OFFCURVE",
"424 83 CURVE"
);
},
{
closed = 1;
nodes = (
"424 181 LINE",
"412 87 OFFCURVE",
"352 24 OFFCURVE",
"273 24 CURVE SMOOTH",
"210 24 LINE SMOOTH",
"148 24 OFFCURVE",
"106 78 OFFCURVE",
"106 160 CURVE SMOOTH",
"106 313 LINE SMOOTH",
"106 409 OFFCURVE",
"163 473 OFFCURVE",
"249 473 CURVE SMOOTH",
"307 473 LINE SMOOTH",
"369 473 OFFCURVE",
"416 413 OFFCURVE",
"424 341 CURVE"
);
}
);
width = 550;
},
{
associatedMasterId = "020CB1CC-CCFF-4D13-936A-D2256F19E5D3";
layerId = "E532909E-AB0C-431B-A1C1-8AECADFB6509";
width = 600;
},
{
anchors = (
{
name = bottom;
position = "{278, 0}";
},
{
name = top;
position = "{278, 470}";
}
);
background = {
paths = (
{
closed = 1;
nodes = (
"492 -203 LINE",
"492 501 LINE",
"422 501 LINE",
"422 445 LINE",
"397 482 OFFCURVE",
"351 507 OFFCURVE",
"308 507 CURVE SMOOTH",
"234 507 LINE SMOOTH",
"125 507 OFFCURVE",
"52 427 OFFCURVE",
"52 308 CURVE SMOOTH",
"52 181 LINE SMOOTH",
"52 66 OFFCURVE",
"121 -10 OFFCURVE",
"224 -10 CURVE SMOOTH",
"298 -10 LINE SMOOTH",
"341 -10 OFFCURVE",
"390 17 OFFCURVE",
"420 57 CURVE",
"420 -203 LINE"
);
},
{
closed = 1;
nodes = (
"164 54 OFFCURVE",
"124 105 OFFCURVE",
"124 181 CURVE SMOOTH",
"124 308 LINE SMOOTH",
"124 389 OFFCURVE",
"168 443 OFFCURVE",
"234 443 CURVE SMOOTH",
"308 443 LINE SMOOTH",
"369 443 OFFCURVE",
"414 397 OFFCURVE",
"420 329 CURVE",
"420 194 LINE",
"414 113 OFFCURVE",
"365 54 OFFCURVE",
"298 54 CURVE SMOOTH",
"224 54 LINE SMOOTH"
);
}
);
};
layerId = "76C6DC51-463D-4A0C-B694-3EB424048C5D";
paths = (
{
closed = 1;
nodes = (
"492 -203 LINE",
"492 501 LINE",
"422 501 LINE",
"422 445 LINE",
"397 482 OFFCURVE",
"347 507 OFFCURVE",
"304 507 CURVE SMOOTH",
"232 507 LINE SMOOTH",
"123 507 OFFCURVE",
"50 427 OFFCURVE",
"50 308 CURVE SMOOTH",
"50 181 LINE SMOOTH",
"50 66 OFFCURVE",
"119 -10 OFFCURVE",
"222 -10 CURVE SMOOTH",
"295 -10 LINE SMOOTH",
"338 -10 OFFCURVE",
"390 17 OFFCURVE",
"420 57 CURVE",
"420 -203 LINE"
);
},
{
closed = 1;
nodes = (
"164 54 OFFCURVE",
"122 105 OFFCURVE",
"122 181 CURVE SMOOTH",
"122 308 LINE SMOOTH",
"122 389 OFFCURVE",
"166 443 OFFCURVE",
"232 443 CURVE SMOOTH",
"304 443 LINE SMOOTH",
"365 443 OFFCURVE",
"414 397 OFFCURVE",
"420 329 CURVE",
"420 194 LINE",
"414 113 OFFCURVE",
"362 54 OFFCURVE",
"295 54 CURVE SMOOTH",
"224 54 LINE SMOOTH"
);
}
);
width = 562;
}
);
note = q;
unicode = 0071;
},
{
glyphname = r;
lastChange = "2018-03-27 06:20:25 +0000";
layers = (
{
anchors = (
{
name = bottom;
position = "{178, 0}";
},
{
name = top;
position = "{178, 470}";
}
);
background = {
paths = (
{
closed = 1;
nodes = (
"40 0 LINE",
"176 0 LINE",
"176 273 LINE SMOOTH",
"176 343 OFFCURVE",
"224 389 OFFCURVE",
"295 389 CURVE SMOOTH",
"361 389 LINE",
"361 507 LINE",
"295 507 LINE SMOOTH",
"245 507 OFFCURVE",
"194 481 OFFCURVE",
"166 443 CURVE",
"166 501 LINE",
"40 501 LINE"
);
}
);
};
layerId = "EA06CE92-4115-4482-8874-2441C279E756";
paths = (
{
closed = 1;
nodes = (
"40 0 LINE",
"176 0 LINE",
"176 271 LINE SMOOTH",
"176 338 OFFCURVE",
"224 383 OFFCURVE",
"295 383 CURVE SMOOTH",
"361 383 LINE",
"361 501 LINE",
"295 501 LINE SMOOTH",
"244 501 OFFCURVE",
"193 477 OFFCURVE",
"166 441 CURVE",
"166 501 LINE",
"40 501 LINE"
);
}
);
width = 361;
},
{
associatedMasterId = "020CB1CC-CCFF-4D13-936A-D2256F19E5D3";
layerId = "8AF6BA7E-4672-4BE4-A9AE-4DB948958C2C";
width = 600;
},
{
associatedMasterId = "020CB1CC-CCFF-4D13-936A-D2256F19E5D3";
layerId = "6CE3180D-0404-46DC-94B0-E3DB3C22A0E2";
width = 600;
},
{
anchors = (
{
name = bottom;
position = "{177, 0}";
},
{
name = top;
position = "{177, 470}";
}
);
background = {
paths = (
{
closed = 1;
nodes = (
"70 0 LINE",
"104 0 LINE",
"104 308 LINE SMOOTH",
"104 403 OFFCURVE",
"166 467 OFFCURVE",
"258 467 CURVE SMOOTH",
"289 467 LINE",
"289 501 LINE",
"258 501 LINE SMOOTH",
"193 501 OFFCURVE",
"137 470 OFFCURVE",
"106 417 CURVE",
"106 501 LINE",
"70 501 LINE"
);
}
);
};
layerId = "020CB1CC-CCFF-4D13-936A-D2256F19E5D3";
paths = (
{
closed = 1;
nodes = (
"90 0 LINE",
"124 0 LINE",
"124 306 LINE SMOOTH",
"124 401 OFFCURVE",
"186 467 OFFCURVE",
"278 467 CURVE SMOOTH",
"309 467 LINE",
"309 501 LINE",
"278 501 LINE SMOOTH",
"213 501 OFFCURVE",
"157 470 OFFCURVE",
"126 417 CURVE",
"126 501 LINE",
"90 501 LINE"
);
}
);
width = 354;
},
{
associatedMasterId = "020CB1CC-CCFF-4D13-936A-D2256F19E5D3";
layerId = "B10E8A80-0A7E-4C46-86F1-939F9A49D23F";
width = 600;
},
{
anchors = (
{
name = bottom;
position = "{176, 0}";
},
{
name = top;
position = "{176, 470}";
}
);
background = {
paths = (
{
closed = 1;
nodes = (
"70 0 LINE",
"142 0 LINE",
"142 288 LINE SMOOTH",
"142 378 OFFCURVE",
"198 438 OFFCURVE",
"283 438 CURVE SMOOTH",
"327 438 LINE",
"327 501 LINE",
"283 501 LINE SMOOTH",
"225 501 OFFCURVE",
"167 469 OFFCURVE",
"140 422 CURVE",
"140 501 LINE",
"70 501 LINE"
);
}
);
};
layerId = "76C6DC51-463D-4A0C-B694-3EB424048C5D";
paths = (
{
closed = 1;
nodes = (
"70 0 LINE",
"142 0 LINE",
"142 288 LINE SMOOTH",
"142 378 OFFCURVE",
"200 437 OFFCURVE",
"285 437 CURVE SMOOTH",
"329 437 LINE",
"329 501 LINE",
"285 501 LINE SMOOTH",
"227 501 OFFCURVE",
"167 469 OFFCURVE",
"140 422 CURVE",
"140 501 LINE",
"70 501 LINE"
);
}
);
width = 344;
}
);
note = r;
unicode = 0072;
},
{
glyphname = s;
lastChange = "2018-03-27 13:23:13 +0000";
layers = (
{
anchors = (
{
name = bottom;
position = "{255, 0}";
},
{
name = top;
position = "{255, 470}";
}
);
background = {
paths = (
{
closed = 1;
nodes = (
"339 207 LINE SMOOTH",
"371 202 OFFCURVE",
"393 180 OFFCURVE",
"393 152 CURVE SMOOTH",
"393 132 LINE SMOOTH",
"393 84 OFFCURVE",
"351 52 OFFCURVE",
"288 52 CURVE SMOOTH",
"207 52 LINE SMOOTH",
"152 52 OFFCURVE",
"115 90 OFFCURVE",
"115 146 CURVE",
"45 146 LINE",
"45 52 OFFCURVE",
"110 -10 OFFCURVE",
"207 -10 CURVE SMOOTH",
"288 -10 LINE SMOOTH",
"394 -10 OFFCURVE",
"465 48 OFFCURVE",
"465 134 CURVE SMOOTH",
"465 152 LINE SMOOTH",
"465 212 OFFCURVE",
"421 259 OFFCURVE",
"355 269 CURVE SMOOTH",
"185 295 LINE SMOOTH",
"150 301 OFFCURVE",
"126 324 OFFCURVE",
"126 352 CURVE SMOOTH",
"126 371 LINE SMOOTH",
"126 415 OFFCURVE",
"169 445 OFFCURVE",
"234 445 CURVE SMOOTH",
"297 445 LINE SMOOTH",
"346 445 OFFCURVE",
"379 412 OFFCURVE",
"380 363 CURVE",
"450 363 LINE",
"450 449 OFFCURVE",
"389 507 OFFCURVE",
"297 507 CURVE SMOOTH",
"234 507 LINE SMOOTH",
"126 507 OFFCURVE",
"54 452 OFFCURVE",
"54 370 CURVE SMOOTH",
"54 351 LINE SMOOTH",
"54 291 OFFCURVE",
"100 244 OFFCURVE",
"169 233 CURVE"
);
}
);
};
layerId = "EA06CE92-4115-4482-8874-2441C279E756";
paths = (
{
closed = 1;
nodes = (
"332 186 LINE SMOOTH",
"349 183 OFFCURVE",
"361 174 OFFCURVE",
"361 164 CURVE SMOOTH",
"361 148 LINE SMOOTH",
"361 123 OFFCURVE",
"332 106 OFFCURVE",
"288 106 CURVE SMOOTH",
"207 106 LINE SMOOTH",
"171 106 OFFCURVE",
"147 128 OFFCURVE",
"147 162 CURVE",
"15 162 LINE",
"15 59 OFFCURVE",
"92 -10 OFFCURVE",
"207 -10 CURVE SMOOTH",
"288 -10 LINE SMOOTH",
"413 -10 OFFCURVE",
"497 53 OFFCURVE",
"497 148 CURVE SMOOTH",
"497 166 LINE SMOOTH",
"497 231 OFFCURVE",
"445 275 OFFCURVE",
"358 289 CURVE SMOOTH",
"190 316 LINE SMOOTH",
"171 319 OFFCURVE",
"158 328 OFFCURVE",
"158 339 CURVE SMOOTH",
"158 355 LINE SMOOTH",
"158 377 OFFCURVE",
"188 391 OFFCURVE",
"234 391 CURVE SMOOTH",
"297 391 LINE SMOOTH",
"328 391 OFFCURVE",
"348 373 OFFCURVE",
"348 346 CURVE",
"480 346 LINE",
"480 443 OFFCURVE",
"407 507 OFFCURVE",
"297 507 CURVE SMOOTH",
"234 507 LINE SMOOTH",
"107 507 OFFCURVE",
"22 446 OFFCURVE",
"22 355 CURVE SMOOTH",
"22 337 LINE SMOOTH",
"22 272 OFFCURVE",
"75 226 OFFCURVE",
"164 212 CURVE SMOOTH"
);
}
);
width = 512;
},
{
associatedMasterId = "020CB1CC-CCFF-4D13-936A-D2256F19E5D3";
layerId = "8AF6BA7E-4672-4BE4-A9AE-4DB948958C2C";
width = 600;
},
{
associatedMasterId = "020CB1CC-CCFF-4D13-936A-D2256F19E5D3";
layerId = "CA90FAB9-7C2B-40F6-888F-658266802C14";
width = 600;
},
{
anchors = (
{
name = bottom;
position = "{257, 0}";
},
{
name = top;
position = "{257, 470}";
}
);
background = {
paths = (
{
closed = 1;
nodes = (
"325 220 LINE SMOOTH",
"365 214 OFFCURVE",
"392 184 OFFCURVE",
"392 145 CURVE SMOOTH",
"392 122 LINE SMOOTH",
"392 63 OFFCURVE",
"343 24 OFFCURVE",
"270 24 CURVE SMOOTH",
"189 24 LINE SMOOTH",
"124 24 OFFCURVE",
"81 69 OFFCURVE",
"81 136 CURVE",
"45 136 LINE",
"45 48 OFFCURVE",
"103 -10 OFFCURVE",
"189 -10 CURVE SMOOTH",
"270 -10 LINE SMOOTH",
"365 -10 OFFCURVE",
"428 44 OFFCURVE",
"428 126 CURVE SMOOTH",
"428 144 LINE SMOOTH",
"428 203 OFFCURVE",
"391 249 OFFCURVE",
"335 257 CURVE SMOOTH",
"164 283 LINE SMOOTH",
"120 290 OFFCURVE",
"91 321 OFFCURVE",
"91 360 CURVE SMOOTH",
"91 381 LINE SMOOTH",
"91 436 OFFCURVE",
"141 473 OFFCURVE",
"216 473 CURVE SMOOTH",
"279 473 LINE SMOOTH",
"337 473 OFFCURVE",
"377 433 OFFCURVE",
"378 373 CURVE",
"414 373 LINE",
"414 453 OFFCURVE",
"360 507 OFFCURVE",
"279 507 CURVE SMOOTH",
"216 507 LINE SMOOTH",
"119 507 OFFCURVE",
"55 456 OFFCURVE",
"55 379 CURVE SMOOTH",
"55 359 LINE SMOOTH",
"55 301 OFFCURVE",
"95 255 OFFCURVE",
"154 246 CURVE"
);
}
);
};
layerId = "020CB1CC-CCFF-4D13-936A-D2256F19E5D3";
paths = (
{
closed = 1;
nodes = (
"345 222 LINE SMOOTH",
"385 216 OFFCURVE",
"412 186 OFFCURVE",
"412 146 CURVE SMOOTH",
"412 117 LINE SMOOTH",
"412 61 OFFCURVE",
"363 24 OFFCURVE",
"290 24 CURVE SMOOTH",
"209 24 LINE SMOOTH",
"144 24 OFFCURVE",
"101 69 OFFCURVE",
"101 136 CURVE",
"65 136 LINE",
"65 48 OFFCURVE",
"123 -10 OFFCURVE",
"209 -10 CURVE SMOOTH",
"290 -10 LINE SMOOTH",
"385 -10 OFFCURVE",
"448 41 OFFCURVE",
"448 117 CURVE SMOOTH",
"448 146 LINE SMOOTH",
"448 202 OFFCURVE",
"411 246 OFFCURVE",
"355 255 CURVE SMOOTH",
"184 281 LINE SMOOTH",
"140 288 OFFCURVE",
"111 318 OFFCURVE",
"111 356 CURVE SMOOTH",
"111 384 LINE SMOOTH",
"111 437 OFFCURVE",
"161 473 OFFCURVE",
"236 473 CURVE SMOOTH",
"299 473 LINE SMOOTH",
"357 473 OFFCURVE",
"397 433 OFFCURVE",
"398 373 CURVE",
"434 373 LINE",
"434 453 OFFCURVE",
"380 507 OFFCURVE",
"299 507 CURVE SMOOTH",
"236 507 LINE SMOOTH",
"139 507 OFFCURVE",
"75 458 OFFCURVE",
"75 384 CURVE SMOOTH",
"75 356 LINE SMOOTH",
"75 300 OFFCURVE",
"115 257 OFFCURVE",
"174 248 CURVE"
);
}
);
width = 513;
},
{
associatedMasterId = "020CB1CC-CCFF-4D13-936A-D2256F19E5D3";
layerId = "992EEB1C-C872-42CF-A804-9DBAF5E47250";
width = 600;
},
{
anchors = (
{
name = bottom;
position = "{255, 0}";
},
{
name = top;
position = "{255, 470}";
}
);
background = {
paths = (
{
closed = 1;
nodes = (
"295 -9 LINE SMOOTH",
"401 -9 OFFCURVE",
"471 45 OFFCURVE",
"471 125 CURVE SMOOTH",
"471 153 LINE SMOOTH",
"471 212 OFFCURVE",
"427 259 OFFCURVE",
"361 269 CURVE SMOOTH",
"186 296 LINE SMOOTH",
"151 301 OFFCURVE",
"127 325 OFFCURVE",
"127 353 CURVE SMOOTH",
"127 382 LINE SMOOTH",
"127 420 OFFCURVE",
"164 446 OFFCURVE",
"220 446 CURVE SMOOTH",
"300 446 LINE SMOOTH",
"351 446 OFFCURVE",
"386 413 OFFCURVE",
"387 364 CURVE",
"457 364 LINE",
"457 450 OFFCURVE",
"394 508 OFFCURVE",
"300 508 CURVE SMOOTH",
"220 508 LINE SMOOTH",
"121 508 OFFCURVE",
"55 457 OFFCURVE",
"55 381 CURVE SMOOTH",
"55 352 LINE SMOOTH",
"55 292 OFFCURVE",
"101 244 OFFCURVE",
"170 234 CURVE SMOOTH",
"345 208 LINE SMOOTH",
"377 203 OFFCURVE",
"399 181 OFFCURVE",
"399 153 CURVE SMOOTH",
"399 123 LINE SMOOTH",
"399 81 OFFCURVE",
"357 53 OFFCURVE",
"295 53 CURVE SMOOTH",
"216 53 LINE SMOOTH",
"155 53 OFFCURVE",
"115 91 OFFCURVE",
"115 147 CURVE",
"45 147 LINE",
"45 53 OFFCURVE",
"113 -9 OFFCURVE",
"216 -9 CURVE SMOOTH"
);
}
);
};
layerId = "76C6DC51-463D-4A0C-B694-3EB424048C5D";
paths = (
{
closed = 1;
nodes = (
"295 -9 LINE SMOOTH",
"401 -9 OFFCURVE",
"469 44 OFFCURVE",
"469 123 CURVE SMOOTH",
"469 155 LINE SMOOTH",
"469 212 OFFCURVE",
"428 253 OFFCURVE",
"359 265 CURVE SMOOTH",
"186 296 LINE SMOOTH",
"151 302 OFFCURVE",
"127 326 OFFCURVE",
"127 355 CURVE SMOOTH",
"127 384 LINE SMOOTH",
"127 421 OFFCURVE",
"163 446 OFFCURVE",
"219 446 CURVE SMOOTH",
"299 446 LINE SMOOTH",
"350 446 OFFCURVE",
"386 413 OFFCURVE",
"387 364 CURVE",
"457 364 LINE",
"457 450 OFFCURVE",
"393 508 OFFCURVE",
"299 508 CURVE SMOOTH",
"219 508 LINE SMOOTH",
"120 508 OFFCURVE",
"55 458 OFFCURVE",
"55 384 CURVE SMOOTH",
"55 351 LINE SMOOTH",
"55 290 OFFCURVE",
"98 246 OFFCURVE",
"170 234 CURVE SMOOTH",
"343 204 LINE SMOOTH",
"375 198 OFFCURVE",
"397 177 OFFCURVE",
"397 151 CURVE SMOOTH",
"397 121 LINE SMOOTH",
"397 80 OFFCURVE",
"357 53 OFFCURVE",
"295 53 CURVE SMOOTH",
"216 53 LINE SMOOTH",
"155 53 OFFCURVE",
"115 91 OFFCURVE",
"115 147 CURVE",
"45 147 LINE",
"45 53 OFFCURVE",
"113 -9 OFFCURVE",
"216 -9 CURVE SMOOTH"
);
}
);
width = 509;
}
);
note = s;
unicode = 0073;
},
{
glyphname = t;
lastChange = "2018-03-27 06:35:54 +0000";
layers = (
{
anchors = (
{
name = bottom;
position = "{174, 0}";
},
{
name = center;
position = "{174, 235}";
},
{
name = top;
position = "{174, 470}";
},
{
name = topright;
position = "{326, 470}";
}
);
background = {
paths = (
{
closed = 1;
nodes = (
"119 439 LINE",
"32 439 LINE",
"32 501 LINE",
"119 501 LINE",
"119 700 LINE",
"191 700 LINE",
"191 501 LINE",
"311 501 LINE",
"311 439 LINE",
"191 439 LINE",
"191 146 LINE SMOOTH",
"191 86 OFFCURVE",
"213 64 OFFCURVE",
"267 64 CURVE SMOOTH",
"311 64 LINE",
"311 0 LINE",
"267 0 LINE SMOOTH",
"161 0 OFFCURVE",
"119 42 OFFCURVE",
"119 146 CURVE SMOOTH"
);
}
);
};
layerId = "EA06CE92-4115-4482-8874-2441C279E756";
paths = (
{
closed = 1;
nodes = (
"343 0 LINE",
"343 118 LINE",
"267 118 LINE SMOOTH",
"236 118 OFFCURVE",
"223 134 OFFCURVE",
"223 174 CURVE SMOOTH",
"223 383 LINE",
"343 383 LINE",
"343 501 LINE",
"223 501 LINE",
"223 651 LINE",
"87 651 LINE",
"87 501 LINE",
"0 501 LINE",
"0 383 LINE",
"87 383 LINE",
"87 174 LINE SMOOTH",
"87 50 OFFCURVE",
"138 0 OFFCURVE",
"267 0 CURVE SMOOTH"
);
}
);
width = 363;
},
{
associatedMasterId = "020CB1CC-CCFF-4D13-936A-D2256F19E5D3";
layerId = "8AF6BA7E-4672-4BE4-A9AE-4DB948958C2C";
width = 600;
},
{
associatedMasterId = "020CB1CC-CCFF-4D13-936A-D2256F19E5D3";
layerId = "63A305DA-24A4-445B-99F6-70B1FE659541";
width = 600;
},
{
anchors = (
{
name = bottom;
position = "{175, -141}";
},
{
name = center;
position = "{175, 376}";
},
{
name = top;
position = "{175, 470}";
},
{
name = topright;
position = "{327, 470}";
}
);
background = {
paths = (
{
closed = 1;
nodes = (
"101 439 LINE",
"14 439 LINE",
"14 501 LINE",
"101 501 LINE",
"101 700 LINE",
"173 700 LINE",
"173 501 LINE",
"293 501 LINE",
"293 439 LINE",
"173 439 LINE",
"173 146 LINE SMOOTH",
"173 86 OFFCURVE",
"195 64 OFFCURVE",
"249 64 CURVE SMOOTH",
"293 64 LINE",
"293 0 LINE",
"249 0 LINE SMOOTH",
"143 0 OFFCURVE",
"101 42 OFFCURVE",
"101 146 CURVE SMOOTH"
);
}
);
};
layerId = "020CB1CC-CCFF-4D13-936A-D2256F19E5D3";
paths = (
{
closed = 1;
nodes = (
"293 0 LINE",
"293 34 LINE",
"268 34 LINE SMOOTH",
"200 34 OFFCURVE",
"173 61 OFFCURVE",
"173 129 CURVE SMOOTH",
"173 467 LINE",
"293 467 LINE",
"293 501 LINE",
"173 501 LINE",
"173 649 LINE",
"137 649 LINE",
"137 501 LINE",
"50 501 LINE",
"50 467 LINE",
"137 467 LINE",
"137 129 LINE SMOOTH",
"137 37 OFFCURVE",
"174 0 OFFCURVE",
"268 0 CURVE SMOOTH"
);
}
);
width = 348;
},
{
associatedMasterId = "020CB1CC-CCFF-4D13-936A-D2256F19E5D3";
layerId = "7E091DFF-4E05-4888-B536-173E6B1D6610";
width = 600;
},
{
anchors = (
{
name = bottom;
position = "{173, 0}";
},
{
name = center;
position = "{173, 235}";
},
{
name = top;
position = "{173, 470}";
},
{
name = topright;
position = "{325, 470}";
}
);
layerId = "76C6DC51-463D-4A0C-B694-3EB424048C5D";
paths = (
{
closed = 1;
nodes = (
"320 0 LINE",
"320 64 LINE",
"266 64 LINE SMOOTH",
"212 64 OFFCURVE",
"190 87 OFFCURVE",
"190 146 CURVE SMOOTH",
"190 437 LINE",
"320 437 LINE",
"320 501 LINE",
"190 501 LINE",
"190 650 LINE",
"118 650 LINE",
"118 501 LINE",
"30 501 LINE",
"30 437 LINE",
"118 437 LINE",
"118 146 LINE SMOOTH",
"118 42 OFFCURVE",
"160 0 OFFCURVE",
"266 0 CURVE SMOOTH"
);
}
);
width = 355;
}
);
note = t;
unicode = 0074;
},
{
glyphname = u;
lastChange = "2018-03-27 06:38:00 +0000";
layers = (
{
anchors = (
{
name = bottom;
position = "{276, 0}";
},
{
name = ogonek;
position = "{498, 10}";
},
{
name = top;
position = "{276, 470}";
},
{
name = topright;
position = "{534, 470}";
}
);
background = {
paths = (
{
closed = 1;
nodes = (
"171 501 LINE",
"35 501 LINE",
"35 189 LINE SMOOTH",
"35 70 OFFCURVE",
"110 -10 OFFCURVE",
"223 -10 CURVE SMOOTH",
"284 -10 LINE SMOOTH",
"319 -10 OFFCURVE",
"362 17 OFFCURVE",
"393 57 CURVE",
"393 0 LINE",
"521 0 LINE",
"521 501 LINE",
"385 501 LINE",
"385 210 LINE",
"371 149 OFFCURVE",
"330 108 OFFCURVE",
"284 108 CURVE SMOOTH",
"223 108 LINE SMOOTH",
"192 108 OFFCURVE",
"171 139 OFFCURVE",
"171 186 CURVE SMOOTH"
);
}
);
};
layerId = "EA06CE92-4115-4482-8874-2441C279E756";
paths = (
{
closed = 1;
nodes = (
"171 501 LINE",
"35 501 LINE",
"35 181 LINE SMOOTH",
"35 66 OFFCURVE",
"105 -10 OFFCURVE",
"210 -10 CURVE SMOOTH",
"272 -10 LINE SMOOTH",
"312 -10 OFFCURVE",
"360 17 OFFCURVE",
"393 58 CURVE",
"393 0 LINE",
"521 0 LINE",
"521 501 LINE",
"385 501 LINE",
"385 204 LINE",
"372 148 OFFCURVE",
"328 110 OFFCURVE",
"274 110 CURVE SMOOTH",
"225 110 LINE SMOOTH",
"193 110 OFFCURVE",
"171 138 OFFCURVE",
"171 181 CURVE SMOOTH"
);
}
);
width = 561;
},
{
associatedMasterId = "020CB1CC-CCFF-4D13-936A-D2256F19E5D3";
layerId = "8AF6BA7E-4672-4BE4-A9AE-4DB948958C2C";
width = 600;
},
{
associatedMasterId = "020CB1CC-CCFF-4D13-936A-D2256F19E5D3";
layerId = "229F074A-ECAB-42F7-8200-F4586F81301F";
width = 600;
},
{
anchors = (
{
name = bottom;
position = "{281, 0}";
},
{
name = ogonek;
position = "{503, 10}";
},
{
name = top;
position = "{281, 470}";
},
{
name = topright;
position = "{539, 470}";
}
);
background = {
paths = (
{
closed = 1;
nodes = (
"107 501 LINE",
"71 501 LINE",
"71 147 LINE SMOOTH",
"71 53 OFFCURVE",
"127 -10 OFFCURVE",
"212 -10 CURVE SMOOTH",
"276 -10 LINE SMOOTH",
"330 -10 OFFCURVE",
"387 28 OFFCURVE",
"419 84 CURVE",
"419 0 LINE",
"455 0 LINE",
"455 501 LINE",
"419 501 LINE",
"419 157 LINE",
"393 77 OFFCURVE",
"336 24 OFFCURVE",
"276 24 CURVE SMOOTH",
"212 24 LINE SMOOTH",
"149 24 OFFCURVE",
"107 73 OFFCURVE",
"107 147 CURVE SMOOTH"
);
}
);
};
layerId = "020CB1CC-CCFF-4D13-936A-D2256F19E5D3";
paths = (
{
closed = 1;
nodes = (
"126 501 LINE",
"90 501 LINE",
"90 147 LINE SMOOTH",
"90 53 OFFCURVE",
"146 -10 OFFCURVE",
"229 -10 CURVE SMOOTH",
"293 -10 LINE SMOOTH",
"345 -10 OFFCURVE",
"403 28 OFFCURVE",
"438 84 CURVE",
"438 0 LINE",
"474 0 LINE",
"474 501 LINE",
"438 501 LINE",
"438 149 LINE",
"408 74 OFFCURVE",
"350 24 OFFCURVE",
"293 24 CURVE SMOOTH",
"229 24 LINE SMOOTH",
"167 24 OFFCURVE",
"126 73 OFFCURVE",
"126 147 CURVE SMOOTH"
);
}
);
width = 559;
},
{
associatedMasterId = "020CB1CC-CCFF-4D13-936A-D2256F19E5D3";
layerId = "5DFE651B-3114-48B1-89EA-65EBA87DF4ED";
width = 600;
},
{
anchors = (
{
name = bottom;
position = "{274, 0}";
},
{
name = ogonek;
position = "{496, 10}";
},
{
name = top;
position = "{274, 470}";
},
{
name = topright;
position = "{532, 470}";
}
);
background = {
paths = (
{
closed = 1;
nodes = (
"137 501 LINE",
"65 501 LINE",
"65 160 LINE SMOOTH",
"65 58 OFFCURVE",
"127 -10 OFFCURVE",
"218 -10 CURVE SMOOTH",
"285 -10 LINE SMOOTH",
"334 -10 OFFCURVE",
"389 26 OFFCURVE",
"419 74 CURVE",
"419 0 LINE",
"489 0 LINE",
"489 501 LINE",
"417 501 LINE",
"417 184 LINE",
"402 110 OFFCURVE",
"345 54 OFFCURVE",
"283 54 CURVE SMOOTH",
"220 54 LINE SMOOTH",
"171 54 OFFCURVE",
"137 96 OFFCURVE",
"137 158 CURVE SMOOTH"
);
}
);
};
layerId = "76C6DC51-463D-4A0C-B694-3EB424048C5D";
paths = (
{
closed = 1;
nodes = (
"137 501 LINE",
"65 501 LINE",
"65 160 LINE SMOOTH",
"65 58 OFFCURVE",
"126 -10 OFFCURVE",
"218 -10 CURVE SMOOTH",
"284 -10 LINE SMOOTH",
"333 -10 OFFCURVE",
"389 26 OFFCURVE",
"419 74 CURVE",
"419 0 LINE",
"489 0 LINE",
"489 501 LINE",
"417 501 LINE",
"417 184 LINE",
"402 110 OFFCURVE",
"344 54 OFFCURVE",
"282 54 CURVE SMOOTH",
"220 54 LINE SMOOTH",
"170 54 OFFCURVE",
"137 96 OFFCURVE",
"137 158 CURVE SMOOTH"
);
}
);
width = 559;
}
);
note = u;
unicode = 0075;
},
{
glyphname = v;
lastChange = "2018-03-27 06:08:05 +0000";
layers = (
{
anchors = (
{
name = bottom;
position = "{261, 0}";
},
{
name = top;
position = "{261, 470}";
}
);
background = {
paths = (
{
closed = 1;
nodes = (
"522 501 LINE",
"381 501 LINE",
"261 166 LINE",
"260 166 LINE",
"142 501 LINE",
"0 501 LINE",
"166 79 LINE SMOOTH",
"189 21 OFFCURVE",
"221 -6 OFFCURVE",
"264 -6 CURVE SMOOTH",
"320 -6 LINE"
);
}
);
};
layerId = "EA06CE92-4115-4482-8874-2441C279E756";
paths = (
{
closed = 1;
nodes = (
"522 501 LINE",
"381 501 LINE",
"246 124 LINE",
"276 124 LINE",
"142 501 LINE",
"0 501 LINE",
"172 65 LINE SMOOTH",
"189 20 OFFCURVE",
"215 0 OFFCURVE",
"254 0 CURVE SMOOTH",
"322 0 LINE"
);
}
);
width = 522;
},
{
associatedMasterId = "020CB1CC-CCFF-4D13-936A-D2256F19E5D3";
layerId = "8AF6BA7E-4672-4BE4-A9AE-4DB948958C2C";
width = 600;
},
{
associatedMasterId = "020CB1CC-CCFF-4D13-936A-D2256F19E5D3";
layerId = "1CDD641D-C439-4491-9829-91DE26DDB4D6";
width = 600;
},
{
anchors = (
{
name = bottom;
position = "{257, 0}";
},
{
name = top;
position = "{257, 470}";
}
);
background = {
paths = (
{
closed = 1;
nodes = (
"443 501 LINE",
"404 501 LINE",
"236 43 LINE",
"235 43 LINE",
"68 501 LINE",
"30 501 LINE",
"204 30 LINE SMOOTH",
"211 8 OFFCURVE",
"220 0 OFFCURVE",
"236 0 CURVE SMOOTH",
"254 0 LINE"
);
}
);
};
layerId = "020CB1CC-CCFF-4D13-936A-D2256F19E5D3";
paths = (
{
closed = 1;
nodes = (
"463 501 LINE",
"424 501 LINE",
"256 43 LINE",
"255 43 LINE",
"88 501 LINE",
"50 501 LINE",
"224 30 LINE SMOOTH",
"231 9 OFFCURVE",
"241 0 OFFCURVE",
"258 0 CURVE SMOOTH",
"274 0 LINE"
);
}
);
width = 513;
},
{
associatedMasterId = "020CB1CC-CCFF-4D13-936A-D2256F19E5D3";
layerId = "EA70CE9C-58A8-4CE3-9DC4-A40E56F9BA8C";
width = 600;
},
{
anchors = (
{
name = bottom;
position = "{257, 0}";
},
{
name = top;
position = "{257, 470}";
}
);
layerId = "76C6DC51-463D-4A0C-B694-3EB424048C5D";
paths = (
{
closed = 1;
nodes = (
"484 501 LINE",
"408 501 LINE",
"257 79 LINE",
"256 79 LINE",
"106 501 LINE",
"30 501 LINE",
"198 51 LINE SMOOTH",
"211 17 OFFCURVE",
"231 0 OFFCURVE",
"259 0 CURVE SMOOTH",
"293 0 LINE"
);
}
);
width = 514;
}
);
note = v;
unicode = 0076;
},
{
glyphname = w;
lastChange = "2018-03-13 05:33:59 +0000";
layers = (
{
anchors = (
{
name = bottom;
position = "{363, 0}";
},
{
name = top;
position = "{363, 470}";
}
);
background = {
paths = (
{
closed = 1;
nodes = (
"255 0 LINE",
"365 316 LINE",
"471 0 LINE",
"528 0 LINE SMOOTH",
"573 0 OFFCURVE",
"600 25 OFFCURVE",
"614 78 CURVE SMOOTH",
"725 501 LINE",
"585 501 LINE",
"504 150 LINE",
"528 151 LINE",
"429 446 LINE SMOOTH",
"419 474 OFFCURVE",
"401 487 OFFCURVE",
"370 487 CURVE SMOOTH",
"313 487 LINE",
"197 150 LINE",
"222 149 LINE",
"140 501 LINE",
"0 501 LINE",
"113 78 LINE SMOOTH",
"128 25 OFFCURVE",
"155 0 OFFCURVE",
"199 0 CURVE SMOOTH"
);
}
);
};
layerId = "EA06CE92-4115-4482-8874-2441C279E756";
paths = (
{
closed = 1;
nodes = (
"255 0 LINE",
"365 316 LINE",
"471 0 LINE",
"528 0 LINE SMOOTH",
"573 0 OFFCURVE",
"600 25 OFFCURVE",
"614 78 CURVE SMOOTH",
"725 501 LINE",
"585 501 LINE",
"505 150 LINE",
"527 151 LINE",
"429 446 LINE SMOOTH",
"420 474 OFFCURVE",
"401 487 OFFCURVE",
"370 487 CURVE SMOOTH",
"313 487 LINE",
"198 150 LINE",
"221 149 LINE",
"140 501 LINE",
"0 501 LINE",
"113 78 LINE SMOOTH",
"127 25 OFFCURVE",
"155 0 OFFCURVE",
"199 0 CURVE SMOOTH"
);
}
);
width = 725;
},
{
associatedMasterId = "020CB1CC-CCFF-4D13-936A-D2256F19E5D3";
layerId = "8AF6BA7E-4672-4BE4-A9AE-4DB948958C2C";
width = 600;
},
{
associatedMasterId = "020CB1CC-CCFF-4D13-936A-D2256F19E5D3";
layerId = "0C70D5BA-42DE-425B-A154-802EC4F123A4";
width = 600;
},
{
anchors = (
{
name = bottom;
position = "{360, 0}";
},
{
name = top;
position = "{360, 470}";
}
);
background = {
paths = (
{
closed = 1;
nodes = (
"198 0 LINE",
"342 428 LINE",
"482 0 LINE",
"498 0 LINE SMOOTH",
"521 0 OFFCURVE",
"533 11 OFFCURVE",
"540 39 CURVE SMOOTH",
"649 501 LINE",
"612 501 LINE",
"504 39 LINE",
"503 39 LINE",
"364 462 LINE SMOOTH",
"358 480 OFFCURVE",
"351 487 OFFCURVE",
"341 487 CURVE SMOOTH",
"327 487 LINE",
"178 39 LINE",
"177 39 LINE",
"67 501 LINE",
"30 501 LINE",
"141 39 LINE SMOOTH",
"148 11 OFFCURVE",
"160 0 OFFCURVE",
"182 0 CURVE SMOOTH"
);
}
);
};
layerId = "020CB1CC-CCFF-4D13-936A-D2256F19E5D3";
paths = (
{
closed = 1;
nodes = (
"218 0 LINE",
"362 428 LINE",
"502 0 LINE",
"518 0 LINE SMOOTH",
"541 0 OFFCURVE",
"553 11 OFFCURVE",
"560 39 CURVE SMOOTH",
"669 501 LINE",
"632 501 LINE",
"524 39 LINE",
"523 39 LINE",
"383 465 LINE SMOOTH",
"378 480 OFFCURVE",
"372 487 OFFCURVE",
"362 487 CURVE SMOOTH",
"347 487 LINE",
"198 39 LINE",
"197 39 LINE",
"87 501 LINE",
"50 501 LINE",
"161 39 LINE SMOOTH",
"168 11 OFFCURVE",
"180 0 OFFCURVE",
"202 0 CURVE SMOOTH"
);
}
);
width = 719;
},
{
associatedMasterId = "020CB1CC-CCFF-4D13-936A-D2256F19E5D3";
layerId = "41C6E2AC-87D1-4C4B-83DE-767115DB1E07";
width = 600;
},
{
anchors = (
{
name = bottom;
position = "{360, 0}";
},
{
name = top;
position = "{360, 470}";
}
);
layerId = "76C6DC51-463D-4A0C-B694-3EB424048C5D";
paths = (
{
closed = 1;
nodes = (
"233 0 LINE",
"362 379 LINE",
"487 0 LINE",
"521 0 LINE SMOOTH",
"553 0 OFFCURVE",
"572 18 OFFCURVE",
"581 58 CURVE SMOOTH",
"689 501 LINE",
"613 501 LINE",
"511 39 LINE",
"535 39 LINE",
"399 455 LINE SMOOTH",
"392 477 OFFCURVE",
"380 487 OFFCURVE",
"360 487 CURVE SMOOTH",
"334 487 LINE",
"188 48 LINE",
"206 48 LINE",
"106 501 LINE",
"30 501 LINE",
"139 58 LINE SMOOTH",
"149 18 OFFCURVE",
"168 0 OFFCURVE",
"199 0 CURVE SMOOTH"
);
}
);
width = 719;
}
);
note = w;
unicode = 0077;
},
{
glyphname = x;
lastChange = "2018-03-27 07:03:34 +0000";
layers = (
{
anchors = (
{
name = bottom;
position = "{276, 0}";
},
{
name = top;
position = "{276, 470}";
}
);
background = {
paths = (
{
closed = 1;
nodes = (
"404 -28 LINE",
"562 -28 LINE",
"150 529 LINE",
"-8 529 LINE"
);
},
{
closed = 1;
nodes = (
"402 529 LINE",
"-10 -28 LINE",
"148 -28 LINE",
"560 529 LINE"
);
}
);
};
layerId = "EA06CE92-4115-4482-8874-2441C279E756";
paths = (
{
closed = 1;
nodes = (
"388 0 LINE",
"544 0 LINE",
"169 501 LINE",
"13 501 LINE"
);
},
{
closed = 1;
nodes = (
"383 501 LINE",
"8 0 LINE",
"164 0 LINE",
"539 501 LINE"
);
}
);
width = 552;
},
{
associatedMasterId = "020CB1CC-CCFF-4D13-936A-D2256F19E5D3";
layerId = "8AF6BA7E-4672-4BE4-A9AE-4DB948958C2C";
width = 600;
},
{
associatedMasterId = "020CB1CC-CCFF-4D13-936A-D2256F19E5D3";
layerId = "3BD25D80-F6F9-47A6-88C6-E46E9006D3EB";
width = 600;
},
{
anchors = (
{
name = bottom;
position = "{264, 0}";
},
{
name = top;
position = "{264, 470}";
}
);
background = {
paths = (
{
closed = 1;
nodes = (
"233 314 LINE",
"89 500 LINE",
"6 500 LINE",
"189 264 LINE",
"-20 0 LINE",
"64 0 LINE",
"233 214 LINE",
"404 0 LINE",
"488 0 LINE",
"277 264 LINE",
"461 500 LINE",
"379 500 LINE"
);
}
);
};
layerId = "020CB1CC-CCFF-4D13-936A-D2256F19E5D3";
paths = (
{
closed = 1;
nodes = (
"427 0 LINE",
"469 0 LINE",
"104 501 LINE",
"62 501 LINE"
);
},
{
closed = 1;
nodes = (
"425 501 LINE",
"60 0 LINE",
"102 0 LINE",
"467 501 LINE"
);
}
);
width = 529;
},
{
associatedMasterId = "020CB1CC-CCFF-4D13-936A-D2256F19E5D3";
layerId = "C17673C5-702D-4EB6-BC60-244C49B39EF9";
width = 600;
},
{
anchors = (
{
name = bottom;
position = "{267, 0}";
},
{
name = top;
position = "{267, 470}";
}
);
layerId = "76C6DC51-463D-4A0C-B694-3EB424048C5D";
paths = (
{
closed = 1;
nodes = (
"414 0 LINE",
"496 0 LINE",
"126 501 LINE",
"44 501 LINE"
);
},
{
closed = 1;
nodes = (
"408 501 LINE",
"38 0 LINE",
"120 0 LINE",
"490 501 LINE"
);
}
);
width = 534;
}
);
note = x;
unicode = 0078;
},
